Fira Sans-SemiLight.ufo
<glyph name="exclam" format="1">
  <advance width="240"/>
  <unicode hex="0021"/>
  <outline>
    <contour>
      <point x="105" y="682" type="line"/>
      <point x="105" y="208" type="line"/>
      <point x="134" y="208" type="line"/>
      <point x="134" y="682" type="line"/>
    </contour>
    <contour>
      <point x="102" y="49"/>
      <point x="90" y="36"/>
      <point x="90" y="19" type="curve" smooth="yes"/>
      <point x="90" y="3"/>
      <point x="102" y="-10"/>
      <point x="120" y="-10" type="curve" smooth="yes"/>
      <point x="139" y="-10"/>
      <point x="150" y="3"/>
      <point x="150" y="19" type="curve" smooth="yes"/>
      <point x="150" y="36"/>
      <point x="139" y="49"/>
      <point x="120" y="49" type="curve" smooth="yes"/>
    </contour>
  </outline>
</glyph>
<glyph name="dollar" format="1">
  <advance width="521"/>
  <unicode hex="0024"/>
  <outline>
    <contour>
      <point x="245" y="0" type="line"/>
      <point x="245" y="-147" type="line"/>
      <point x="272" y="-147" type="line"/>
      <point x="272" y="1" type="line"/>
    </contour>
    <contour>
      <point x="245" y="814" type="line"/>
      <point x="245" y="664" type="line"/>
      <point x="272" y="664" type="line"/>
      <point x="272" y="814" type="line"/>
    </contour>
    <contour>
      <point x="147" y="671"/>
      <point x="76" y="604"/>
      <point x="76" y="516" type="curve" smooth="yes"/>
      <point x="76" y="429"/>
      <point x="123" y="386"/>
      <point x="258" y="343" type="curve" smooth="yes"/>
      <point x="380" y="305"/>
      <point x="426" y="270"/>
      <point x="426" y="177" type="curve" smooth="yes"/>
      <point x="426" y="80"/>
      <point x="355" y="18"/>
      <point x="249" y="18" type="curve" smooth="yes"/>
      <point x="168" y="18"/>
      <point x="115" y="48"/>
      <point x="69" y="89" type="curve"/>
      <point x="50" y="69" type="line"/>
      <point x="102" y="22"/>
      <point x="164" y="-10"/>
      <point x="250" y="-10" type="curve" smooth="yes"/>
      <point x="371" y="-10"/>
      <point x="456" y="66"/>
      <point x="456" y="178" type="curve" smooth="yes"/>
      <point x="456" y="286"/>
      <point x="399" y="329"/>
      <point x="268" y="370" type="curve" smooth="yes"/>
      <point x="150" y="406"/>
      <point x="106" y="438"/>
      <point x="106" y="516" type="curve" smooth="yes"/>
      <point x="106" y="591"/>
      <point x="165" y="643"/>
      <point x="256" y="643" type="curve" smooth="yes"/>
      <point x="323" y="643"/>
      <point x="368" y="625"/>
      <point x="416" y="580" type="curve"/>
      <point x="436" y="601" type="line"/>
      <point x="387" y="644"/>
      <point x="339" y="671"/>
      <point x="256" y="671" type="curve" smooth="yes"/>
    </contour>
  </outline>
</glyph>
<glyph name="percent" format="1">
  <advance width="766"/>
  <unicode hex="0025"/>
  <outline>
    <contour>
      <point x="144" y="-2" type="line"/>
      <point x="169" y="-18" type="line"/>
      <point x="633" y="681" type="line"/>
      <point x="608" y="697" type="line"/>
    </contour>
    <contour>
      <point x="275" y="648"/>
      <point x="307" y="588"/>
      <point x="307" y="518" type="curve" smooth="yes"/>
      <point x="307" y="445"/>
      <point x="275" y="385"/>
      <point x="199" y="385" type="curve"/>
      <point x="123" y="385"/>
      <point x="91" y="445"/>
      <point x="91" y="515" type="curve" smooth="yes"/>
      <point x="91" y="588"/>
      <point x="123" y="648"/>
      <point x="199" y="648" type="curve"/>
    </contour>
    <contour>
      <point x="112" y="674"/>
      <point x="60" y="611"/>
      <point x="60" y="515" type="curve" smooth="yes"/>
      <point x="60" y="420"/>
      <point x="116" y="359"/>
      <point x="199" y="359" type="curve"/>
      <point x="286" y="359"/>
      <point x="338" y="422"/>
      <point x="338" y="518" type="curve" smooth="yes"/>
      <point x="338" y="613"/>
      <point x="282" y="674"/>
      <point x="199" y="674" type="curve"/>
    </contour>
    <contour>
      <point x="643" y="279"/>
      <point x="675" y="219"/>
      <point x="675" y="149" type="curve" smooth="yes"/>
      <point x="675" y="76"/>
      <point x="643" y="16"/>
      <point x="567" y="16" type="curve"/>
      <point x="491" y="16"/>
      <point x="459" y="76"/>
      <point x="459" y="146" type="curve" smooth="yes"/>
      <point x="459" y="219"/>
      <point x="491" y="279"/>
      <point x="567" y="279" type="curve"/>
    </contour>
    <contour>
      <point x="480" y="305"/>
      <point x="428" y="242"/>
      <point x="428" y="146" type="curve" smooth="yes"/>
      <point x="428" y="51"/>
      <point x="484" y="-10"/>
      <point x="567" y="-10" type="curve"/>
      <point x="654" y="-10"/>
      <point x="706" y="53"/>
      <point x="706" y="149" type="curve" smooth="yes"/>
      <point x="706" y="244"/>
      <point x="650" y="305"/>
      <point x="567" y="305" type="curve"/>
    </contour>
  </outline>
</glyph>
<glyph name="quotesingle" format="1">
  <advance width="192"/>
  <unicode hex="0027"/>
  <outline>
    <contour>
      <point x="108" y="439" type="line"/>
      <point x="112" y="682" type="line"/>
      <point x="80" y="682" type="line"/>
      <point x="84" y="439" type="line"/>
    </contour>
  </outline>
</glyph>
<glyph name="parenleft" format="1">
  <advance width="324"/>
  <unicode hex="0028"/>
  <outline>
    <contour>
      <point x="143" y="696"/>
      <point x="65" y="579"/>
      <point x="65" y="350" type="curve"/>
      <point x="65" y="121"/>
      <point x="143" y="4"/>
      <point x="239" y="-131" type="curve"/>
      <point x="259" y="-119" type="line"/>
      <point x="170" y="12"/>
      <point x="95" y="130"/>
      <point x="95" y="350" type="curve"/>
      <point x="95" y="570"/>
      <point x="170" y="688"/>
      <point x="259" y="819" type="curve"/>
      <point x="239" y="831" type="line"/>
    </contour>
  </outline>
</glyph>
<glyph name="parenright" format="1">
  <advance width="324"/>
  <unicode hex="0029"/>
  <outline>
    <contour>
      <point x="65" y="819" type="line"/>
      <point x="154" y="688"/>
      <point x="229" y="570"/>
      <point x="229" y="350" type="curve"/>
      <point x="229" y="130"/>
      <point x="154" y="12"/>
      <point x="65" y="-119" type="curve"/>
      <point x="85" y="-131" type="line"/>
      <point x="181" y="4"/>
      <point x="259" y="121"/>
      <point x="259" y="350" type="curve"/>
      <point x="259" y="579"/>
      <point x="181" y="696"/>
      <point x="85" y="831" type="curve"/>
    </contour>
  </outline>
</glyph>
<glyph name="asterisk" format="1">
  <advance width="433"/>
  <unicode hex="002A"/>
  <outline>
    <contour>
      <point x="215" y="542" type="line"/>
      <point x="307" y="408" type="line"/>
      <point x="332" y="426" type="line"/>
      <point x="234" y="557" type="line"/>
      <point x="217" y="559" type="line"/>
    </contour>
    <contour>
      <point x="202" y="734" type="line"/>
      <point x="204" y="569" type="line"/>
      <point x="217" y="559" type="line"/>
      <point x="230" y="569" type="line"/>
      <point x="232" y="734" type="line"/>
    </contour>
    <contour>
      <point x="225" y="573" type="line"/>
      <point x="217" y="559" type="line"/>
      <point x="232" y="552" type="line"/>
      <point x="388" y="599" type="line"/>
      <point x="379" y="626" type="line"/>
    </contour>
    <contour>
      <point x="45" y="599" type="line"/>
      <point x="202" y="551" type="line"/>
      <point x="217" y="559" type="line"/>
      <point x="207" y="572" type="line"/>
      <point x="54" y="626" type="line"/>
    </contour>
    <contour>
      <point x="200" y="555" type="line"/>
      <point x="101" y="426" type="line"/>
      <point x="126" y="408" type="line"/>
      <point x="220" y="542" type="line"/>
      <point x="217" y="559" type="line"/>
    </contour>
  </outline>
</glyph>
<glyph name="plus" format="1">
  <advance width="488"/>
  <unicode hex="002B"/>
  <outline>
    <contour>
      <point x="229" y="499" type="line"/>
      <point x="229" y="345" type="line"/>
      <point x="75" y="345" type="line"/>
      <point x="75" y="316" type="line"/>
      <point x="229" y="316" type="line"/>
      <point x="229" y="162" type="line"/>
      <point x="260" y="162" type="line"/>
      <point x="260" y="316" type="line"/>
      <point x="413" y="316" type="line"/>
      <point x="413" y="345" type="line"/>
      <point x="260" y="345" type="line"/>
      <point x="260" y="499" type="line"/>
    </contour>
  </outline>
</glyph>
<glyph name="comma" format="1">
  <advance width="180"/>
  <unicode hex="002C"/>
  <outline>
    <contour>
      <point x="72" y="49"/>
      <point x="60" y="36"/>
      <point x="60" y="19" type="curve" smooth="yes"/>
      <point x="60" y="7"/>
      <point x="66" y="-3"/>
      <point x="78" y="-7" type="curve"/>
      <point x="38" y="-139" type="line"/>
      <point x="61" y="-139" type="line"/>
      <point x="108" y="-22" type="line" smooth="yes"/>
      <point x="113" y="-9"/>
      <point x="120" y="6"/>
      <point x="120" y="19" type="curve" smooth="yes"/>
      <point x="120" y="36"/>
      <point x="109" y="49"/>
      <point x="90" y="49" type="curve" smooth="yes"/>
    </contour>
  </outline>
</glyph>
<glyph name="hyphen" format="1">
  <advance width="399"/>
  <unicode hex="002D"/>
  <outline>
    <contour>
      <point x="324" y="299" type="line"/>
      <point x="324" y="327" type="line"/>
      <point x="75" y="327" type="line"/>
      <point x="75" y="299" type="line"/>
    </contour>
  </outline>
</glyph>
<glyph name="period" format="1">
  <advance width="180"/>
  <unicode hex="002E"/>
  <outline>
    <contour>
      <point x="72" y="49"/>
      <point x="60" y="36"/>
      <point x="60" y="19" type="curve" smooth="yes"/>
      <point x="60" y="3"/>
      <point x="72" y="-10"/>
      <point x="90" y="-10" type="curve" smooth="yes"/>
      <point x="109" y="-10"/>
      <point x="120" y="3"/>
      <point x="120" y="19" type="curve" smooth="yes"/>
      <point x="120" y="36"/>
      <point x="109" y="49"/>
      <point x="90" y="49" type="curve" smooth="yes"/>
    </contour>
  </outline>
</glyph>
<glyph name="slash" format="1">
  <advance width="520"/>
  <unicode hex="002F"/>
  <outline>
    <contour>
      <point x="130" y="-89" type="line"/>
      <point x="157" y="-96" type="line"/>
      <point x="389" y="792" type="line"/>
      <point x="362" y="799" type="line"/>
    </contour>
  </outline>
</glyph>
<glyph name="zero" format="1">
  <advance width="543"/>
  <unicode hex="0030"/>
  <outline>
    <contour>
      <point x="146" y="674"/>
      <point x="75" y="560"/>
      <point x="75" y="332" type="curve" smooth="yes"/>
      <point x="75" y="105"/>
      <point x="146" y="-10"/>
      <point x="272" y="-10" type="curve" smooth="yes"/>
      <point x="397" y="-10"/>
      <point x="468" y="103"/>
      <point x="468" y="330" type="curve" smooth="yes"/>
      <point x="468" y="560"/>
      <point x="398" y="674"/>
      <point x="272" y="674" type="curve" smooth="yes"/>
    </contour>
    <contour>
      <point x="379" y="646"/>
      <point x="437" y="542"/>
      <point x="437" y="330" type="curve" smooth="yes"/>
      <point x="437" y="119"/>
      <point x="378" y="18"/>
      <point x="272" y="18" type="curve" smooth="yes"/>
      <point x="166" y="18"/>
      <point x="106" y="121"/>
      <point x="106" y="332" type="curve" smooth="yes"/>
      <point x="106" y="544"/>
      <point x="167" y="646"/>
      <point x="272" y="646" type="curve" smooth="yes"/>
    </contour>
  </outline>
</glyph>
<glyph name="one" format="1">
  <advance width="396"/>
  <unicode hex="0031"/>
  <outline>
    <contour>
      <point x="242" y="662" type="line"/>
      <point x="50" y="542" type="line"/>
      <point x="65" y="518" type="line"/>
      <point x="236" y="626" type="line"/>
      <point x="236" y="0" type="line"/>
      <point x="266" y="0" type="line"/>
      <point x="266" y="662" type="line"/>
    </contour>
  </outline>
</glyph>
<glyph name="two" format="1">
  <advance width="465"/>
  <unicode hex="0032"/>
  <outline>
    <contour>
      <point x="146" y="674"/>
      <point x="91" y="645"/>
      <point x="40" y="584" type="curve"/>
      <point x="63" y="568" type="line"/>
      <point x="101" y="615"/>
      <point x="151" y="646"/>
      <point x="221" y="646" type="curve" smooth="yes"/>
      <point x="307" y="646"/>
      <point x="360" y="590"/>
      <point x="360" y="503" type="curve" smooth="yes"/>
      <point x="360" y="379"/>
      <point x="302" y="307"/>
      <point x="46" y="29" type="curve"/>
      <point x="46" y="0" type="line"/>
      <point x="404" y="0" type="line"/>
      <point x="410" y="30" type="line"/>
      <point x="84" y="30" type="line"/>
      <point x="321" y="289"/>
      <point x="391" y="367"/>
      <point x="391" y="506" type="curve" smooth="yes"/>
      <point x="391" y="602"/>
      <point x="329" y="674"/>
      <point x="222" y="674" type="curve" smooth="yes"/>
    </contour>
  </outline>
</glyph>
<glyph name="three" format="1">
  <advance width="476"/>
  <unicode hex="0033"/>
  <outline>
    <contour>
      <point x="143" y="674"/>
      <point x="91" y="649"/>
      <point x="43" y="601" type="curve"/>
      <point x="61" y="581" type="line"/>
      <point x="111" y="628"/>
      <point x="157" y="646"/>
      <point x="216" y="646" type="curve" smooth="yes"/>
      <point x="302" y="646"/>
      <point x="358" y="594"/>
      <point x="358" y="510" type="curve" smooth="yes"/>
      <point x="358" y="408"/>
      <point x="281" y="365"/>
      <point x="209" y="365" type="curve" smooth="yes"/>
      <point x="177" y="365" type="line"/>
      <point x="173" y="338" type="line"/>
      <point x="212" y="338" type="line" smooth="yes"/>
      <point x="309" y="338"/>
      <point x="375" y="290"/>
      <point x="375" y="182" type="curve" smooth="yes"/>
      <point x="375" y="86"/>
      <point x="315" y="18"/>
      <point x="206" y="18" type="curve" smooth="yes"/>
      <point x="144" y="18"/>
      <point x="95" y="36"/>
      <point x="46" y="90" type="curve"/>
      <point x="25" y="73" type="line"/>
      <point x="74" y="18"/>
      <point x="130" y="-10"/>
      <point x="207" y="-10" type="curve" smooth="yes"/>
      <point x="328" y="-10"/>
      <point x="406" y="69"/>
      <point x="406" y="183" type="curve" smooth="yes"/>
      <point x="406" y="292"/>
      <point x="338" y="352"/>
      <point x="254" y="353" type="curve"/>
      <point x="329" y="362"/>
      <point x="389" y="416"/>
      <point x="389" y="511" type="curve" smooth="yes"/>
      <point x="389" y="606"/>
      <point x="323" y="674"/>
      <point x="217" y="674" type="curve" smooth="yes"/>
    </contour>
  </outline>
</glyph>
<glyph name="four" format="1">
  <advance width="507"/>
  <unicode hex="0034"/>
  <outline>
    <contour>
      <point x="50" y="208" type="line"/>
      <point x="50" y="183" type="line"/>
      <point x="467" y="183" type="line"/>
      <point x="467" y="211" type="line"/>
      <point x="82" y="211" type="line"/>
      <point x="280" y="663" type="line"/>
      <point x="254" y="674" type="line"/>
    </contour>
    <contour>
      <point x="349" y="418" type="line"/>
      <point x="345" y="204" type="line"/>
      <point x="345" y="0" type="line"/>
      <point x="375" y="0" type="line"/>
      <point x="375" y="418" type="line"/>
    </contour>
  </outline>
</glyph>
<glyph name="five" format="1">
  <advance width="475"/>
  <unicode hex="0035"/>
  <outline>
    <contour>
      <point x="86" y="662" type="line"/>
      <point x="86" y="351" type="line"/>
      <point x="110" y="351" type="line"/>
      <point x="151" y="377"/>
      <point x="182" y="389"/>
      <point x="234" y="389" type="curve" smooth="yes"/>
      <point x="325" y="389"/>
      <point x="388" y="331"/>
      <point x="388" y="214" type="curve" smooth="yes"/>
      <point x="388" y="96"/>
      <point x="323" y="18"/>
      <point x="221" y="18" type="curve" smooth="yes"/>
      <point x="150" y="18"/>
      <point x="104" y="41"/>
      <point x="62" y="85" type="curve"/>
      <point x="40" y="66" type="line"/>
      <point x="86" y="18"/>
      <point x="142" y="-10"/>
      <point x="220" y="-10" type="curve" smooth="yes"/>
      <point x="344" y="-10"/>
      <point x="420" y="84"/>
      <point x="420" y="214" type="curve" smooth="yes"/>
      <point x="420" y="340"/>
      <point x="349" y="417"/>
      <point x="235" y="417" type="curve" smooth="yes"/>
      <point x="181" y="417"/>
      <point x="144" y="400"/>
      <point x="116" y="381" type="curve"/>
      <point x="116" y="634" type="line"/>
      <point x="393" y="634" type="line"/>
      <point x="399" y="662" type="line"/>
    </contour>
  </outline>
</glyph>
<glyph name="seven" format="1">
  <advance width="431"/>
  <unicode hex="0037"/>
  <outline>
    <contour>
      <point x="35" y="662" type="line"/>
      <point x="35" y="634" type="line"/>
      <point x="358" y="634" type="line"/>
      <point x="90" y="4" type="line"/>
      <point x="119" y="-6" type="line"/>
      <point x="391" y="637" type="line"/>
      <point x="391" y="662" type="line"/>
    </contour>
  </outline>
</glyph>
<glyph name="nine" format="1">
  <advance width="512"/>
  <unicode hex="0039"/>
  <outline>
    <contour>
      <point x="416" y="401" type="line"/>
      <point x="366" y="324"/>
      <point x="315" y="281"/>
      <point x="240" y="281" type="curve" smooth="yes"/>
      <point x="150" y="281"/>
      <point x="92" y="346"/>
      <point x="92" y="457" type="curve" smooth="yes"/>
      <point x="92" y="579"/>
      <point x="155" y="646"/>
      <point x="253" y="646" type="curve" smooth="yes"/>
      <point x="368" y="646"/>
      <point x="411" y="553"/>
      <point x="412" y="390" type="curve"/>
      <point x="412" y="367" type="line"/>
      <point x="403" y="159"/>
      <point x="298" y="67"/>
      <point x="117" y="8" type="curve"/>
      <point x="126" y="-17" type="line"/>
      <point x="325" y="48"/>
      <point x="442" y="148"/>
      <point x="442" y="399" type="curve" smooth="yes"/>
      <point x="442" y="571"/>
      <point x="385" y="674"/>
      <point x="252" y="674" type="curve" smooth="yes"/>
      <point x="139" y="674"/>
      <point x="60" y="591"/>
      <point x="60" y="458" type="curve" smooth="yes"/>
      <point x="60" y="331"/>
      <point x="135" y="253"/>
      <point x="237" y="253" type="curve" smooth="yes"/>
      <point x="313" y="253"/>
      <point x="374" y="294"/>
      <point x="420" y="369" type="curve"/>
    </contour>
  </outline>
</glyph>
<glyph name="less" format="1">
  <advance width="494"/>
  <unicode hex="003C"/>
  <outline>
    <contour>
      <point x="75" y="344" type="line"/>
      <point x="75" y="322" type="line"/>
      <point x="407" y="152" type="line"/>
      <point x="419" y="178" type="line"/>
      <point x="109" y="333" type="line"/>
      <point x="419" y="484" type="line"/>
      <point x="407" y="510" type="line"/>
    </contour>
  </outline>
</glyph>
<glyph name="greater" format="1">
  <advance width="494"/>
  <unicode hex="003E"/>
  <outline>
    <contour>
      <point x="75" y="484" type="line"/>
      <point x="385" y="333" type="line"/>
      <point x="75" y="178" type="line"/>
      <point x="87" y="152" type="line"/>
      <point x="419" y="322" type="line"/>
      <point x="419" y="344" type="line"/>
      <point x="87" y="510" type="line"/>
    </contour>
  </outline>
</glyph>
<glyph name="question" format="1">
  <advance width="438"/>
  <unicode hex="003F"/>
  <outline>
    <contour>
      <point x="155" y="692"/>
      <point x="102" y="664"/>
      <point x="50" y="605" type="curve"/>
      <point x="72" y="588" type="line"/>
      <point x="120" y="640"/>
      <point x="162" y="664"/>
      <point x="231" y="664" type="curve" smooth="yes"/>
      <point x="307" y="664"/>
      <point x="356" y="620"/>
      <point x="356" y="554" type="curve" smooth="yes"/>
      <point x="356" y="420"/>
      <point x="175" y="442"/>
      <point x="175" y="274" type="curve" smooth="yes"/>
      <point x="175" y="208" type="line"/>
      <point x="204" y="208" type="line"/>
      <point x="204" y="271" type="line" smooth="yes"/>
      <point x="204" y="426"/>
      <point x="388" y="407"/>
      <point x="388" y="554" type="curve" smooth="yes"/>
      <point x="388" y="630"/>
      <point x="329" y="692"/>
      <point x="231" y="692" type="curve" smooth="yes"/>
    </contour>
    <contour>
      <point x="174" y="49"/>
      <point x="162" y="36"/>
      <point x="162" y="19" type="curve" smooth="yes"/>
      <point x="162" y="3"/>
      <point x="174" y="-10"/>
      <point x="192" y="-10" type="curve" smooth="yes"/>
      <point x="211" y="-10"/>
      <point x="222" y="3"/>
      <point x="222" y="19" type="curve" smooth="yes"/>
      <point x="222" y="36"/>
      <point x="211" y="49"/>
      <point x="192" y="49" type="curve" smooth="yes"/>
    </contour>
  </outline>
</glyph>
<glyph name="E" format="1">
  <advance width="493"/>
  <unicode hex="0045"/>
  <outline>
    <contour>
      <point x="120" y="682" type="line"/>
      <point x="120" y="0" type="line"/>
      <point x="453" y="0" type="line"/>
      <point x="453" y="29" type="line"/>
      <point x="151" y="29" type="line"/>
      <point x="151" y="345" type="line"/>
      <point x="403" y="345" type="line"/>
      <point x="403" y="373" type="line"/>
      <point x="151" y="373" type="line"/>
      <point x="151" y="653" type="line"/>
      <point x="443" y="653" type="line"/>
      <point x="447" y="682" type="line"/>
    </contour>
    <contour>
      <point x="438" y="0" type="move" name="ogonek"/>
    </contour>
    <contour>
      <point x="288" y="682" type="move" name="top"/>
    </contour>
    <contour>
      <point x="90" y="682" type="move" name="topleft"/>
    </contour>
    <contour>
      <point x="283" y="0" type="move" name="bottom"/>
    </contour>
  </outline>
</glyph>
<glyph name="F" format="1">
  <advance width="472"/>
  <unicode hex="0046"/>
  <outline>
    <contour>
      <point x="120" y="682" type="line"/>
      <point x="120" y="0" type="line"/>
      <point x="151" y="0" type="line"/>
      <point x="151" y="331" type="line"/>
      <point x="399" y="331" type="line"/>
      <point x="399" y="359" type="line"/>
      <point x="151" y="359" type="line"/>
      <point x="151" y="653" type="line"/>
      <point x="438" y="653" type="line"/>
      <point x="442" y="682" type="line"/>
    </contour>
    <contour>
      <point x="291" y="682" type="move" name="top"/>
    </contour>
  </outline>
</glyph>
<glyph name="G" format="1">
  <advance width="608"/>
  <unicode hex="0047"/>
  <outline>
    <contour>
      <point x="215" y="692"/>
      <point x="75" y="583"/>
      <point x="75" y="345" type="curve" smooth="yes"/>
      <point x="75" y="109"/>
      <point x="189" y="-10"/>
      <point x="353" y="-10" type="curve" smooth="yes"/>
      <point x="416" y="-10"/>
      <point x="481" y="8"/>
      <point x="538" y="42" type="curve"/>
      <point x="538" y="359" type="line"/>
      <point x="360" y="359" type="line"/>
      <point x="364" y="330" type="line"/>
      <point x="507" y="330" type="line"/>
      <point x="507" y="58" type="line"/>
      <point x="462" y="33"/>
      <point x="418" y="19"/>
      <point x="353" y="19" type="curve" smooth="yes"/>
      <point x="207" y="19"/>
      <point x="107" y="125"/>
      <point x="107" y="345" type="curve" smooth="yes"/>
      <point x="107" y="574"/>
      <point x="233" y="663"/>
      <point x="348" y="663" type="curve" smooth="yes"/>
      <point x="411" y="663"/>
      <point x="456" y="647"/>
      <point x="504" y="610" type="curve"/>
      <point x="523" y="631" type="line"/>
      <point x="470" y="672"/>
      <point x="422" y="692"/>
      <point x="348" y="692" type="curve" smooth="yes"/>
    </contour>
    <contour>
      <point x="349" y="682" type="move" name="top"/>
    </contour>
    <contour>
      <point x="337" y="0" type="move" name="bottom"/>
    </contour>
  </outline>
</glyph>
<glyph name="I" format="1">
  <advance width="271"/>
  <unicode hex="0049"/>
  <outline>
    <contour>
      <point x="120" y="682" type="line"/>
      <point x="120" y="0" type="line"/>
      <point x="151" y="0" type="line"/>
      <point x="151" y="682" type="line"/>
    </contour>
    <contour>
      <point x="161" y="0" type="move" name="ogonek"/>
    </contour>
    <contour>
      <point x="135" y="682" type="move" name="top"/>
    </contour>
    <contour>
      <point x="90" y="682" type="move" name="topleft"/>
    </contour>
    <contour>
      <point x="136" y="0" type="move" name="bottom"/>
    </contour>
  </outline>
</glyph>
<glyph name="J" format="1">
  <advance width="279"/>
  <unicode hex="004A"/>
  <outline>
    <contour>
      <point x="134" y="682" type="line"/>
      <point x="134" y="90" type="line" smooth="yes"/>
      <point x="134" y="-3"/>
      <point x="111" y="-37"/>
      <point x="20" y="-81" type="curve"/>
      <point x="29" y="-104" type="line"/>
      <point x="141" y="-54"/>
      <point x="165" y="-15"/>
      <point x="165" y="88" type="curve" smooth="yes"/>
      <point x="165" y="682" type="line"/>
    </contour>
    <contour>
      <point x="147" y="682" type="move" name="top"/>
    </contour>
    <contour>
      <point x="140" y="-193" type="move" name="bottom"/>
    </contour>
  </outline>
</glyph>
<glyph name="K" format="1">
  <advance width="513"/>
  <unicode hex="004B"/>
  <outline>
    <contour>
      <point x="460" y="682" type="line"/>
      <point x="154" y="367" type="line"/>
      <point x="475" y="0" type="line"/>
      <point x="513" y="0" type="line"/>
      <point x="194" y="367" type="line"/>
      <point x="497" y="682" type="line"/>
    </contour>
    <contour>
      <point x="120" y="682" type="line"/>
      <point x="120" y="0" type="line"/>
      <point x="151" y="0" type="line"/>
      <point x="151" y="682" type="line"/>
    </contour>
    <contour>
      <point x="290" y="682" type="move" name="top"/>
    </contour>
    <contour>
      <point x="300" y="0" type="move" name="bottom"/>
    </contour>
  </outline>
</glyph>
<glyph name="L" format="1">
  <advance width="460"/>
  <unicode hex="004C"/>
  <outline>
    <contour>
      <point x="120" y="682" type="line"/>
      <point x="120" y="0" type="line"/>
      <point x="434" y="0" type="line"/>
      <point x="440" y="30" type="line"/>
      <point x="151" y="30" type="line"/>
      <point x="151" y="682" type="line"/>
    </contour>
    <contour>
      <point x="281" y="0" type="move" name="bottom"/>
    </contour>
    <contour>
      <point x="136" y="682" type="move" name="top"/>
    </contour>
    <contour>
      <point x="181" y="682" type="move" name="topright"/>
    </contour>
    <contour>
      <point x="352" y="354" type="move" name="center"/>
    </contour>
  </outline>
</glyph>
<glyph name="M" format="1">
  <advance width="764"/>
  <unicode hex="004D"/>
  <outline>
    <contour>
      <point x="569" y="682" type="line"/>
      <point x="382" y="121" type="line"/>
      <point x="192" y="682" type="line"/>
      <point x="146" y="682" type="line"/>
      <point x="75" y="0" type="line"/>
      <point x="105" y="0" type="line"/>
      <point x="140" y="351" type="line"/>
      <point x="151" y="459"/>
      <point x="167" y="597"/>
      <point x="171" y="655" type="curve"/>
      <point x="367" y="83" type="line"/>
      <point x="397" y="83" type="line"/>
      <point x="589" y="655" type="line"/>
      <point x="595" y="588"/>
      <point x="609" y="454"/>
      <point x="621" y="342" type="curve" smooth="yes"/>
      <point x="659" y="0" type="line"/>
      <point x="689" y="0" type="line"/>
      <point x="616" y="682" type="line"/>
    </contour>
    <contour>
      <point x="381" y="682" type="move" name="top"/>
    </contour>
    <contour>
      <point x="699" y="0" type="move" name="bottomright"/>
    </contour>
  </outline>
</glyph>
<glyph name="R" format="1">
  <advance width="577"/>
  <unicode hex="0052"/>
  <outline>
    <contour>
      <point x="120" y="682" type="line"/>
      <point x="120" y="0" type="line"/>
      <point x="151" y="0" type="line"/>
      <point x="151" y="653" type="line"/>
      <point x="270" y="653" type="line" smooth="yes"/>
      <point x="417" y="653"/>
      <point x="470" y="599"/>
      <point x="470" y="503" type="curve" smooth="yes"/>
      <point x="470" y="397"/>
      <point x="400" y="349"/>
      <point x="280" y="349" type="curve" smooth="yes"/>
      <point x="144" y="349" type="line"/>
      <point x="144" y="320" type="line"/>
      <point x="316" y="320" type="line"/>
      <point x="426" y="336"/>
      <point x="502" y="385"/>
      <point x="502" y="503" type="curve" smooth="yes"/>
      <point x="502" y="618"/>
      <point x="433" y="682"/>
      <point x="274" y="682" type="curve" smooth="yes"/>
    </contour>
    <contour>
      <point x="309" y="327" type="line"/>
      <point x="498" y="0" type="line"/>
      <point x="537" y="0" type="line"/>
      <point x="343" y="332" type="line"/>
    </contour>
    <contour>
      <point x="290" y="682" type="move" name="top"/>
    </contour>
    <contour>
      <point x="305" y="0" type="move" name="bottom"/>
    </contour>
  </outline>
</glyph>
<glyph name="S" format="1">
  <advance width="534"/>
  <unicode hex="0053"/>
  <outline>
    <contour>
      <point x="151" y="692"/>
      <point x="77" y="623"/>
      <point x="77" y="533" type="curve" smooth="yes"/>
      <point x="77" y="442"/>
      <point x="126" y="397"/>
      <point x="265" y="354" type="curve" smooth="yes"/>
      <point x="391" y="315"/>
      <point x="438" y="278"/>
      <point x="438" y="182" type="curve" smooth="yes"/>
      <point x="438" y="82"/>
      <point x="365" y="19"/>
      <point x="256" y="19" type="curve" smooth="yes"/>
      <point x="172" y="19"/>
      <point x="119" y="49"/>
      <point x="70" y="94" type="curve"/>
      <point x="50" y="73" type="line"/>
      <point x="105" y="23"/>
      <point x="168" y="-10"/>
      <point x="257" y="-10" type="curve" smooth="yes"/>
      <point x="381" y="-10"/>
      <point x="469" y="68"/>
      <point x="469" y="183" type="curve" smooth="yes"/>
      <point x="469" y="295"/>
      <point x="410" y="340"/>
      <point x="275" y="381" type="curve" smooth="yes"/>
      <point x="154" y="418"/>
      <point x="108" y="452"/>
      <point x="108" y="533" type="curve" smooth="yes"/>
      <point x="108" y="609"/>
      <point x="169" y="663"/>
      <point x="265" y="663" type="curve" smooth="yes"/>
      <point x="333" y="663"/>
      <point x="378" y="644"/>
      <point x="428" y="598" type="curve"/>
      <point x="448" y="620" type="line"/>
      <point x="398" y="664"/>
      <point x="349" y="692"/>
      <point x="265" y="692" type="curve" smooth="yes"/>
    </contour>
    <contour>
      <point x="268" y="682" type="move" name="top"/>
    </contour>
    <contour>
      <point x="262" y="0" type="move" name="bottom"/>
    </contour>
  </outline>
</glyph>
<glyph name="T" format="1">
  <advance width="477"/>
  <unicode hex="0054"/>
  <outline>
    <contour>
      <point x="15" y="682" type="line"/>
      <point x="15" y="652" type="line"/>
      <point x="223" y="652" type="line"/>
      <point x="223" y="0" type="line"/>
      <point x="254" y="0" type="line"/>
      <point x="254" y="652" type="line"/>
      <point x="462" y="652" type="line"/>
      <point x="467" y="682" type="line"/>
    </contour>
    <contour>
      <point x="239" y="0" type="move" name="bottom"/>
    </contour>
    <contour>
      <point x="239" y="682" type="move" name="top"/>
    </contour>
    <contour>
      <point x="264" y="0" type="move" name="bottomright"/>
    </contour>
    <contour>
      <point x="239" y="348" type="move" name="center"/>
    </contour>
  </outline>
</glyph>
<glyph name="W" format="1">
  <advance width="796"/>
  <unicode hex="0057"/>
  <outline>
    <contour>
      <point x="729" y="682" type="line"/>
      <point x="584" y="32" type="line"/>
      <point x="417" y="682" type="line"/>
      <point x="379" y="682" type="line"/>
      <point x="214" y="32" type="line"/>
      <point x="68" y="682" type="line"/>
      <point x="35" y="682" type="line"/>
      <point x="194" y="0" type="line"/>
      <point x="230" y="0" type="line"/>
      <point x="398" y="652" type="line"/>
      <point x="566" y="0" type="line"/>
      <point x="602" y="0" type="line"/>
      <point x="761" y="682" type="line"/>
    </contour>
    <contour>
      <point x="398" y="682" type="move" name="top"/>
    </contour>
    <contour>
      <point x="398" y="0" type="move" name="bottom"/>
    </contour>
  </outline>
</glyph>
<glyph name="X" format="1">
  <advance width="489"/>
  <unicode hex="0058"/>
  <outline>
    <contour>
      <point x="37" y="682" type="line"/>
      <point x="225" y="369" type="line"/>
      <point x="243" y="350" type="line"/>
      <point x="443" y="0" type="line"/>
      <point x="478" y="0" type="line"/>
      <point x="261" y="370" type="line"/>
      <point x="243" y="388" type="line"/>
      <point x="72" y="682" type="line"/>
    </contour>
    <contour>
      <point x="412" y="682" type="line"/>
      <point x="243" y="388" type="line"/>
      <point x="225" y="369" type="line"/>
      <point x="15" y="0" type="line"/>
      <point x="49" y="0" type="line"/>
      <point x="243" y="350" type="line"/>
      <point x="261" y="370" type="line"/>
      <point x="446" y="682" type="line"/>
    </contour>
    <contour>
      <point x="245" y="682" type="move" name="top"/>
    </contour>
    <contour>
      <point x="245" y="0" type="move" name="bottom"/>
    </contour>
    <contour>
      <point x="453" y="0" type="move" name="bottomright"/>
    </contour>
  </outline>
</glyph>
<glyph name="Y" format="1">
  <advance width="500"/>
  <unicode hex="0059"/>
  <outline>
    <contour>
      <point x="445" y="682" type="line"/>
      <point x="252" y="297" type="line"/>
      <point x="55" y="682" type="line"/>
      <point x="20" y="682" type="line"/>
      <point x="236" y="270" type="line"/>
      <point x="236" y="0" type="line"/>
      <point x="267" y="0" type="line"/>
      <point x="267" y="271" type="line"/>
      <point x="480" y="682" type="line"/>
    </contour>
    <contour>
      <point x="250" y="682" type="move" name="top"/>
    </contour>
    <contour>
      <point x="252" y="0" type="move" name="bottom"/>
    </contour>
    <contour>
      <point x="15" y="682" type="move" name="topleft"/>
    </contour>
  </outline>
</glyph>
<glyph name="Z" format="1">
  <advance width="511"/>
  <unicode hex="005A"/>
  <outline>
    <contour>
      <point x="78" y="682" type="line"/>
      <point x="78" y="653" type="line"/>
      <point x="425" y="653" type="line"/>
      <point x="40" y="28" type="line"/>
      <point x="40" y="0" type="line"/>
      <point x="445" y="0" type="line"/>
      <point x="449" y="30" type="line"/>
      <point x="77" y="30" type="line"/>
      <point x="461" y="655" type="line"/>
      <point x="461" y="682" type="line"/>
    </contour>
    <contour>
      <point x="256" y="682" type="move" name="top"/>
    </contour>
    <contour>
      <point x="258" y="0" type="move" name="bottom"/>
    </contour>
  </outline>
</glyph>
<glyph name="bracketleft" format="1">
  <advance width="313"/>
  <unicode hex="005B"/>
  <outline>
    <contour>
      <point x="100" y="799" type="line"/>
      <point x="100" y="-109" type="line"/>
      <point x="233" y="-109" type="line"/>
      <point x="233" y="-86" type="line"/>
      <point x="127" y="-86" type="line"/>
      <point x="127" y="776" type="line"/>
      <point x="233" y="776" type="line"/>
      <point x="233" y="799" type="line"/>
    </contour>
  </outline>
</glyph>
<glyph name="backslash" format="1">
  <advance width="520"/>
  <unicode hex="005C"/>
  <outline>
    <contour>
      <point x="130" y="792" type="line"/>
      <point x="362" y="-96" type="line"/>
      <point x="389" y="-89" type="line"/>
      <point x="157" y="799" type="line"/>
    </contour>
  </outline>
</glyph>
<glyph name="bracketright" format="1">
  <advance width="313"/>
  <unicode hex="005D"/>
  <outline>
    <contour>
      <point x="80" y="799" type="line"/>
      <point x="80" y="776" type="line"/>
      <point x="186" y="776" type="line"/>
      <point x="186" y="-86" type="line"/>
      <point x="80" y="-86" type="line"/>
      <point x="80" y="-109" type="line"/>
      <point x="213" y="-109" type="line"/>
      <point x="213" y="799" type="line"/>
    </contour>
  </outline>
</glyph>
<glyph name="asciicircum" format="1">
  <advance width="523"/>
  <unicode hex="005E"/>
  <outline>
    <contour>
      <point x="251" y="826" type="line"/>
      <point x="70" y="527" type="line"/>
      <point x="109" y="527" type="line"/>
      <point x="262" y="788" type="line"/>
      <point x="415" y="527" type="line"/>
      <point x="453" y="527" type="line"/>
      <point x="272" y="826" type="line"/>
    </contour>
  </outline>
</glyph>
<glyph name="underscore" format="1">
  <advance width="520"/>
  <unicode hex="005F"/>
  <outline>
    <contour>
      <point x="483" y="-105" type="line"/>
      <point x="483" y="-77" type="line"/>
      <point x="38" y="-77" type="line"/>
      <point x="38" y="-105" type="line"/>
    </contour>
  </outline>
</glyph>
<glyph name="a" format="1">
  <advance width="530"/>
  <unicode hex="0061"/>
  <outline>
    <contour>
      <point x="204" y="530"/>
      <point x="157" y="517"/>
      <point x="105" y="496" type="curve"/>
      <point x="114" y="470" type="line"/>
      <point x="164" y="490"/>
      <point x="210" y="502"/>
      <point x="256" y="502" type="curve" smooth="yes"/>
      <point x="354" y="502"/>
      <point x="386" y="457"/>
      <point x="386" y="369" type="curve"/>
      <point x="386" y="112" type="line"/>
      <point x="390" y="98" type="line"/>
      <point x="389" y="31"/>
      <point x="410" y="3"/>
      <point x="453" y="-10" type="curve"/>
      <point x="460" y="11" type="line"/>
      <point x="430" y="23"/>
      <point x="416" y="42"/>
      <point x="416" y="110" type="curve" smooth="yes"/>
      <point x="416" y="372" type="line" smooth="yes"/>
      <point x="416" y="476"/>
      <point x="368" y="530"/>
      <point x="256" y="530" type="curve" smooth="yes"/>
    </contour>
    <contour>
      <point x="270" y="309" type="line" smooth="yes"/>
      <point x="147" y="309"/>
      <point x="65" y="251"/>
      <point x="65" y="144" type="curve" smooth="yes"/>
      <point x="65" y="51"/>
      <point x="124" y="-10"/>
      <point x="223" y="-10" type="curve" smooth="yes"/>
      <point x="301" y="-10"/>
      <point x="357" y="26"/>
      <point x="395" y="94" type="curve"/>
      <point x="390" y="130" type="line"/>
      <point x="356" y="61"/>
      <point x="304" y="18"/>
      <point x="223" y="18" type="curve" smooth="yes"/>
      <point x="146" y="18"/>
      <point x="97" y="64"/>
      <point x="97" y="144" type="curve" smooth="yes"/>
      <point x="97" y="237"/>
      <point x="165" y="282"/>
      <point x="276" y="282" type="curve" smooth="yes"/>
      <point x="393" y="282" type="line"/>
      <point x="393" y="309" type="line"/>
    </contour>
    <contour>
      <point x="463" y="-10" type="move" name="ogonek"/>
    </contour>
    <contour>
      <point x="256" y="0" type="move" name="bottom"/>
    </contour>
    <contour>
      <point x="256" y="520" type="move" name="top"/>
    </contour>
  </outline>
</glyph>
<glyph name="b" format="1">
  <advance width="570"/>
  <unicode hex="0062"/>
  <outline>
    <contour>
      <point x="232" y="530"/>
      <point x="176" y="488"/>
      <point x="138" y="432" type="curve"/>
      <point x="139" y="398" type="line"/>
      <point x="185" y="460"/>
      <point x="230" y="502"/>
      <point x="309" y="502" type="curve" smooth="yes"/>
      <point x="410" y="502"/>
      <point x="464" y="422"/>
      <point x="464" y="264" type="curve" smooth="yes"/>
      <point x="464" y="105"/>
      <point x="407" y="18"/>
      <point x="302" y="18" type="curve" smooth="yes"/>
      <point x="229" y="18"/>
      <point x="176" y="60"/>
      <point x="139" y="119" type="curve"/>
      <point x="137" y="84" type="line"/>
      <point x="167" y="36"/>
      <point x="224" y="-10"/>
      <point x="303" y="-10" type="curve" smooth="yes"/>
      <point x="428" y="-10"/>
      <point x="495" y="94"/>
      <point x="495" y="264" type="curve" smooth="yes"/>
      <point x="495" y="436"/>
      <point x="429" y="530"/>
      <point x="309" y="530" type="curve" smooth="yes"/>
    </contour>
    <contour>
      <point x="115" y="734" type="line"/>
      <point x="115" y="0" type="line"/>
      <point x="141" y="0" type="line"/>
      <point x="145" y="96" type="line"/>
      <point x="145" y="738" type="line"/>
    </contour>
    <contour>
      <point x="294" y="734" type="move" name="top"/>
    </contour>
    <contour>
      <point x="298" y="0" type="move" name="bottom"/>
    </contour>
  </outline>
</glyph>
<glyph name="d" format="1">
  <advance width="575"/>
  <unicode hex="0064"/>
  <outline>
    <contour>
      <point x="151" y="530"/>
      <point x="75" y="419"/>
      <point x="75" y="258" type="curve" smooth="yes"/>
      <point x="75" y="90"/>
      <point x="152" y="-10"/>
      <point x="268" y="-10" type="curve" smooth="yes"/>
      <point x="357" y="-10"/>
      <point x="406" y="39"/>
      <point x="433" y="91" type="curve"/>
      <point x="435" y="141" type="line"/>
      <point x="398" y="63"/>
      <point x="352" y="18"/>
      <point x="269" y="18" type="curve" smooth="yes"/>
      <point x="170" y="18"/>
      <point x="107" y="106"/>
      <point x="106" y="258" type="curve" smooth="yes"/>
      <point x="105" y="412"/>
      <point x="178" y="502"/>
      <point x="280" y="502" type="curve" smooth="yes"/>
      <point x="360" y="502"/>
      <point x="407" y="454"/>
      <point x="437" y="403" type="curve"/>
      <point x="436" y="445" type="line"/>
      <point x="410" y="484"/>
      <point x="365" y="530"/>
      <point x="279" y="530" type="curve" smooth="yes"/>
    </contour>
    <contour>
      <point x="430" y="117" type="line"/>
      <point x="430" y="96" type="line"/>
      <point x="434" y="0" type="line"/>
      <point x="460" y="0" type="line"/>
      <point x="460" y="734" type="line"/>
      <point x="430" y="738" type="line"/>
    </contour>
    <contour>
      <point x="298" y="0" type="move" name="bottom"/>
    </contour>
    <contour>
      <point x="279" y="734" type="move" name="top"/>
    </contour>
    <contour>
      <point x="490" y="734" type="move" name="topright"/>
    </contour>
    <contour>
      <point x="293" y="260" type="move" name="center"/>
    </contour>
  </outline>
</glyph>
<glyph name="f" format="1">
  <advance width="310"/>
  <unicode hex="0066"/>
  <outline>
    <contour>
      <point x="170" y="738"/>
      <point x="118" y="695"/>
      <point x="118" y="617" type="curve" smooth="yes"/>
      <point x="118" y="0" type="line"/>
      <point x="148" y="0" type="line"/>
      <point x="148" y="613" type="line" smooth="yes"/>
      <point x="148" y="683"/>
      <point x="188" y="710"/>
      <point x="249" y="710" type="curve" smooth="yes"/>
      <point x="286" y="710"/>
      <point x="319" y="701"/>
      <point x="353" y="685" type="curve"/>
      <point x="365" y="709" type="line"/>
      <point x="330" y="727"/>
      <point x="288" y="738"/>
      <point x="247" y="738" type="curve" smooth="yes"/>
    </contour>
    <contour>
      <point x="30" y="520" type="line"/>
      <point x="30" y="493" type="line"/>
      <point x="289" y="493" type="line"/>
      <point x="294" y="520" type="line"/>
    </contour>
    <contour>
      <point x="250" y="734" type="move" name="top"/>
    </contour>
    <contour>
      <point x="133" y="0" type="move" name="bottom"/>
    </contour>
  </outline>
</glyph>
<glyph name="g" format="1">
  <advance width="489"/>
  <unicode hex="0067"/>
  <outline>
    <contour>
      <point x="421" y="538"/>
      <point x="392" y="529"/>
      <point x="244" y="530" type="curve" smooth="yes"/>
      <point x="131" y="530"/>
      <point x="62" y="461"/>
      <point x="62" y="359" type="curve" smooth="yes"/>
      <point x="62" y="288"/>
      <point x="91" y="240"/>
      <point x="149" y="210" type="curve"/>
      <point x="115" y="189"/>
      <point x="92" y="161"/>
      <point x="92" y="125" type="curve" smooth="yes"/>
      <point x="92" y="77"/>
      <point x="135" y="39"/>
      <point x="216" y="39" type="curve" smooth="yes"/>
      <point x="302" y="39" type="line" smooth="yes"/>
      <point x="383" y="39"/>
      <point x="430" y="3"/>
      <point x="430" y="-58" type="curve" smooth="yes"/>
      <point x="430" y="-127"/>
      <point x="379" y="-171"/>
      <point x="251" y="-171" type="curve" smooth="yes"/>
      <point x="118" y="-171"/>
      <point x="72" y="-141"/>
      <point x="70" y="-57" type="curve"/>
      <point x="40" y="-57" type="line"/>
      <point x="40" y="-159"/>
      <point x="104" y="-199"/>
      <point x="251" y="-199" type="curve" smooth="yes"/>
      <point x="395" y="-199"/>
      <point x="461" y="-144"/>
      <point x="461" y="-56" type="curve" smooth="yes"/>
      <point x="461" y="17"/>
      <point x="404" y="67"/>
      <point x="304" y="67" type="curve" smooth="yes"/>
      <point x="218" y="67" type="line" smooth="yes"/>
      <point x="148" y="67"/>
      <point x="123" y="94"/>
      <point x="123" y="130" type="curve" smooth="yes"/>
      <point x="123" y="159"/>
      <point x="142" y="183"/>
      <point x="174" y="200" type="curve"/>
      <point x="193" y="193"/>
      <point x="217" y="189"/>
      <point x="243" y="189" type="curve" smooth="yes"/>
      <point x="355" y="189"/>
      <point x="423" y="255"/>
      <point x="423" y="356" type="curve" smooth="yes"/>
      <point x="423" y="437"/>
      <point x="387" y="482"/>
      <point x="337" y="506" type="curve"/>
      <point x="403" y="507"/>
      <point x="445" y="512"/>
      <point x="474" y="520" type="curve"/>
      <point x="464" y="553" type="line"/>
    </contour>
    <contour>
      <point x="345" y="503"/>
      <point x="392" y="442"/>
      <point x="392" y="356" type="curve" smooth="yes"/>
      <point x="392" y="267"/>
      <point x="338" y="216"/>
      <point x="243" y="216" type="curve" smooth="yes"/>
      <point x="157" y="216"/>
      <point x="93" y="264"/>
      <point x="93" y="359" type="curve" smooth="yes"/>
      <point x="93" y="443"/>
      <point x="141" y="503"/>
      <point x="245" y="503" type="curve" smooth="yes"/>
    </contour>
    <contour>
      <point x="248" y="520" type="move" name="top"/>
    </contour>
  </outline>
</glyph>
<glyph name="h" format="1">
  <advance width="582"/>
  <unicode hex="0068"/>
  <outline>
    <contour>
      <point x="246" y="530"/>
      <point x="184" y="480"/>
      <point x="136" y="408" type="curve"/>
      <point x="145" y="383" type="line"/>
      <point x="194" y="453"/>
      <point x="249" y="503"/>
      <point x="331" y="503" type="curve" smooth="yes"/>
      <point x="405" y="503"/>
      <point x="442" y="457"/>
      <point x="442" y="366" type="curve" smooth="yes"/>
      <point x="442" y="0" type="line"/>
      <point x="472" y="0" type="line"/>
      <point x="472" y="370" type="line" smooth="yes"/>
      <point x="472" y="470"/>
      <point x="425" y="530"/>
      <point x="332" y="530" type="curve" smooth="yes"/>
    </contour>
    <contour>
      <point x="115" y="734" type="line"/>
      <point x="115" y="0" type="line"/>
      <point x="145" y="0" type="line"/>
      <point x="145" y="739" type="line"/>
    </contour>
    <contour>
      <point x="296" y="260" type="move" name="center"/>
    </contour>
    <contour>
      <point x="294" y="0" type="move" name="bottom"/>
    </contour>
    <contour>
      <point x="296" y="734" type="move" name="top"/>
    </contour>
  </outline>
</glyph>
<glyph name="l" format="1">
  <advance width="277"/>
  <unicode hex="006C"/>
  <outline>
    <contour>
      <point x="206" y="-10"/>
      <point x="224" y="-5"/>
      <point x="237" y="1" type="curve"/>
      <point x="228" y="26" type="line"/>
      <point x="216" y="21"/>
      <point x="203" y="18"/>
      <point x="189" y="18" type="curve" smooth="yes"/>
      <point x="157" y="18"/>
      <point x="140" y="37"/>
      <point x="140" y="76" type="curve" smooth="yes"/>
      <point x="140" y="738" type="line"/>
      <point x="110" y="734" type="line"/>
      <point x="110" y="75" type="line" smooth="yes"/>
      <point x="110" y="15"/>
      <point x="143" y="-10"/>
      <point x="188" y="-10" type="curve" smooth="yes"/>
    </contour>
    <contour>
      <point x="179" y="0" type="move" name="bottom"/>
    </contour>
    <contour>
      <point x="125" y="734" type="move" name="top"/>
    </contour>
    <contour>
      <point x="170" y="734" type="move" name="topright"/>
    </contour>
    <contour>
      <point x="262" y="375" type="move" name="center"/>
    </contour>
  </outline>
</glyph>
<glyph name="m" format="1">
  <advance width="849"/>
  <unicode hex="006D"/>
  <outline>
    <contour>
      <point x="241" y="530"/>
      <point x="178" y="480"/>
      <point x="136" y="409" type="curve"/>
      <point x="145" y="383" type="line"/>
      <point x="188" y="453"/>
      <point x="243" y="503"/>
      <point x="311" y="503" type="curve" smooth="yes"/>
      <point x="377" y="503"/>
      <point x="412" y="457"/>
      <point x="412" y="366" type="curve" smooth="yes"/>
      <point x="412" y="0" type="line"/>
      <point x="442" y="0" type="line"/>
      <point x="442" y="389" type="line"/>
      <point x="440" y="406" type="line"/>
      <point x="430" y="484"/>
      <point x="385" y="530"/>
      <point x="312" y="530" type="curve" smooth="yes"/>
    </contour>
    <contour>
      <point x="115" y="520" type="line"/>
      <point x="115" y="0" type="line"/>
      <point x="145" y="0" type="line"/>
      <point x="145" y="389" type="line"/>
      <point x="141" y="520" type="line"/>
    </contour>
    <contour>
      <point x="538" y="530"/>
      <point x="475" y="480"/>
      <point x="433" y="409" type="curve"/>
      <point x="442" y="383" type="line"/>
      <point x="485" y="453"/>
      <point x="540" y="503"/>
      <point x="608" y="503" type="curve" smooth="yes"/>
      <point x="673" y="503"/>
      <point x="709" y="457"/>
      <point x="709" y="366" type="curve" smooth="yes"/>
      <point x="709" y="0" type="line"/>
      <point x="739" y="0" type="line"/>
      <point x="739" y="370" type="line" smooth="yes"/>
      <point x="739" y="470"/>
      <point x="692" y="530"/>
      <point x="609" y="530" type="curve" smooth="yes"/>
    </contour>
    <contour>
      <point x="425" y="520" type="move" name="top"/>
    </contour>
    <contour>
      <point x="425" y="0" type="move" name="bottom"/>
    </contour>
  </outline>
</glyph>
<glyph name="n" format="1">
  <advance width="582"/>
  <unicode hex="006E"/>
  <outline>
    <contour>
      <point x="246" y="530"/>
      <point x="183" y="480"/>
      <point x="136" y="409" type="curve"/>
      <point x="145" y="383" type="line"/>
      <point x="194" y="453"/>
      <point x="249" y="503"/>
      <point x="331" y="503" type="curve" smooth="yes"/>
      <point x="405" y="503"/>
      <point x="442" y="459"/>
      <point x="442" y="366" type="curve" smooth="yes"/>
      <point x="442" y="0" type="line"/>
      <point x="472" y="0" type="line"/>
      <point x="472" y="370" type="line" smooth="yes"/>
      <point x="472" y="472"/>
      <point x="426" y="530"/>
      <point x="332" y="530" type="curve" smooth="yes"/>
    </contour>
    <contour>
      <point x="115" y="520" type="line"/>
      <point x="115" y="0" type="line"/>
      <point x="145" y="0" type="line"/>
      <point x="145" y="389" type="line"/>
      <point x="141" y="520" type="line"/>
    </contour>
    <contour>
      <point x="297" y="520" type="move" name="top"/>
    </contour>
    <contour>
      <point x="289" y="0" type="move" name="bottom"/>
    </contour>
    <contour>
      <point x="105" y="520" type="move" name="topleft"/>
    </contour>
  </outline>
</glyph>
<glyph name="o" format="1">
  <advance width="561"/>
  <unicode hex="006F"/>
  <outline>
    <contour>
      <point x="154" y="530"/>
      <point x="70" y="431"/>
      <point x="70" y="259" type="curve" smooth="yes"/>
      <point x="70" y="91"/>
      <point x="150" y="-10"/>
      <point x="280" y="-10" type="curve" smooth="yes"/>
      <point x="408" y="-10"/>
      <point x="491" y="89"/>
      <point x="491" y="262" type="curve" smooth="yes"/>
      <point x="491" y="436"/>
      <point x="410" y="530"/>
      <point x="281" y="530" type="curve" smooth="yes"/>
    </contour>
    <contour>
      <point x="393" y="502"/>
      <point x="460" y="418"/>
      <point x="460" y="262" type="curve" smooth="yes"/>
      <point x="460" y="103"/>
      <point x="390" y="18"/>
      <point x="280" y="18" type="curve" smooth="yes"/>
      <point x="169" y="18"/>
      <point x="101" y="105"/>
      <point x="101" y="259" type="curve" smooth="yes"/>
      <point x="101" y="419"/>
      <point x="172" y="502"/>
      <point x="281" y="502" type="curve" smooth="yes"/>
    </contour>
    <contour>
      <point x="355" y="0" type="move" name="ogonek"/>
    </contour>
    <contour>
      <point x="281" y="520" type="move" name="top"/>
    </contour>
    <contour>
      <point x="453" y="520" type="move" name="topright"/>
    </contour>
    <contour>
      <point x="281" y="0" type="move" name="bottom"/>
    </contour>
  </outline>
</glyph>
<glyph name="p" format="1">
  <advance width="570"/>
  <unicode hex="0070"/>
  <outline>
    <contour>
      <point x="232" y="530"/>
      <point x="176" y="488"/>
      <point x="138" y="432" type="curve"/>
      <point x="139" y="398" type="line"/>
      <point x="185" y="460"/>
      <point x="230" y="502"/>
      <point x="309" y="502" type="curve" smooth="yes"/>
      <point x="410" y="502"/>
      <point x="464" y="422"/>
      <point x="464" y="264" type="curve" smooth="yes"/>
      <point x="464" y="105"/>
      <point x="407" y="18"/>
      <point x="302" y="18" type="curve" smooth="yes"/>
      <point x="229" y="18"/>
      <point x="176" y="60"/>
      <point x="139" y="119" type="curve"/>
      <point x="137" y="84" type="line"/>
      <point x="167" y="36"/>
      <point x="224" y="-10"/>
      <point x="303" y="-10" type="curve" smooth="yes"/>
      <point x="428" y="-10"/>
      <point x="495" y="94"/>
      <point x="495" y="264" type="curve" smooth="yes"/>
      <point x="495" y="436"/>
      <point x="429" y="530"/>
      <point x="309" y="530" type="curve" smooth="yes"/>
    </contour>
    <contour>
      <point x="115" y="520" type="line"/>
      <point x="115" y="-199" type="line"/>
      <point x="145" y="-193" type="line"/>
      <point x="145" y="412" type="line"/>
      <point x="144" y="421" type="line"/>
      <point x="141" y="520" type="line"/>
    </contour>
    <contour>
      <point x="285" y="520" type="move" name="top"/>
    </contour>
    <contour>
      <point x="285" y="-193" type="move" name="bottom"/>
    </contour>
  </outline>
</glyph>
<glyph name="q" format="1">
  <advance width="570"/>
  <unicode hex="0071"/>
  <outline>
    <contour>
      <point x="425" y="-193" type="line"/>
      <point x="455" y="-199" type="line"/>
      <point x="455" y="520" type="line"/>
      <point x="429" y="520" type="line"/>
      <point x="426" y="445" type="line"/>
      <point x="425" y="418" type="line"/>
    </contour>
    <contour>
      <point x="146" y="530"/>
      <point x="70" y="419"/>
      <point x="70" y="258" type="curve" smooth="yes"/>
      <point x="70" y="90"/>
      <point x="147" y="-10"/>
      <point x="264" y="-10" type="curve" smooth="yes"/>
      <point x="353" y="-10"/>
      <point x="402" y="39"/>
      <point x="429" y="91" type="curve"/>
      <point x="431" y="141" type="line"/>
      <point x="394" y="63"/>
      <point x="348" y="18"/>
      <point x="265" y="18" type="curve" smooth="yes"/>
      <point x="165" y="18"/>
      <point x="102" y="106"/>
      <point x="101" y="258" type="curve" smooth="yes"/>
      <point x="100" y="412"/>
      <point x="173" y="502"/>
      <point x="276" y="502" type="curve" smooth="yes"/>
      <point x="356" y="502"/>
      <point x="403" y="454"/>
      <point x="433" y="403" type="curve"/>
      <point x="432" y="445" type="line"/>
      <point x="406" y="484"/>
      <point x="361" y="530"/>
      <point x="275" y="530" type="curve" smooth="yes"/>
    </contour>
    <contour>
      <point x="285" y="520" type="move" name="top"/>
    </contour>
    <contour>
      <point x="285" y="-193" type="move" name="bottom"/>
    </contour>
  </outline>
</glyph>
<glyph name="r" format="1">
  <advance width="363"/>
  <unicode hex="0072"/>
  <outline>
    <contour>
      <point x="212" y="530"/>
      <point x="165" y="480"/>
      <point x="137" y="378" type="curve"/>
      <point x="139" y="311" type="line"/>
      <point x="172" y="439"/>
      <point x="213" y="503"/>
      <point x="296" y="503" type="curve" smooth="yes"/>
      <point x="313" y="503"/>
      <point x="329" y="501"/>
      <point x="342" y="497" type="curve"/>
      <point x="348" y="524" type="line"/>
      <point x="337" y="527"/>
      <point x="320" y="530"/>
      <point x="296" y="530" type="curve" smooth="yes"/>
    </contour>
    <contour>
      <point x="115" y="520" type="line"/>
      <point x="115" y="0" type="line"/>
      <point x="145" y="0" type="line"/>
      <point x="145" y="346" type="line"/>
      <point x="142" y="384" type="line"/>
      <point x="141" y="520" type="line"/>
    </contour>
    <contour>
      <point x="229" y="520" type="move" name="top"/>
    </contour>
    <contour>
      <point x="129" y="0" type="move" name="bottom"/>
    </contour>
  </outline>
</glyph>
<glyph name="t" format="1">
  <advance width="325"/>
  <unicode hex="0074"/>
  <outline>
    <contour>
      <point x="110" y="650" type="line"/>
      <point x="110" y="118" type="line" smooth="yes"/>
      <point x="110" y="32"/>
      <point x="155" y="-10"/>
      <point x="226" y="-10" type="curve" smooth="yes"/>
      <point x="267" y="-10"/>
      <point x="301" y="2"/>
      <point x="330" y="20" type="curve"/>
      <point x="316" y="43" type="line"/>
      <point x="290" y="28"/>
      <point x="262" y="18"/>
      <point x="228" y="18" type="curve" smooth="yes"/>
      <point x="169" y="18"/>
      <point x="140" y="53"/>
      <point x="140" y="120" type="curve" smooth="yes"/>
      <point x="140" y="653" type="line"/>
    </contour>
    <contour>
      <point x="25" y="520" type="line"/>
      <point x="25" y="493" type="line"/>
      <point x="278" y="493" type="line"/>
      <point x="283" y="520" type="line"/>
    </contour>
    <contour>
      <point x="222" y="0" type="move" name="bottom"/>
    </contour>
    <contour>
      <point x="125" y="650" type="move" name="top"/>
    </contour>
    <contour>
      <point x="156" y="735" type="move" name="topright"/>
    </contour>
    <contour>
      <point x="157" y="260" type="move" name="center"/>
    </contour>
  </outline>
</glyph>
<glyph name="v" format="1">
  <advance width="452"/>
  <unicode hex="0076"/>
  <outline>
    <contour>
      <point x="399" y="520" type="line"/>
      <point x="230" y="26" type="line"/>
      <point x="54" y="520" type="line"/>
      <point x="20" y="520" type="line"/>
      <point x="211" y="0" type="line"/>
      <point x="251" y="0" type="line"/>
      <point x="432" y="520" type="line"/>
    </contour>
    <contour>
      <point x="227" y="520" type="move" name="top"/>
    </contour>
    <contour>
      <point x="231" y="0" type="move" name="bottom"/>
    </contour>
  </outline>
</glyph>
<glyph name="w" format="1">
  <advance width="683"/>
  <unicode hex="0077"/>
  <outline>
    <contour>
      <point x="622" y="520" type="line"/>
      <point x="499" y="28" type="line"/>
      <point x="362" y="520" type="line"/>
      <point x="325" y="520" type="line"/>
      <point x="188" y="29" type="line"/>
      <point x="63" y="520" type="line"/>
      <point x="30" y="520" type="line"/>
      <point x="167" y="0" type="line"/>
      <point x="207" y="0" type="line"/>
      <point x="343" y="490" type="line"/>
      <point x="479" y="0" type="line"/>
      <point x="519" y="0" type="line"/>
      <point x="653" y="520" type="line"/>
    </contour>
    <contour>
      <point x="342" y="520" type="move" name="top"/>
    </contour>
    <contour>
      <point x="343" y="0" type="move" name="bottom"/>
    </contour>
  </outline>
</glyph>
<glyph name="y" format="1">
  <advance width="448"/>
  <unicode hex="0079"/>
  <outline>
    <contour>
      <point x="394" y="520" type="line"/>
      <point x="226" y="23" type="line"/>
      <point x="53" y="520" type="line"/>
      <point x="20" y="520" type="line"/>
      <point x="205" y="0" type="line"/>
      <point x="217" y="0" type="line"/>
      <point x="180" y="-100"/>
      <point x="158" y="-142"/>
      <point x="54" y="-173" type="curve"/>
      <point x="58" y="-197" type="line"/>
      <point x="170" y="-165"/>
      <point x="205" y="-117"/>
      <point x="245" y="-2" type="curve" smooth="yes"/>
      <point x="428" y="520" type="line"/>
    </contour>
    <contour>
      <point x="224" y="520" type="move" name="top"/>
    </contour>
    <contour>
      <point x="226" y="-193" type="move" name="bottom"/>
    </contour>
  </outline>
</glyph>
<glyph name="z" format="1">
  <advance width="410"/>
  <unicode hex="007A"/>
  <outline>
    <contour>
      <point x="55" y="520" type="line"/>
      <point x="55" y="492" type="line"/>
      <point x="338" y="492" type="line"/>
      <point x="30" y="25" type="line"/>
      <point x="30" y="0" type="line"/>
      <point x="366" y="0" type="line"/>
      <point x="369" y="28" type="line"/>
      <point x="68" y="28" type="line"/>
      <point x="375" y="495" type="line"/>
      <point x="375" y="520" type="line"/>
    </contour>
    <contour>
      <point x="214" y="520" type="move" name="top"/>
    </contour>
    <contour>
      <point x="207" y="0" type="move" name="bottom"/>
    </contour>
  </outline>
</glyph>
<glyph name="braceleft" format="1">
  <advance width="329"/>
  <unicode hex="007B"/>
  <outline>
    <contour>
      <point x="183" y="822"/>
      <point x="141" y="790"/>
      <point x="141" y="716" type="curve" smooth="yes"/>
      <point x="141" y="434" type="line" smooth="yes"/>
      <point x="141" y="381"/>
      <point x="107" y="363"/>
      <point x="60" y="363" type="curve"/>
      <point x="60" y="335" type="line"/>
      <point x="107" y="335"/>
      <point x="141" y="317"/>
      <point x="141" y="264" type="curve" smooth="yes"/>
      <point x="141" y="-18" type="line" smooth="yes"/>
      <point x="141" y="-92"/>
      <point x="183" y="-124"/>
      <point x="249" y="-124" type="curve"/>
      <point x="249" y="-101" type="line"/>
      <point x="189" y="-101"/>
      <point x="168" y="-72"/>
      <point x="168" y="-13" type="curve" smooth="yes"/>
      <point x="168" y="252" type="line" smooth="yes"/>
      <point x="168" y="318"/>
      <point x="144" y="339"/>
      <point x="93" y="349" type="curve"/>
      <point x="144" y="359"/>
      <point x="168" y="380"/>
      <point x="168" y="446" type="curve" smooth="yes"/>
      <point x="168" y="711" type="line" smooth="yes"/>
      <point x="168" y="770"/>
      <point x="189" y="799"/>
      <point x="249" y="799" type="curve"/>
      <point x="249" y="822" type="line"/>
    </contour>
  </outline>
</glyph>
<glyph name="bar" format="1">
  <advance width="410"/>
  <unicode hex="007C"/>
  <outline>
    <contour>
      <point x="190" y="802" type="line"/>
      <point x="190" y="-99" type="line"/>
      <point x="220" y="-99" type="line"/>
      <point x="220" y="802" type="line"/>
    </contour>
  </outline>
</glyph>
<glyph name="braceright" format="1">
  <advance width="329"/>
  <unicode hex="007D"/>
  <outline>
    <contour>
      <point x="80" y="799" type="line"/>
      <point x="140" y="799"/>
      <point x="161" y="770"/>
      <point x="161" y="711" type="curve" smooth="yes"/>
      <point x="161" y="446" type="line" smooth="yes"/>
      <point x="161" y="380"/>
      <point x="185" y="359"/>
      <point x="236" y="349" type="curve"/>
      <point x="185" y="339"/>
      <point x="161" y="318"/>
      <point x="161" y="252" type="curve" smooth="yes"/>
      <point x="161" y="-13" type="line" smooth="yes"/>
      <point x="161" y="-72"/>
      <point x="140" y="-101"/>
      <point x="80" y="-101" type="curve"/>
      <point x="80" y="-124" type="line"/>
      <point x="146" y="-124"/>
      <point x="188" y="-92"/>
      <point x="188" y="-18" type="curve" smooth="yes"/>
      <point x="188" y="264" type="line" smooth="yes"/>
      <point x="188" y="317"/>
      <point x="222" y="335"/>
      <point x="269" y="335" type="curve"/>
      <point x="269" y="363" type="line"/>
      <point x="222" y="363"/>
      <point x="188" y="381"/>
      <point x="188" y="434" type="curve" smooth="yes"/>
      <point x="188" y="716" type="line" smooth="yes"/>
      <point x="188" y="790"/>
      <point x="146" y="822"/>
      <point x="80" y="822" type="curve"/>
    </contour>
  </outline>
</glyph>
<glyph name="asciitilde" format="1">
  <advance width="458"/>
  <unicode hex="007E"/>
  <outline>
    <contour>
      <point x="347" y="275"/>
      <point x="368" y="298"/>
      <point x="393" y="334" type="curve"/>
      <point x="373" y="346" type="line"/>
      <point x="352" y="321"/>
      <point x="339" y="305"/>
      <point x="307" y="305" type="curve" smooth="yes"/>
      <point x="259" y="305"/>
      <point x="212" y="360"/>
      <point x="154" y="360" type="curve"/>
      <point x="112" y="360"/>
      <point x="90" y="337"/>
      <point x="65" y="301" type="curve"/>
      <point x="85" y="289" type="line"/>
      <point x="106" y="314"/>
      <point x="120" y="330"/>
      <point x="154" y="330" type="curve"/>
      <point x="201" y="330"/>
      <point x="253" y="275"/>
      <point x="307" y="275" type="curve" smooth="yes"/>
    </contour>
    <contour>
      <point x="362" y="332" type="move" name="_center"/>
    </contour>
  </outline>
</glyph>
<glyph name="exclamdown" format="1">
  <advance width="240"/>
  <unicode hex="00A1"/>
  <outline>
    <contour>
      <point x="106" y="251" type="line"/>
      <point x="106" y="-193" type="line"/>
      <point x="135" y="-193" type="line"/>
      <point x="135" y="251" type="line"/>
    </contour>
    <contour>
      <point x="101" y="458"/>
      <point x="90" y="445"/>
      <point x="90" y="429" type="curve" smooth="yes"/>
      <point x="90" y="412"/>
      <point x="101" y="399"/>
      <point x="120" y="399" type="curve" smooth="yes"/>
      <point x="138" y="399"/>
      <point x="150" y="412"/>
      <point x="150" y="429" type="curve" smooth="yes"/>
      <point x="150" y="445"/>
      <point x="138" y="458"/>
      <point x="120" y="458" type="curve" smooth="yes"/>
    </contour>
  </outline>
</glyph>
<glyph name="sterling" format="1">
  <advance width="505"/>
  <unicode hex="00A3"/>
  <outline>
    <contour>
      <point x="196" y="674"/>
      <point x="144" y="598"/>
      <point x="144" y="505" type="curve"/>
      <point x="144" y="142" type="line"/>
      <point x="144" y="81"/>
      <point x="119" y="58"/>
      <point x="60" y="28" type="curve"/>
      <point x="60" y="0" type="line"/>
      <point x="434" y="0" type="line"/>
      <point x="438" y="29" type="line"/>
      <point x="103" y="29" type="line"/>
      <point x="151" y="53"/>
      <point x="174" y="77"/>
      <point x="174" y="144" type="curve"/>
      <point x="174" y="504" type="line"/>
      <point x="174" y="585"/>
      <point x="216" y="646"/>
      <point x="302" y="646" type="curve" smooth="yes"/>
      <point x="360" y="646"/>
      <point x="395" y="625"/>
      <point x="429" y="586" type="curve"/>
      <point x="450" y="605" type="line"/>
      <point x="410" y="651"/>
      <point x="366" y="674"/>
      <point x="302" y="674" type="curve" smooth="yes"/>
    </contour>
    <contour>
      <point x="79" y="367" type="line"/>
      <point x="79" y="339" type="line"/>
      <point x="393" y="339" type="line"/>
      <point x="393" y="367" type="line"/>
    </contour>
  </outline>
</glyph>
<glyph name="currency" format="1">
  <advance width="560"/>
  <unicode hex="00A4"/>
  <outline>
    <contour>
      <point x="172" y="524"/>
      <point x="105" y="442"/>
      <point x="105" y="341" type="curve" smooth="yes"/>
      <point x="105" y="239"/>
      <point x="171" y="157"/>
      <point x="281" y="157" type="curve" smooth="yes"/>
      <point x="392" y="157"/>
      <point x="457" y="239"/>
      <point x="457" y="341" type="curve" smooth="yes"/>
      <point x="457" y="442"/>
      <point x="392" y="524"/>
      <point x="281" y="524" type="curve" smooth="yes"/>
    </contour>
    <contour>
      <point x="66" y="133" type="line"/>
      <point x="86" y="113" type="line"/>
      <point x="182" y="208" type="line"/>
      <point x="162" y="228" type="line"/>
    </contour>
    <contour>
      <point x="378" y="208" type="line"/>
      <point x="474" y="113" type="line"/>
      <point x="494" y="133" type="line"/>
      <point x="398" y="228" type="line"/>
    </contour>
    <contour>
      <point x="66" y="546" type="line"/>
      <point x="162" y="451" type="line"/>
      <point x="182" y="471" type="line"/>
      <point x="86" y="566" type="line"/>
    </contour>
    <contour>
      <point x="378" y="471" type="line"/>
      <point x="398" y="451" type="line"/>
      <point x="494" y="546" type="line"/>
      <point x="474" y="566" type="line"/>
    </contour>
    <contour>
      <point x="380" y="497"/>
      <point x="427" y="431"/>
      <point x="427" y="340" type="curve" smooth="yes"/>
      <point x="427" y="251"/>
      <point x="380" y="184"/>
      <point x="281" y="184" type="curve" smooth="yes"/>
      <point x="184" y="184"/>
      <point x="135" y="250"/>
      <point x="135" y="340" type="curve" smooth="yes"/>
      <point x="135" y="431"/>
      <point x="184" y="497"/>
      <point x="281" y="497" type="curve" smooth="yes"/>
    </contour>
  </outline>
</glyph>
<glyph name="yen" format="1">
  <advance width="492"/>
  <unicode hex="00A5"/>
  <outline>
    <contour>
      <point x="437" y="662" type="line"/>
      <point x="248" y="333" type="line"/>
      <point x="56" y="662" type="line"/>
      <point x="20" y="662" type="line"/>
      <point x="232" y="310" type="line"/>
      <point x="232" y="0" type="line"/>
      <point x="263" y="0" type="line"/>
      <point x="263" y="309" type="line"/>
      <point x="472" y="662" type="line"/>
    </contour>
    <contour>
      <point x="99" y="191" type="line"/>
      <point x="99" y="162" type="line"/>
      <point x="396" y="162" type="line"/>
      <point x="396" y="191" type="line"/>
    </contour>
    <contour>
      <point x="99" y="332" type="line"/>
      <point x="99" y="304" type="line"/>
      <point x="396" y="304" type="line"/>
      <point x="396" y="332" type="line"/>
    </contour>
  </outline>
</glyph>
<glyph name="brokenbar" format="1">
  <advance width="410"/>
  <unicode hex="00A6"/>
  <outline>
    <contour>
      <point x="190" y="262" type="line"/>
      <point x="190" y="-99" type="line"/>
      <point x="220" y="-99" type="line"/>
      <point x="220" y="262" type="line"/>
    </contour>
    <contour>
      <point x="190" y="802" type="line"/>
      <point x="190" y="443" type="line"/>
      <point x="220" y="443" type="line"/>
      <point x="220" y="802" type="line"/>
    </contour>
  </outline>
</glyph>
<glyph name="section" format="1">
  <advance width="532"/>
  <unicode hex="00A7"/>
  <outline>
    <contour>
      <point x="188" y="673"/>
      <point x="122" y="622"/>
      <point x="122" y="545" type="curve" smooth="yes"/>
      <point x="122" y="477"/>
      <point x="157" y="448"/>
      <point x="280" y="406" type="curve" smooth="yes"/>
      <point x="389" y="369"/>
      <point x="406" y="338"/>
      <point x="406" y="284" type="curve" smooth="yes"/>
      <point x="406" y="236"/>
      <point x="387" y="202"/>
      <point x="323" y="165" type="curve"/>
      <point x="341" y="150" type="line"/>
      <point x="411" y="190"/>
      <point x="437" y="231"/>
      <point x="437" y="285" type="curve" smooth="yes"/>
      <point x="437" y="358"/>
      <point x="397" y="394"/>
      <point x="288" y="431" type="curve" smooth="yes"/>
      <point x="176" y="469"/>
      <point x="153" y="491"/>
      <point x="153" y="546" type="curve" smooth="yes"/>
      <point x="153" y="600"/>
      <point x="199" y="645"/>
      <point x="270" y="645" type="curve" smooth="yes"/>
      <point x="324" y="645"/>
      <point x="361" y="632"/>
      <point x="404" y="605" type="curve"/>
      <point x="420" y="628" type="line"/>
      <point x="378" y="654"/>
      <point x="338" y="673"/>
      <point x="271" y="673" type="curve" smooth="yes"/>
    </contour>
    <contour>
      <point x="127" y="419"/>
      <point x="95" y="375"/>
      <point x="95" y="322" type="curve" smooth="yes"/>
      <point x="95" y="241"/>
      <point x="149" y="213"/>
      <point x="257" y="175" type="curve" smooth="yes"/>
      <point x="362" y="138"/>
      <point x="382" y="114"/>
      <point x="382" y="61" type="curve" smooth="yes"/>
      <point x="382" y="5"/>
      <point x="337" y="-38"/>
      <point x="256" y="-38" type="curve" smooth="yes"/>
      <point x="199" y="-38"/>
      <point x="154" y="-25"/>
      <point x="113" y="3" type="curve"/>
      <point x="97" y="-21" type="line"/>
      <point x="143" y="-49"/>
      <point x="189" y="-66"/>
      <point x="256" y="-66" type="curve" smooth="yes"/>
      <point x="346" y="-66"/>
      <point x="413" y="-16"/>
      <point x="413" y="63" type="curve" smooth="yes"/>
      <point x="413" y="139"/>
      <point x="369" y="164"/>
      <point x="265" y="200" type="curve" smooth="yes"/>
      <point x="152" y="240"/>
      <point x="126" y="263"/>
      <point x="126" y="323" type="curve" smooth="yes"/>
      <point x="126" y="370"/>
      <point x="150" y="407"/>
      <point x="209" y="444" type="curve"/>
      <point x="191" y="459" type="line"/>
    </contour>
  </outline>
</glyph>
<glyph name="dieresis" format="1">
  <advance width="284"/>
  <unicode hex="00A8"/>
  <outline>
    <contour>
      <point x="212" y="720"/>
      <point x="202" y="709"/>
      <point x="202" y="695" type="curve" smooth="yes"/>
      <point x="202" y="681"/>
      <point x="212" y="670"/>
      <point x="228" y="670" type="curve" smooth="yes"/>
      <point x="243" y="670"/>
      <point x="253" y="681"/>
      <point x="253" y="695" type="curve" smooth="yes"/>
      <point x="253" y="709"/>
      <point x="243" y="720"/>
      <point x="228" y="720" type="curve" smooth="yes"/>
    </contour>
    <contour>
      <point x="40" y="720"/>
      <point x="30" y="709"/>
      <point x="30" y="695" type="curve" smooth="yes"/>
      <point x="30" y="681"/>
      <point x="40" y="670"/>
      <point x="55" y="670" type="curve" smooth="yes"/>
      <point x="71" y="670"/>
      <point x="81" y="681"/>
      <point x="81" y="695" type="curve" smooth="yes"/>
      <point x="81" y="709"/>
      <point x="71" y="720"/>
      <point x="55" y="720" type="curve" smooth="yes"/>
    </contour>
  </outline>
</glyph>
<glyph name="logicalnot" format="1">
  <advance width="498"/>
  <unicode hex="00AC"/>
  <outline>
    <contour>
      <point x="75" y="335" type="line"/>
      <point x="75" y="305" type="line"/>
      <point x="391" y="305" type="line"/>
      <point x="391" y="191" type="line"/>
      <point x="423" y="191" type="line"/>
      <point x="423" y="335" type="line"/>
    </contour>
  </outline>
</glyph>
<glyph name="registered" format="1">
  <advance width="638"/>
  <unicode hex="00AE"/>
  <outline>
    <contour>
      <point x="191" y="726"/>
      <point x="90" y="623"/>
      <point x="90" y="497" type="curve" smooth="yes"/>
      <point x="90" y="367"/>
      <point x="191" y="272"/>
      <point x="319" y="272" type="curve"/>
      <point x="447" y="272"/>
      <point x="548" y="375"/>
      <point x="548" y="501" type="curve" smooth="yes"/>
      <point x="548" y="631"/>
      <point x="447" y="726"/>
      <point x="319" y="726" type="curve"/>
    </contour>
    <contour>
      <point x="314" y="492" type="line"/>
      <point x="386" y="368" type="line"/>
      <point x="423" y="368" type="line"/>
      <point x="345" y="494" type="line"/>
    </contour>
    <contour>
      <point x="432" y="700"/>
      <point x="520" y="616"/>
      <point x="520" y="501" type="curve" smooth="yes"/>
      <point x="520" y="388"/>
      <point x="429" y="298"/>
      <point x="319" y="298" type="curve"/>
      <point x="209" y="298"/>
      <point x="118" y="382"/>
      <point x="118" y="497" type="curve" smooth="yes"/>
      <point x="118" y="610"/>
      <point x="209" y="700"/>
      <point x="319" y="700" type="curve"/>
    </contour>
    <contour>
      <point x="243" y="637" type="line"/>
      <point x="243" y="368" type="line"/>
      <point x="273" y="368" type="line"/>
      <point x="273" y="610" type="line"/>
      <point x="310" y="610" type="line" smooth="yes"/>
      <point x="355" y="610"/>
      <point x="381" y="599"/>
      <point x="381" y="558" type="curve" smooth="yes"/>
      <point x="381" y="522"/>
      <point x="357" y="510"/>
      <point x="319" y="510" type="curve" smooth="yes"/>
      <point x="266" y="510" type="line"/>
      <point x="266" y="484" type="line"/>
      <point x="317" y="484" type="line"/>
      <point x="330" y="484" type="line"/>
      <point x="380" y="491"/>
      <point x="411" y="512"/>
      <point x="411" y="558" type="curve" smooth="yes"/>
      <point x="411" y="611"/>
      <point x="377" y="637"/>
      <point x="305" y="637" type="curve" smooth="yes"/>
    </contour>
  </outline>
</glyph>
<glyph name="macron" format="1">
  <advance width="274"/>
  <unicode hex="00AF"/>
  <outline>
    <contour>
      <point x="244" y="712" type="line"/>
      <point x="30" y="712" type="line"/>
      <point x="30" y="683" type="line"/>
      <point x="244" y="683" type="line"/>
    </contour>
  </outline>
</glyph>
<glyph name="degree" format="1">
  <advance width="519"/>
  <unicode hex="00B0"/>
  <outline>
    <contour>
      <point x="158" y="435"/>
      <point x="111" y="484"/>
      <point x="111" y="550" type="curve" smooth="yes"/>
      <point x="111" y="617"/>
      <point x="158" y="664"/>
      <point x="219" y="664" type="curve" smooth="yes"/>
      <point x="287" y="664"/>
      <point x="328" y="617"/>
      <point x="328" y="549" type="curve" smooth="yes"/>
      <point x="328" y="484"/>
      <point x="287" y="435"/>
      <point x="219" y="435" type="curve" smooth="yes"/>
    </contour>
    <contour>
      <point x="297" y="407"/>
      <point x="359" y="464"/>
      <point x="359" y="549" type="curve" smooth="yes"/>
      <point x="359" y="637"/>
      <point x="297" y="692"/>
      <point x="219" y="692" type="curve" smooth="yes"/>
      <point x="148" y="692"/>
      <point x="80" y="636"/>
      <point x="80" y="550" type="curve" smooth="yes"/>
      <point x="80" y="460"/>
      <point x="148" y="407"/>
      <point x="219" y="407" type="curve" smooth="yes"/>
    </contour>
  </outline>
</glyph>
<glyph name="acute" format="1">
  <advance width="255"/>
  <unicode hex="00B4"/>
  <outline>
    <contour>
      <point x="30" y="672" type="line"/>
      <point x="41" y="651" type="line"/>
      <point x="223" y="735" type="line"/>
      <point x="209" y="767" type="line"/>
    </contour>
  </outline>
</glyph>
<glyph name="paragraph" format="1">
  <advance width="687"/>
  <unicode hex="00B6"/>
  <outline>
    <contour>
      <point x="330" y="681" type="line"/>
      <point x="327" y="648" type="line"/>
      <point x="327" y="-199" type="line"/>
      <point x="357" y="-193" type="line"/>
      <point x="357" y="654" type="line"/>
      <point x="497" y="654" type="line"/>
      <point x="497" y="-199" type="line"/>
      <point x="527" y="-193" type="line"/>
      <point x="527" y="682" type="line"/>
    </contour>
    <contour>
      <point x="189" y="681"/>
      <point x="110" y="613"/>
      <point x="110" y="493" type="curve" smooth="yes"/>
      <point x="110" y="390"/>
      <point x="166" y="304"/>
      <point x="341" y="304" type="curve"/>
      <point x="330" y="681" type="line"/>
    </contour>
  </outline>
</glyph>
<glyph name="cedilla" format="1">
  <advance width="221"/>
  <unicode hex="00B8"/>
  <outline>
    <contour>
      <point x="78" y="16" type="line"/>
      <point x="71" y="-93" type="line"/>
      <point x="133" y="-94"/>
      <point x="160" y="-108"/>
      <point x="160" y="-140" type="curve" smooth="yes"/>
      <point x="160" y="-173"/>
      <point x="133" y="-189"/>
      <point x="101" y="-189" type="curve" smooth="yes"/>
      <point x="75" y="-189"/>
      <point x="56" y="-182"/>
      <point x="43" y="-174" type="curve"/>
      <point x="30" y="-197" type="line"/>
      <point x="47" y="-207"/>
      <point x="69" y="-216"/>
      <point x="101" y="-216" type="curve" smooth="yes"/>
      <point x="149" y="-216"/>
      <point x="191" y="-188"/>
      <point x="191" y="-140" type="curve" smooth="yes"/>
      <point x="191" y="-99"/>
      <point x="162" y="-75"/>
      <point x="100" y="-71" type="curve"/>
      <point x="100" y="16" type="line"/>
    </contour>
  </outline>
</glyph>
<glyph name="ordmasculine" format="1">
  <advance width="500"/>
  <unicode hex="00BA"/>
  <outline>
    <contour>
      <point x="145" y="682"/>
      <point x="77" y="607"/>
      <point x="77" y="479" type="curve" smooth="yes"/>
      <point x="77" y="352"/>
      <point x="142" y="276"/>
      <point x="247" y="276" type="curve" smooth="yes"/>
      <point x="351" y="276"/>
      <point x="419" y="351"/>
      <point x="419" y="481" type="curve" smooth="yes"/>
      <point x="419" y="613"/>
      <point x="353" y="682"/>
      <point x="248" y="682" type="curve" smooth="yes"/>
    </contour>
    <contour>
      <point x="337" y="654"/>
      <point x="388" y="595"/>
      <point x="388" y="481" type="curve" smooth="yes"/>
      <point x="388" y="364"/>
      <point x="334" y="304"/>
      <point x="248" y="304" type="curve" smooth="yes"/>
      <point x="162" y="304"/>
      <point x="109" y="366"/>
      <point x="109" y="479" type="curve" smooth="yes"/>
      <point x="109" y="596"/>
      <point x="164" y="654"/>
      <point x="249" y="654" type="curve" smooth="yes"/>
    </contour>
    <component base="minus" xOffset="4" yOffset="-316"/>
  </outline>
</glyph>
<glyph name="questiondown" format="1">
  <advance width="438"/>
  <unicode hex="00BF"/>
  <outline>
    <contour>
      <point x="283" y="-199"/>
      <point x="336" y="-171"/>
      <point x="388" y="-112" type="curve"/>
      <point x="366" y="-95" type="line"/>
      <point x="318" y="-147"/>
      <point x="276" y="-171"/>
      <point x="207" y="-171" type="curve" smooth="yes"/>
      <point x="131" y="-171"/>
      <point x="82" y="-126"/>
      <point x="82" y="-69" type="curve" smooth="yes"/>
      <point x="82" y="63"/>
      <point x="262" y="49"/>
      <point x="262" y="199" type="curve" smooth="yes"/>
      <point x="262" y="251" type="line"/>
      <point x="233" y="251" type="line"/>
      <point x="233" y="202" type="line" smooth="yes"/>
      <point x="233" y="66"/>
      <point x="50" y="79"/>
      <point x="50" y="-69" type="curve" smooth="yes"/>
      <point x="50" y="-136"/>
      <point x="109" y="-199"/>
      <point x="207" y="-199" type="curve" smooth="yes"/>
    </contour>
    <contour>
      <point x="264" y="399"/>
      <point x="276" y="412"/>
      <point x="276" y="429" type="curve" smooth="yes"/>
      <point x="276" y="445"/>
      <point x="264" y="458"/>
      <point x="246" y="458" type="curve" smooth="yes"/>
      <point x="227" y="458"/>
      <point x="216" y="445"/>
      <point x="216" y="429" type="curve" smooth="yes"/>
      <point x="216" y="412"/>
      <point x="227" y="399"/>
      <point x="246" y="399" type="curve" smooth="yes"/>
    </contour>
  </outline>
</glyph>
<glyph name="AE" format="1">
  <advance width="757"/>
  <unicode hex="00C6"/>
  <outline>
    <contour>
      <point x="272" y="682" type="line"/>
      <point x="9" y="0" type="line"/>
      <point x="40" y="0" type="line"/>
      <point x="291" y="657" type="line"/>
      <point x="464" y="0" type="line"/>
      <point x="717" y="0" type="line"/>
      <point x="717" y="29" type="line"/>
      <point x="487" y="29" type="line"/>
      <point x="323" y="653" type="line"/>
      <point x="660" y="653" type="line"/>
      <point x="664" y="682" type="line"/>
    </contour>
    <contour>
      <point x="119" y="222" type="line"/>
      <point x="106" y="193" type="line"/>
      <point x="420" y="193" type="line"/>
      <point x="413" y="222" type="line"/>
    </contour>
    <contour>
      <point x="388" y="373" type="line"/>
      <point x="396" y="345" type="line"/>
      <point x="657" y="345" type="line"/>
      <point x="657" y="373" type="line"/>
    </contour>
    <contour>
      <point x="442" y="682" type="move" name="top"/>
    </contour>
    <contour>
      <point x="379" y="0" type="move" name="bottom"/>
    </contour>
  </outline>
</glyph>
<glyph name="Eth" format="1">
  <advance width="618"/>
  <unicode hex="00D0"/>
  <outline>
    <contour>
      <point x="116" y="367" type="line"/>
      <point x="25" y="367" type="line"/>
      <point x="25" y="339" type="line"/>
      <point x="337" y="339" type="line"/>
      <point x="337" y="367" type="line"/>
    </contour>
    <component base="D" xOffset="-4"/>
  </outline>
</glyph>
<glyph name="multiply" format="1">
  <advance width="488"/>
  <unicode hex="00D7"/>
  <outline>
    <contour>
      <point x="243" y="327" type="line"/>
      <point x="117" y="459" type="line"/>
      <point x="95" y="439" type="line"/>
      <point x="223" y="307" type="line"/>
      <point x="95" y="176" type="line"/>
      <point x="117" y="156" type="line"/>
      <point x="243" y="287" type="line"/>
      <point x="371" y="156" type="line"/>
      <point x="393" y="176" type="line"/>
      <point x="263" y="307" type="line"/>
      <point x="393" y="439" type="line"/>
      <point x="371" y="459" type="line"/>
    </contour>
  </outline>
</glyph>
<glyph name="Thorn" format="1">
  <advance width="561"/>
  <unicode hex="00DE"/>
  <outline>
    <contour>
      <point x="130" y="556" type="line"/>
      <point x="151" y="527" type="line"/>
      <point x="264" y="527" type="line" smooth="yes"/>
      <point x="399" y="527"/>
      <point x="474" y="483"/>
      <point x="474" y="356" type="curve" smooth="yes"/>
      <point x="474" y="214"/>
      <point x="385" y="173"/>
      <point x="262" y="173" type="curve" smooth="yes"/>
      <point x="144" y="173" type="line"/>
      <point x="144" y="144" type="line"/>
      <point x="259" y="144" type="line" smooth="yes"/>
      <point x="404" y="144"/>
      <point x="506" y="199"/>
      <point x="506" y="357" type="curve" smooth="yes"/>
      <point x="506" y="497"/>
      <point x="418" y="556"/>
      <point x="264" y="556" type="curve" smooth="yes"/>
    </contour>
    <contour>
      <point x="120" y="682" type="line"/>
      <point x="120" y="0" type="line"/>
      <point x="151" y="0" type="line"/>
      <point x="151" y="682" type="line"/>
    </contour>
    <contour>
      <point x="281" y="682" type="move" name="top"/>
    </contour>
    <contour>
      <point x="281" y="0" type="move" name="bottom"/>
    </contour>
  </outline>
</glyph>
<glyph name="ae" format="1">
  <advance width="845"/>
  <unicode hex="00E6"/>
  <outline>
    <contour>
      <point x="479" y="530"/>
      <point x="406" y="453"/>
      <point x="389" y="295" type="curve"/>
      <point x="386" y="256" type="line"/>
      <point x="386" y="88"/>
      <point x="469" y="-10"/>
      <point x="598" y="-10" type="curve" smooth="yes"/>
      <point x="665" y="-10"/>
      <point x="713" y="13"/>
      <point x="759" y="52" type="curve"/>
      <point x="742" y="74" type="line"/>
      <point x="697" y="38"/>
      <point x="659" y="18"/>
      <point x="598" y="18" type="curve" smooth="yes"/>
      <point x="495" y="18"/>
      <point x="420" y="91"/>
      <point x="417" y="256" type="curve"/>
      <point x="417" y="428"/>
      <point x="495" y="502"/>
      <point x="592" y="502" type="curve" smooth="yes"/>
      <point x="700" y="502"/>
      <point x="750" y="416"/>
      <point x="750" y="294" type="curve" smooth="yes"/>
      <point x="750" y="280"/>
      <point x="750" y="276"/>
      <point x="750" y="270" type="curve"/>
      <point x="412" y="270" type="line"/>
      <point x="412" y="244" type="line"/>
      <point x="778" y="244" type="line"/>
      <point x="779" y="253"/>
      <point x="780" y="268"/>
      <point x="780" y="283" type="curve" smooth="yes"/>
      <point x="780" y="431"/>
      <point x="717" y="530"/>
      <point x="591" y="530" type="curve" smooth="yes"/>
    </contour>
    <contour>
      <point x="270" y="310" type="line" smooth="yes"/>
      <point x="147" y="310"/>
      <point x="65" y="251"/>
      <point x="65" y="144" type="curve" smooth="yes"/>
      <point x="65" y="51"/>
      <point x="124" y="-10"/>
      <point x="223" y="-10" type="curve" smooth="yes"/>
      <point x="303" y="-10"/>
      <point x="363" y="26"/>
      <point x="425" y="122" type="curve"/>
      <point x="420" y="160" type="line"/>
      <point x="358" y="61"/>
      <point x="304" y="18"/>
      <point x="223" y="18" type="curve" smooth="yes"/>
      <point x="146" y="18"/>
      <point x="97" y="64"/>
      <point x="97" y="144" type="curve" smooth="yes"/>
      <point x="97" y="237"/>
      <point x="165" y="282"/>
      <point x="276" y="282" type="curve" smooth="yes"/>
      <point x="393" y="282" type="line"/>
      <point x="393" y="310" type="line"/>
    </contour>
    <contour>
      <point x="204" y="530"/>
      <point x="157" y="517"/>
      <point x="105" y="496" type="curve"/>
      <point x="114" y="470" type="line"/>
      <point x="164" y="490"/>
      <point x="210" y="502"/>
      <point x="256" y="502" type="curve"/>
      <point x="354" y="502"/>
      <point x="386" y="457"/>
      <point x="386" y="369" type="curve"/>
      <point x="386" y="256" type="line"/>
      <point x="416" y="256" type="line"/>
      <point x="416" y="372" type="line"/>
      <point x="416" y="476"/>
      <point x="368" y="530"/>
      <point x="256" y="530" type="curve"/>
    </contour>
    <contour>
      <point x="423" y="520" type="move" name="top"/>
    </contour>
    <contour>
      <point x="417" y="0" type="move" name="bottom"/>
    </contour>
  </outline>
</glyph>
<glyph name="eth" format="1">
  <advance width="554"/>
  <unicode hex="00F0"/>
  <outline>
    <contour>
      <point x="141" y="713" type="line"/>
      <point x="192" y="703"/>
      <point x="248" y="676"/>
      <point x="282" y="651" type="curve"/>
      <point x="381" y="576"/>
      <point x="429" y="478"/>
      <point x="437" y="350" type="curve"/>
      <point x="437" y="340" type="line"/>
      <point x="438" y="328"/>
      <point x="438" y="317"/>
      <point x="438" y="295" type="curve" smooth="yes"/>
      <point x="438" y="113"/>
      <point x="376" y="18"/>
      <point x="269" y="18" type="curve" smooth="yes"/>
      <point x="162" y="18"/>
      <point x="102" y="97"/>
      <point x="102" y="229" type="curve" smooth="yes"/>
      <point x="102" y="345"/>
      <point x="161" y="435"/>
      <point x="262" y="435" type="curve" smooth="yes"/>
      <point x="331" y="435"/>
      <point x="392" y="394"/>
      <point x="443" y="328" type="curve"/>
      <point x="443" y="361" type="line"/>
      <point x="394" y="424"/>
      <point x="336" y="463"/>
      <point x="260" y="463" type="curve" smooth="yes"/>
      <point x="138" y="463"/>
      <point x="70" y="353"/>
      <point x="70" y="231" type="curve" smooth="yes"/>
      <point x="70" y="85"/>
      <point x="140" y="-10"/>
      <point x="269" y="-10" type="curve" smooth="yes"/>
      <point x="388" y="-10"/>
      <point x="469" y="84"/>
      <point x="469" y="292" type="curve" smooth="yes"/>
      <point x="469" y="482"/>
      <point x="408" y="588"/>
      <point x="310" y="665" type="curve"/>
      <point x="259" y="702"/>
      <point x="202" y="728"/>
      <point x="148" y="739" type="curve"/>
    </contour>
    <contour>
      <point x="281" y="670" type="line"/>
      <point x="272" y="660" type="line"/>
      <point x="185" y="571" type="line"/>
      <point x="210" y="562" type="line"/>
      <point x="291" y="645" type="line"/>
      <point x="301" y="655" type="line"/>
      <point x="378" y="733" type="line"/>
      <point x="358" y="750" type="line"/>
    </contour>
    <contour>
      <point x="290" y="734" type="move" name="top"/>
    </contour>
    <contour>
      <point x="269" y="0" type="move" name="bottom"/>
    </contour>
  </outline>
</glyph>
<glyph name="dcroat" format="1">
  <advance width="580"/>
  <unicode hex="0111"/>
  <outline>
    <contour>
      <point x="260" y="652" type="line"/>
      <point x="260" y="625" type="line"/>
      <point x="460" y="625" type="line"/>
      <point x="535" y="625" type="line"/>
      <point x="535" y="652" type="line"/>
    </contour>
    <component base="d"/>
  </outline>
</glyph>
<glyph name="Hbar" format="1">
  <advance width="662"/>
  <unicode hex="0126"/>
  <outline>
    <contour>
      <point x="542" y="542" type="line"/>
      <point x="57" y="542" type="line"/>
      <point x="57" y="518" type="line"/>
      <point x="120" y="518" type="line"/>
      <point x="605" y="518" type="line"/>
      <point x="605" y="542" type="line"/>
    </contour>
    <component base="H"/>
  </outline>
</glyph>
<glyph name="hbar" format="1">
  <advance width="587"/>
  <unicode hex="0127"/>
  <outline>
    <contour>
      <point x="45" y="652" type="line"/>
      <point x="45" y="625" type="line"/>
      <point x="120" y="625" type="line"/>
      <point x="329" y="625" type="line"/>
      <point x="329" y="652" type="line"/>
    </contour>
    <component base="h" xOffset="5"/>
  </outline>
</glyph>
<glyph name="kgreenlandic" format="1">
  <advance width="469"/>
  <unicode hex="0138"/>
  <outline>
    <contour>
      <point x="392" y="520" type="line"/>
      <point x="151" y="274" type="line"/>
      <point x="417" y="0" type="line"/>
      <point x="454" y="0" type="line"/>
      <point x="189" y="275" type="line"/>
      <point x="430" y="520" type="line"/>
    </contour>
    <contour>
      <point x="115" y="520" type="line"/>
      <point x="115" y="0" type="line"/>
      <point x="145" y="0" type="line"/>
      <point x="145" y="520" type="line"/>
    </contour>
    <contour>
      <point x="235" y="520" type="move" name="top"/>
    </contour>
    <contour>
      <point x="235" y="0" type="move" name="bottom"/>
    </contour>
  </outline>
</glyph>
<glyph name="lslash" format="1">
  <advance width="289"/>
  <unicode hex="0142"/>
  <outline>
    <contour>
      <point x="264" y="430" type="line"/>
      <point x="251" y="452" type="line"/>
      <point x="118" y="370" type="line"/>
      <point x="41" y="322" type="line"/>
      <point x="54" y="301" type="line"/>
    </contour>
    <component base="l" xOffset="7"/>
  </outline>
</glyph>
<glyph name="napostrophe" format="1">
  <advance width="582"/>
  <unicode hex="0149"/>
  <outline>
    <contour>
      <point x="12" y="738"/>
      <point x="0" y="724"/>
      <point x="0" y="707" type="curve" smooth="yes"/>
      <point x="0" y="691"/>
      <point x="4" y="682"/>
      <point x="20" y="677" type="curve"/>
      <point x="-7" y="558" type="line"/>
      <point x="14" y="558" type="line"/>
      <point x="46" y="650" type="line" smooth="yes"/>
      <point x="58" y="683"/>
      <point x="65" y="691"/>
      <point x="65" y="707" type="curve" smooth="yes"/>
      <point x="65" y="724"/>
      <point x="54" y="738"/>
      <point x="32" y="738" type="curve" smooth="yes"/>
    </contour>
    <component base="n"/>
  </outline>
</glyph>
<glyph name="eng" format="1">
  <advance width="582"/>
  <unicode hex="014B"/>
  <outline>
    <component base="n"/>
    <component base="hookHELPER" xOffset="238"/>
    <contour>
      <point x="293" y="-193" type="move" name="bottom"/>
    </contour>
  </outline>
</glyph>
<glyph name="OE" format="1">
  <advance width="848"/>
  <unicode hex="0152"/>
  <outline>
    <contour>
      <point x="186" y="692"/>
      <point x="75" y="565"/>
      <point x="75" y="339" type="curve" smooth="yes"/>
      <point x="75" y="114"/>
      <point x="185" y="-10"/>
      <point x="335" y="-10" type="curve" smooth="yes"/>
      <point x="373" y="-10"/>
      <point x="410" y="-1"/>
      <point x="440" y="18" type="curve"/>
      <point x="537" y="61"/>
      <point x="595" y="172"/>
      <point x="595" y="349" type="curve" smooth="yes"/>
      <point x="595" y="513"/>
      <point x="537" y="619"/>
      <point x="440" y="666" type="curve"/>
      <point x="413" y="683"/>
      <point x="375" y="692"/>
      <point x="335" y="692" type="curve" smooth="yes"/>
    </contour>
    <contour>
      <point x="440" y="29" type="line"/>
      <point x="396" y="0" type="line"/>
      <point x="808" y="0" type="line"/>
      <point x="808" y="29" type="line"/>
    </contour>
    <contour>
      <point x="584" y="373" type="line"/>
      <point x="584" y="345" type="line"/>
      <point x="758" y="345" type="line"/>
      <point x="758" y="373" type="line"/>
    </contour>
    <contour>
      <point x="399" y="682" type="line"/>
      <point x="430" y="653" type="line"/>
      <point x="798" y="653" type="line"/>
      <point x="802" y="682" type="line"/>
    </contour>
    <contour>
      <point x="468" y="663"/>
      <point x="563" y="556"/>
      <point x="563" y="349" type="curve" smooth="yes"/>
      <point x="563" y="129"/>
      <point x="473" y="19"/>
      <point x="335" y="19" type="curve" smooth="yes"/>
      <point x="205" y="19"/>
      <point x="107" y="129"/>
      <point x="107" y="339" type="curve" smooth="yes"/>
      <point x="107" y="554"/>
      <point x="204" y="663"/>
      <point x="335" y="663" type="curve"/>
    </contour>
    <contour>
      <point x="424" y="682" type="move" name="top"/>
    </contour>
    <contour>
      <point x="424" y="0" type="move" name="bottom"/>
    </contour>
  </outline>
</glyph>
<glyph name="oe" format="1">
  <advance width="919"/>
  <unicode hex="0153"/>
  <outline>
    <contour>
      <point x="154" y="530"/>
      <point x="70" y="431"/>
      <point x="70" y="259" type="curve" smooth="yes"/>
      <point x="70" y="91"/>
      <point x="150" y="-10"/>
      <point x="280" y="-10" type="curve" smooth="yes"/>
      <point x="410" y="-10"/>
      <point x="491" y="99"/>
      <point x="491" y="262" type="curve"/>
      <point x="491" y="426"/>
      <point x="412" y="530"/>
      <point x="281" y="530" type="curve" smooth="yes"/>
    </contour>
    <contour>
      <point x="393" y="502"/>
      <point x="460" y="418"/>
      <point x="460" y="262" type="curve" smooth="yes"/>
      <point x="460" y="103"/>
      <point x="390" y="18"/>
      <point x="280" y="18" type="curve" smooth="yes"/>
      <point x="169" y="18"/>
      <point x="101" y="105"/>
      <point x="101" y="259" type="curve" smooth="yes"/>
      <point x="101" y="419"/>
      <point x="172" y="502"/>
      <point x="281" y="502" type="curve" smooth="yes"/>
    </contour>
    <contour>
      <point x="538" y="530"/>
      <point x="460" y="416"/>
      <point x="460" y="256" type="curve"/>
      <point x="460" y="98"/>
      <point x="541" y="-10"/>
      <point x="672" y="-10" type="curve" smooth="yes"/>
      <point x="739" y="-10"/>
      <point x="787" y="13"/>
      <point x="833" y="52" type="curve"/>
      <point x="816" y="74" type="line"/>
      <point x="771" y="38"/>
      <point x="733" y="18"/>
      <point x="672" y="18" type="curve" smooth="yes"/>
      <point x="569" y="18"/>
      <point x="494" y="91"/>
      <point x="491" y="256" type="curve"/>
      <point x="491" y="428"/>
      <point x="570" y="502"/>
      <point x="663" y="502" type="curve" smooth="yes"/>
      <point x="774" y="502"/>
      <point x="824" y="416"/>
      <point x="824" y="294" type="curve" smooth="yes"/>
      <point x="824" y="280"/>
      <point x="824" y="276"/>
      <point x="824" y="270" type="curve"/>
      <point x="486" y="270" type="line"/>
      <point x="486" y="244" type="line"/>
      <point x="852" y="244" type="line"/>
      <point x="853" y="253"/>
      <point x="854" y="268"/>
      <point x="854" y="283" type="curve" smooth="yes"/>
      <point x="854" y="431"/>
      <point x="791" y="530"/>
      <point x="661" y="530" type="curve" smooth="yes"/>
    </contour>
    <contour>
      <point x="476" y="520" type="move" name="top"/>
    </contour>
    <contour>
      <point x="480" y="0" type="move" name="bottom"/>
    </contour>
  </outline>
</glyph>
<glyph name="Tbar" format="1">
  <advance width="485"/>
  <unicode hex="0166"/>
  <outline>
    <contour>
      <point x="99" y="382" type="line"/>
      <point x="99" y="354" type="line"/>
      <point x="223" y="354" type="line"/>
      <point x="378" y="354" type="line"/>
      <point x="378" y="382" type="line"/>
    </contour>
    <component base="T"/>
  </outline>
</glyph>
<glyph name="tbar" format="1">
  <advance width="325"/>
  <unicode hex="0167"/>
  <outline>
    <contour>
      <point x="110" y="344" type="line"/>
      <point x="25" y="344" type="line"/>
      <point x="25" y="317" type="line"/>
      <point x="275" y="317" type="line"/>
      <point x="275" y="344" type="line"/>
    </contour>
    <component base="t"/>
  </outline>
</glyph>
<glyph name="uni0180" format="1">
  <advance width="575"/>
  <unicode hex="0180"/>
  <outline>
    <contour>
      <point x="45" y="652" type="line"/>
      <point x="45" y="625" type="line"/>
      <point x="120" y="625" type="line"/>
      <point x="329" y="625" type="line"/>
      <point x="329" y="652" type="line"/>
    </contour>
    <component base="b" xOffset="5"/>
  </outline>
</glyph>
<glyph name="uni0184" format="1">
  <advance width="551"/>
  <unicode hex="0184"/>
  <outline>
    <contour>
      <point x="276" y="0" type="line" smooth="yes"/>
      <point x="411" y="0"/>
      <point x="506" y="64"/>
      <point x="506" y="213" type="curve" smooth="yes"/>
      <point x="506" y="348"/>
      <point x="420" y="412"/>
      <point x="276" y="412" type="curve" smooth="yes"/>
      <point x="144" y="412" type="line"/>
      <point x="144" y="383" type="line"/>
      <point x="279" y="383" type="line" smooth="yes"/>
      <point x="401" y="383"/>
      <point x="474" y="331"/>
      <point x="474" y="214" type="curve" smooth="yes"/>
      <point x="474" y="83"/>
      <point x="399" y="29"/>
      <point x="284" y="29" type="curve" smooth="yes"/>
      <point x="151" y="29" type="line"/>
      <point x="151" y="682" type="line"/>
      <point x="125" y="682" type="line"/>
      <point x="120" y="612" type="line"/>
      <point x="120" y="0" type="line"/>
    </contour>
    <contour>
      <point x="125" y="682" type="line"/>
      <point x="117" y="645"/>
      <point x="100" y="618"/>
      <point x="81" y="599" type="curve"/>
      <point x="120" y="570" type="line"/>
    </contour>
    <contour>
      <point x="276" y="682" type="move" name="top"/>
    </contour>
    <contour>
      <point x="276" y="0" type="move" name="bottom"/>
    </contour>
  </outline>
</glyph>
<glyph name="uni0185" format="1">
  <advance width="491"/>
  <unicode hex="0185"/>
  <outline>
    <contour>
      <point x="262" y="0" type="line"/>
      <point x="373" y="0"/>
      <point x="451" y="54"/>
      <point x="451" y="175" type="curve" smooth="yes"/>
      <point x="451" y="276"/>
      <point x="394" y="338"/>
      <point x="256" y="338" type="curve" smooth="yes"/>
      <point x="138" y="338" type="line"/>
      <point x="138" y="310" type="line"/>
      <point x="257" y="310" type="line" smooth="yes"/>
      <point x="377" y="310"/>
      <point x="420" y="260"/>
      <point x="420" y="175" type="curve" smooth="yes"/>
      <point x="420" y="69"/>
      <point x="359" y="28"/>
      <point x="259" y="28" type="curve" smooth="yes"/>
      <point x="145" y="28" type="line"/>
      <point x="145" y="520" type="line"/>
      <point x="120" y="520" type="line"/>
      <point x="115" y="489" type="line"/>
      <point x="115" y="0" type="line"/>
    </contour>
    <contour>
      <point x="120" y="520" type="line"/>
      <point x="108" y="485"/>
      <point x="95" y="466"/>
      <point x="76" y="447" type="curve"/>
      <point x="115" y="418" type="line"/>
    </contour>
  </outline>
</glyph>
<glyph name="uni0186" format="1">
  <advance width="542"/>
  <unicode hex="0186"/>
  <outline>
    <contour>
      <point x="138" y="692"/>
      <point x="80" y="668"/>
      <point x="33" y="633" type="curve"/>
      <point x="50" y="611" type="line"/>
      <point x="100" y="646"/>
      <point x="149" y="663"/>
      <point x="213" y="663" type="curve" smooth="yes"/>
      <point x="341" y="663"/>
      <point x="435" y="568"/>
      <point x="435" y="341" type="curve" smooth="yes"/>
      <point x="435" y="126"/>
      <point x="330" y="20"/>
      <point x="203" y="20" type="curve" smooth="yes"/>
      <point x="131" y="20"/>
      <point x="89" y="44"/>
      <point x="44" y="77" type="curve"/>
      <point x="25" y="55" type="line"/>
      <point x="68" y="19"/>
      <point x="122" y="-10"/>
      <point x="203" y="-10" type="curve" smooth="yes"/>
      <point x="352" y="-10"/>
      <point x="467" y="112"/>
      <point x="467" y="341" type="curve" smooth="yes"/>
      <point x="467" y="577"/>
      <point x="361" y="692"/>
      <point x="215" y="692" type="curve" smooth="yes"/>
    </contour>
  </outline>
</glyph>
<glyph name="uni0187" format="1">
  <advance width="542"/>
  <unicode hex="0187"/>
  <outline>
    <contour>
      <point x="420" y="-10"/>
      <point x="473" y="17"/>
      <point x="517" y="55" type="curve"/>
      <point x="498" y="78" type="line"/>
      <point x="457" y="44"/>
      <point x="418" y="20"/>
      <point x="343" y="20" type="curve" smooth="yes"/>
      <point x="212" y="20"/>
      <point x="107" y="126"/>
      <point x="107" y="341" type="curve" smooth="yes"/>
      <point x="107" y="568"/>
      <point x="215" y="663"/>
      <point x="347" y="663" type="curve" smooth="yes"/>
      <point x="409" y="663"/>
      <point x="445" y="647"/>
      <point x="493" y="613" type="curve"/>
      <point x="509" y="633" type="line"/>
      <point x="500" y="640"/>
      <point x="491" y="647"/>
      <point x="482" y="651" type="curve"/>
      <point x="448" y="676"/>
      <point x="405" y="692"/>
      <point x="345" y="692" type="curve" smooth="yes"/>
      <point x="196" y="692"/>
      <point x="75" y="577"/>
      <point x="75" y="341" type="curve" smooth="yes"/>
      <point x="75" y="112"/>
      <point x="190" y="-10"/>
      <point x="342" y="-10" type="curve" smooth="yes"/>
    </contour>
    <contour>
      <point x="509" y="633" type="line"/>
      <point x="509" y="700" type="line" smooth="yes"/>
      <point x="509" y="769"/>
      <point x="542" y="791"/>
      <point x="582" y="791" type="curve" smooth="yes"/>
      <point x="617" y="791"/>
      <point x="639" y="780"/>
      <point x="659" y="767" type="curve"/>
      <point x="674" y="787" type="line"/>
      <point x="654" y="802"/>
      <point x="625" y="818"/>
      <point x="582" y="818" type="curve" smooth="yes"/>
      <point x="521" y="818"/>
      <point x="479" y="780"/>
      <point x="479" y="701" type="curve" smooth="yes"/>
      <point x="479" y="638" type="line"/>
    </contour>
  </outline>
</glyph>
<glyph name="uni0188" format="1">
  <advance width="462"/>
  <unicode hex="0188"/>
  <outline>
    <contour>
      <point x="433" y="738"/>
      <point x="391" y="700"/>
      <point x="391" y="621" type="curve" smooth="yes"/>
      <point x="391" y="496" type="line"/>
      <point x="421" y="480" type="line"/>
      <point x="421" y="620" type="line" smooth="yes"/>
      <point x="421" y="689"/>
      <point x="454" y="711"/>
      <point x="494" y="711" type="curve" smooth="yes"/>
      <point x="529" y="711"/>
      <point x="551" y="700"/>
      <point x="571" y="687" type="curve"/>
      <point x="586" y="707" type="line"/>
      <point x="566" y="722"/>
      <point x="537" y="738"/>
      <point x="494" y="738" type="curve" smooth="yes"/>
    </contour>
    <contour>
      <point x="156" y="530"/>
      <point x="70" y="426"/>
      <point x="70" y="257" type="curve" smooth="yes"/>
      <point x="70" y="87"/>
      <point x="157" y="-10"/>
      <point x="286" y="-10" type="curve" smooth="yes"/>
      <point x="343" y="-10"/>
      <point x="390" y="11"/>
      <point x="427" y="44" type="curve"/>
      <point x="410" y="66" type="line"/>
      <point x="376" y="36"/>
      <point x="336" y="18"/>
      <point x="284" y="18" type="curve" smooth="yes"/>
      <point x="179" y="18"/>
      <point x="102" y="98"/>
      <point x="102" y="257" type="curve" smooth="yes"/>
      <point x="102" y="419"/>
      <point x="180" y="502"/>
      <point x="285" y="502" type="curve" smooth="yes"/>
      <point x="336" y="502"/>
      <point x="372" y="485"/>
      <point x="406" y="462" type="curve"/>
      <point x="421" y="480" type="line"/>
      <point x="413" y="487"/>
      <point x="404" y="493"/>
      <point x="396" y="498" type="curve"/>
      <point x="363" y="520"/>
      <point x="329" y="530"/>
      <point x="284" y="530" type="curve" smooth="yes"/>
    </contour>
  </outline>
</glyph>
<glyph name="uni018B" format="1">
  <advance width="561"/>
  <unicode hex="018B"/>
  <outline>
    <contour>
      <point x="410" y="29" type="line"/>
      <point x="277" y="29" type="line" smooth="yes"/>
      <point x="162" y="29"/>
      <point x="87" y="79"/>
      <point x="87" y="201" type="curve" smooth="yes"/>
      <point x="87" y="318"/>
      <point x="159" y="379"/>
      <point x="287" y="379" type="curve" smooth="yes"/>
      <point x="417" y="379" type="line"/>
      <point x="417" y="408" type="line"/>
      <point x="288" y="408" type="line" smooth="yes"/>
      <point x="142" y="408"/>
      <point x="55" y="333"/>
      <point x="55" y="201" type="curve" smooth="yes"/>
      <point x="55" y="62"/>
      <point x="149" y="0"/>
      <point x="275" y="0" type="curve" smooth="yes"/>
      <point x="441" y="0" type="line"/>
      <point x="441" y="682" type="line"/>
      <point x="410" y="672" type="line"/>
    </contour>
    <contour>
      <point x="121" y="653" type="line"/>
      <point x="421" y="653" type="line"/>
      <point x="441" y="682" type="line"/>
      <point x="121" y="682" type="line"/>
    </contour>
  </outline>
</glyph>
<glyph name="uni018D" format="1">
  <advance width="558"/>
  <unicode hex="018D"/>
  <outline>
    <contour>
      <point x="124" y="-154"/>
      <point x="183" y="-199"/>
      <point x="273" y="-199" type="curve" smooth="yes"/>
      <point x="344" y="-199"/>
      <point x="389" y="-183"/>
      <point x="434" y="-154" type="curve"/>
      <point x="416" y="-133" type="line"/>
      <point x="373" y="-159"/>
      <point x="339" y="-171"/>
      <point x="273" y="-171" type="curve" smooth="yes"/>
      <point x="201" y="-171"/>
      <point x="155" y="-140"/>
      <point x="155" y="-89" type="curve" smooth="yes"/>
      <point x="155" y="-39"/>
      <point x="182" y="-11"/>
      <point x="297" y="32" type="curve" smooth="yes"/>
      <point x="429" y="81"/>
      <point x="488" y="147"/>
      <point x="488" y="285" type="curve" smooth="yes"/>
      <point x="488" y="446"/>
      <point x="414" y="530"/>
      <point x="280" y="530" type="curve" smooth="yes"/>
      <point x="151" y="530"/>
      <point x="70" y="443"/>
      <point x="70" y="284" type="curve" smooth="yes"/>
      <point x="70" y="153"/>
      <point x="141" y="70"/>
      <point x="252" y="30" type="curve"/>
      <point x="285" y="41" type="line"/>
      <point x="186" y="72"/>
      <point x="101" y="148"/>
      <point x="101" y="284" type="curve" smooth="yes"/>
      <point x="101" y="427"/>
      <point x="171" y="502"/>
      <point x="280" y="502" type="curve" smooth="yes"/>
      <point x="397" y="502"/>
      <point x="457" y="430"/>
      <point x="457" y="285" type="curve" smooth="yes"/>
      <point x="457" y="156"/>
      <point x="410" y="101"/>
      <point x="262" y="46" type="curve" smooth="yes"/>
      <point x="167" y="11"/>
      <point x="124" y="-27"/>
      <point x="124" y="-89" type="curve" smooth="yes"/>
    </contour>
  </outline>
</glyph>
<glyph name="uni018E" format="1">
  <advance width="493"/>
  <unicode hex="018E"/>
  <outline>
    <contour>
      <point x="47" y="653" type="line"/>
      <point x="342" y="653" type="line"/>
      <point x="342" y="373" type="line"/>
      <point x="90" y="373" type="line"/>
      <point x="90" y="345" type="line"/>
      <point x="342" y="345" type="line"/>
      <point x="342" y="29" type="line"/>
      <point x="40" y="29" type="line"/>
      <point x="40" y="0" type="line"/>
      <point x="373" y="0" type="line"/>
      <point x="373" y="682" type="line"/>
      <point x="47" y="682" type="line"/>
    </contour>
  </outline>
</glyph>
<glyph name="uni0190" format="1">
  <advance width="519"/>
  <unicode hex="0190"/>
  <outline>
    <contour>
      <point x="154" y="692"/>
      <point x="81" y="625"/>
      <point x="81" y="525" type="curve" smooth="yes"/>
      <point x="81" y="435"/>
      <point x="136" y="386"/>
      <point x="211" y="370" type="curve"/>
      <point x="129" y="361"/>
      <point x="60" y="306"/>
      <point x="60" y="195" type="curve" smooth="yes"/>
      <point x="60" y="66"/>
      <point x="153" y="-10"/>
      <point x="280" y="-10" type="curve" smooth="yes"/>
      <point x="361" y="-10"/>
      <point x="429" y="21"/>
      <point x="489" y="82" type="curve"/>
      <point x="468" y="101" type="line"/>
      <point x="418" y="51"/>
      <point x="358" y="19"/>
      <point x="280" y="19" type="curve" smooth="yes"/>
      <point x="171" y="19"/>
      <point x="92" y="83"/>
      <point x="92" y="194" type="curve" smooth="yes"/>
      <point x="92" y="297"/>
      <point x="158" y="357"/>
      <point x="278" y="355" type="curve" smooth="yes"/>
      <point x="334" y="354" type="line"/>
      <point x="338" y="383" type="line"/>
      <point x="283" y="383" type="line" smooth="yes"/>
      <point x="182" y="383"/>
      <point x="113" y="432"/>
      <point x="113" y="527" type="curve" smooth="yes"/>
      <point x="113" y="610"/>
      <point x="176" y="663"/>
      <point x="272" y="663" type="curve" smooth="yes"/>
      <point x="344" y="663"/>
      <point x="400" y="633"/>
      <point x="449" y="589" type="curve"/>
      <point x="468" y="609" type="line"/>
      <point x="411" y="662"/>
      <point x="351" y="692"/>
      <point x="271" y="692" type="curve" smooth="yes"/>
    </contour>
    <contour>
      <point x="260" y="682" type="move" name="top"/>
    </contour>
    <contour>
      <point x="260" y="0" type="move" name="bottom"/>
    </contour>
  </outline>
</glyph>
<glyph name="florin" format="1">
  <advance width="309"/>
  <unicode hex="0192"/>
  <outline>
    <contour>
      <point x="169" y="738"/>
      <point x="117" y="695"/>
      <point x="117" y="617" type="curve" smooth="yes"/>
      <point x="117" y="9" type="line"/>
      <point x="147" y="29" type="line"/>
      <point x="147" y="613" type="line" smooth="yes"/>
      <point x="147" y="683"/>
      <point x="187" y="710"/>
      <point x="248" y="710" type="curve" smooth="yes"/>
      <point x="285" y="710"/>
      <point x="318" y="701"/>
      <point x="352" y="685" type="curve"/>
      <point x="364" y="709" type="line"/>
      <point x="329" y="727"/>
      <point x="287" y="738"/>
      <point x="246" y="738" type="curve" smooth="yes"/>
    </contour>
    <contour>
      <point x="29" y="520" type="line"/>
      <point x="29" y="493" type="line"/>
      <point x="288" y="493" type="line"/>
      <point x="293" y="520" type="line"/>
    </contour>
    <contour>
      <point x="117" y="320" type="line"/>
      <point x="117" y="9" type="line" smooth="yes"/>
      <point x="117" y="-108"/>
      <point x="89" y="-138"/>
      <point x="20" y="-174" type="curve"/>
      <point x="29" y="-196" type="line"/>
      <point x="109" y="-156"/>
      <point x="147" y="-124"/>
      <point x="147" y="8" type="curve" smooth="yes"/>
      <point x="147" y="320" type="line"/>
    </contour>
  </outline>
</glyph>
<glyph name="uni0193" format="1">
  <advance width="556"/>
  <unicode hex="0193"/>
  <outline>
    <contour>
      <point x="416" y="-10"/>
      <point x="481" y="8"/>
      <point x="538" y="42" type="curve"/>
      <point x="538" y="359" type="line"/>
      <point x="360" y="359" type="line"/>
      <point x="364" y="330" type="line"/>
      <point x="507" y="330" type="line"/>
      <point x="507" y="58" type="line"/>
      <point x="462" y="33"/>
      <point x="418" y="19"/>
      <point x="353" y="19" type="curve" smooth="yes"/>
      <point x="207" y="19"/>
      <point x="107" y="125"/>
      <point x="107" y="345" type="curve" smooth="yes"/>
      <point x="107" y="574"/>
      <point x="233" y="663"/>
      <point x="348" y="663" type="curve" smooth="yes"/>
      <point x="411" y="663"/>
      <point x="457" y="648"/>
      <point x="507" y="613" type="curve"/>
      <point x="523" y="631" type="line"/>
      <point x="515" y="638"/>
      <point x="506" y="644"/>
      <point x="498" y="649" type="curve" smooth="yes"/>
      <point x="454" y="678"/>
      <point x="410" y="692"/>
      <point x="348" y="692" type="curve" smooth="yes"/>
      <point x="215" y="692"/>
      <point x="75" y="583"/>
      <point x="75" y="345" type="curve" smooth="yes"/>
      <point x="75" y="109"/>
      <point x="189" y="-10"/>
      <point x="353" y="-10" type="curve" smooth="yes"/>
    </contour>
    <contour>
      <point x="523" y="631" type="line"/>
      <point x="523" y="700" type="line" smooth="yes"/>
      <point x="523" y="769"/>
      <point x="556" y="791"/>
      <point x="596" y="791" type="curve" smooth="yes"/>
      <point x="631" y="791"/>
      <point x="653" y="780"/>
      <point x="673" y="767" type="curve"/>
      <point x="688" y="787" type="line"/>
      <point x="668" y="802"/>
      <point x="639" y="818"/>
      <point x="596" y="818" type="curve" smooth="yes"/>
      <point x="535" y="818"/>
      <point x="493" y="780"/>
      <point x="493" y="701" type="curve" smooth="yes"/>
      <point x="493" y="638" type="line"/>
    </contour>
  </outline>
</glyph>
<glyph name="uni0194" format="1">
  <advance width="538"/>
  <unicode hex="0194"/>
  <outline>
    <contour>
      <point x="317" y="-199"/>
      <point x="344" y="-165"/>
      <point x="344" y="-121" type="curve" smooth="yes"/>
      <point x="344" y="-73"/>
      <point x="323" y="-28"/>
      <point x="288" y="52" type="curve"/>
      <point x="269" y="76" type="line"/>
      <point x="58" y="682" type="line"/>
      <point x="25" y="682" type="line"/>
      <point x="250" y="52" type="line"/>
      <point x="269" y="29" type="line"/>
      <point x="297" y="-39"/>
      <point x="313" y="-78"/>
      <point x="313" y="-120" type="curve" smooth="yes"/>
      <point x="313" y="-152"/>
      <point x="298" y="-171"/>
      <point x="269" y="-171" type="curve" smooth="yes"/>
      <point x="240" y="-171"/>
      <point x="225" y="-152"/>
      <point x="225" y="-120" type="curve" smooth="yes"/>
      <point x="225" y="-77"/>
      <point x="241" y="-39"/>
      <point x="269" y="29" type="curve"/>
      <point x="288" y="52" type="line"/>
      <point x="513" y="682" type="line"/>
      <point x="480" y="682" type="line"/>
      <point x="269" y="76" type="line"/>
      <point x="250" y="52" type="line"/>
      <point x="216" y="-29"/>
      <point x="194" y="-75"/>
      <point x="194" y="-121" type="curve" smooth="yes"/>
      <point x="194" y="-167"/>
      <point x="224" y="-199"/>
      <point x="269" y="-199" type="curve" smooth="yes"/>
    </contour>
  </outline>
</glyph>
<glyph name="uni0195" format="1">
  <advance width="890"/>
  <unicode hex="0195"/>
  <outline>
    <contour>
      <point x="711" y="-10"/>
      <point x="800" y="73"/>
      <point x="800" y="265" type="curve" smooth="yes"/>
      <point x="800" y="357"/>
      <point x="787" y="444"/>
      <point x="774" y="520" type="curve"/>
      <point x="743" y="520" type="line"/>
      <point x="756" y="444"/>
      <point x="769" y="356"/>
      <point x="769" y="265" type="curve" smooth="yes"/>
      <point x="769" y="76"/>
      <point x="685" y="18"/>
      <point x="603" y="18" type="curve" smooth="yes"/>
      <point x="530" y="18"/>
      <point x="472" y="58"/>
      <point x="472" y="157" type="curve" smooth="yes"/>
      <point x="472" y="318" type="line"/>
      <point x="442" y="318" type="line"/>
      <point x="442" y="156" type="line" smooth="yes"/>
      <point x="442" y="45"/>
      <point x="512" y="-10"/>
      <point x="603" y="-10" type="curve" smooth="yes"/>
    </contour>
    <contour>
      <point x="145" y="0" type="line"/>
      <point x="145" y="739" type="line"/>
      <point x="115" y="734" type="line"/>
      <point x="115" y="0" type="line"/>
    </contour>
    <contour>
      <point x="472" y="311" type="line"/>
      <point x="472" y="370" type="line" smooth="yes"/>
      <point x="472" y="470"/>
      <point x="425" y="530"/>
      <point x="332" y="530" type="curve" smooth="yes"/>
      <point x="246" y="530"/>
      <point x="184" y="480"/>
      <point x="136" y="408" type="curve"/>
      <point x="145" y="383" type="line"/>
      <point x="194" y="453"/>
      <point x="249" y="503"/>
      <point x="331" y="503" type="curve" smooth="yes"/>
      <point x="405" y="503"/>
      <point x="442" y="457"/>
      <point x="442" y="366" type="curve" smooth="yes"/>
      <point x="442" y="311" type="line"/>
    </contour>
  </outline>
</glyph>
<glyph name="uni0196" format="1">
  <advance width="325"/>
  <unicode hex="0196"/>
  <outline>
    <contour>
      <point x="110" y="682" type="line"/>
      <point x="110" y="189" type="line"/>
      <point x="141" y="189" type="line"/>
      <point x="141" y="682" type="line"/>
    </contour>
    <component base="hookHELPER.case" xOffset="344" yOffset="189" xScale="-1"/>
  </outline>
</glyph>
<glyph name="uni0198" format="1">
  <advance width="545"/>
  <unicode hex="0198"/>
  <outline>
    <contour>
      <point x="120" y="682" type="line"/>
      <point x="120" y="0" type="line"/>
      <point x="151" y="0" type="line"/>
      <point x="151" y="682" type="line"/>
    </contour>
    <contour>
      <point x="408" y="660"/>
      <point x="430" y="664"/>
      <point x="461" y="664" type="curve" smooth="yes"/>
      <point x="489" y="664"/>
      <point x="510" y="651"/>
      <point x="528" y="636" type="curve"/>
      <point x="545" y="654" type="line"/>
      <point x="525" y="674"/>
      <point x="495" y="692"/>
      <point x="461" y="692" type="curve" smooth="yes"/>
      <point x="414" y="692"/>
      <point x="386" y="676"/>
      <point x="344" y="620" type="curve" smooth="yes"/>
      <point x="154" y="367" type="line"/>
      <point x="475" y="0" type="line"/>
      <point x="513" y="0" type="line"/>
      <point x="194" y="367" type="line"/>
      <point x="364" y="600" type="line" smooth="yes"/>
    </contour>
  </outline>
</glyph>
<glyph name="uni0199" format="1">
  <advance width="469"/>
  <unicode hex="0199"/>
  <outline>
    <contour>
      <point x="392" y="520" type="line"/>
      <point x="151" y="284" type="line"/>
      <point x="417" y="0" type="line"/>
      <point x="454" y="0" type="line"/>
      <point x="189" y="285" type="line"/>
      <point x="430" y="520" type="line"/>
    </contour>
    <contour>
      <point x="115" y="520" type="line"/>
      <point x="115" y="0" type="line"/>
      <point x="145" y="0" type="line"/>
      <point x="145" y="524" type="line"/>
    </contour>
    <component base="hookaboveHELPER" xOffset="76"/>
  </outline>
</glyph>
<glyph name="uni019B" format="1">
  <advance width="454"/>
  <unicode hex="019B"/>
  <outline>
    <contour>
      <point x="241" y="490" type="line"/>
      <point x="305" y="165"/>
      <point x="369" y="82"/>
      <point x="431" y="-6" type="curve"/>
      <point x="459" y="5" type="line"/>
      <point x="398" y="93"/>
      <point x="332" y="171"/>
      <point x="266" y="510" type="curve" smooth="yes"/>
      <point x="239" y="649"/>
      <point x="204" y="712"/>
      <point x="87" y="738" type="curve"/>
      <point x="83" y="715" type="line"/>
      <point x="182" y="691"/>
      <point x="212" y="633"/>
      <point x="236" y="520" type="curve"/>
      <point x="223" y="520" type="line"/>
      <point x="40" y="1" type="line"/>
      <point x="69" y="-6" type="line"/>
    </contour>
    <contour>
      <point x="205" y="645" type="line"/>
      <point x="215" y="655" type="line"/>
      <point x="292" y="733" type="line"/>
      <point x="272" y="750" type="line"/>
      <point x="195" y="670" type="line"/>
      <point x="186" y="660" type="line"/>
      <point x="99" y="571" type="line"/>
      <point x="124" y="562" type="line"/>
    </contour>
  </outline>
</glyph>
<glyph name="uni019C" format="1">
  <advance width="925"/>
  <unicode hex="019C"/>
  <outline>
    <contour>
      <point x="682" y="-10"/>
      <point x="748" y="50"/>
      <point x="783" y="121" type="curve"/>
      <point x="774" y="149" type="line"/>
      <point x="737" y="79"/>
      <point x="679" y="19"/>
      <point x="596" y="19" type="curve" smooth="yes"/>
      <point x="517" y="19"/>
      <point x="473" y="73"/>
      <point x="473" y="175" type="curve" smooth="yes"/>
      <point x="473" y="682" type="line"/>
      <point x="442" y="682" type="line"/>
      <point x="442" y="180" type="line" smooth="yes"/>
      <point x="442" y="58"/>
      <point x="497" y="-10"/>
      <point x="595" y="-10" type="curve" smooth="yes"/>
    </contour>
    <contour>
      <point x="805" y="0" type="line"/>
      <point x="805" y="682" type="line"/>
      <point x="774" y="682" type="line"/>
      <point x="774" y="141" type="line"/>
      <point x="778" y="0" type="line"/>
    </contour>
    <contour>
      <point x="350" y="-10"/>
      <point x="416" y="50"/>
      <point x="456" y="122" type="curve"/>
      <point x="446" y="153" type="line"/>
      <point x="405" y="79"/>
      <point x="347" y="19"/>
      <point x="264" y="19" type="curve" smooth="yes"/>
      <point x="185" y="19"/>
      <point x="141" y="73"/>
      <point x="141" y="175" type="curve" smooth="yes"/>
      <point x="141" y="682" type="line"/>
      <point x="110" y="682" type="line"/>
      <point x="110" y="180" type="line" smooth="yes"/>
      <point x="110" y="58"/>
      <point x="165" y="-10"/>
      <point x="263" y="-10" type="curve" smooth="yes"/>
    </contour>
    <contour>
      <point x="463" y="682" type="move" name="top"/>
    </contour>
    <contour>
      <point x="463" y="0" type="move" name="bottom"/>
    </contour>
  </outline>
</glyph>
<glyph name="uni019D" format="1">
  <advance width="664"/>
  <unicode hex="019D"/>
  <outline>
    <contour>
      <point x="106" y="-199"/>
      <point x="150" y="-161"/>
      <point x="150" y="-82" type="curve" smooth="yes"/>
      <point x="150" y="1" type="line"/>
      <point x="120" y="1" type="line"/>
      <point x="120" y="-81" type="line" smooth="yes"/>
      <point x="120" y="-150"/>
      <point x="86" y="-172"/>
      <point x="46" y="-172" type="curve" smooth="yes"/>
      <point x="11" y="-172"/>
      <point x="-11" y="-161"/>
      <point x="-30" y="-148" type="curve"/>
      <point x="-45" y="-168" type="line"/>
      <point x="-25" y="-183"/>
      <point x="5" y="-199"/>
      <point x="46" y="-199" type="curve" smooth="yes"/>
    </contour>
    <component base="N"/>
  </outline>
</glyph>
<glyph name="uni019E" format="1">
  <advance width="582"/>
  <unicode hex="019E"/>
  <outline>
    <contour>
      <point x="442" y="1" type="line"/>
      <point x="442" y="-193" type="line"/>
      <point x="472" y="-199" type="line"/>
      <point x="472" y="1" type="line"/>
    </contour>
    <component base="n"/>
  </outline>
</glyph>
<glyph name="uni01A2" format="1">
  <advance width="884"/>
  <unicode hex="01A2"/>
  <outline>
    <contour>
      <point x="578" y="692"/>
      <point x="528" y="666"/>
      <point x="488" y="641" type="curve"/>
      <point x="503" y="621" type="line"/>
      <point x="542" y="644"/>
      <point x="584" y="665"/>
      <point x="639" y="665" type="curve" smooth="yes"/>
      <point x="696" y="665"/>
      <point x="733" y="643"/>
      <point x="733" y="560" type="curve" smooth="yes"/>
      <point x="733" y="-193" type="line"/>
      <point x="764" y="-193" type="line"/>
      <point x="764" y="561" type="line" smooth="yes"/>
      <point x="764" y="654"/>
      <point x="716" y="692"/>
      <point x="639" y="692" type="curve" smooth="yes"/>
    </contour>
    <contour>
      <point x="186" y="692"/>
      <point x="75" y="565"/>
      <point x="75" y="339" type="curve" smooth="yes"/>
      <point x="75" y="114"/>
      <point x="185" y="-10"/>
      <point x="345" y="-10" type="curve" smooth="yes"/>
      <point x="511" y="-10"/>
      <point x="615" y="118"/>
      <point x="615" y="340" type="curve" smooth="yes"/>
      <point x="615" y="571"/>
      <point x="505" y="692"/>
      <point x="345" y="692" type="curve" smooth="yes"/>
    </contour>
    <contour>
      <point x="488" y="663"/>
      <point x="583" y="556"/>
      <point x="583" y="340" type="curve" smooth="yes"/>
      <point x="583" y="129"/>
      <point x="493" y="19"/>
      <point x="345" y="19" type="curve" smooth="yes"/>
      <point x="205" y="19"/>
      <point x="107" y="129"/>
      <point x="107" y="339" type="curve" smooth="yes"/>
      <point x="107" y="554"/>
      <point x="204" y="663"/>
      <point x="345" y="663" type="curve"/>
    </contour>
  </outline>
</glyph>
<glyph name="uni01A3" format="1">
  <advance width="745"/>
  <unicode hex="01A3"/>
  <outline>
    <contour>
      <point x="630" y="-199" type="line"/>
      <point x="630" y="397" type="line" smooth="yes"/>
      <point x="630" y="487"/>
      <point x="582" y="530"/>
      <point x="505" y="530" type="curve" smooth="yes"/>
      <point x="453" y="530"/>
      <point x="414" y="516"/>
      <point x="380" y="498" type="curve"/>
      <point x="404" y="482" type="line"/>
      <point x="432" y="494"/>
      <point x="462" y="503"/>
      <point x="504" y="503" type="curve" smooth="yes"/>
      <point x="562" y="503"/>
      <point x="600" y="476"/>
      <point x="600" y="396" type="curve" smooth="yes"/>
      <point x="600" y="-193" type="line"/>
    </contour>
    <contour>
      <point x="154" y="530"/>
      <point x="70" y="431"/>
      <point x="70" y="259" type="curve" smooth="yes"/>
      <point x="70" y="91"/>
      <point x="150" y="-10"/>
      <point x="280" y="-10" type="curve" smooth="yes"/>
      <point x="408" y="-10"/>
      <point x="491" y="89"/>
      <point x="491" y="262" type="curve" smooth="yes"/>
      <point x="491" y="436"/>
      <point x="408" y="530"/>
      <point x="281" y="530" type="curve" smooth="yes"/>
    </contour>
    <contour>
      <point x="393" y="502"/>
      <point x="460" y="418"/>
      <point x="460" y="262" type="curve" smooth="yes"/>
      <point x="460" y="103"/>
      <point x="390" y="18"/>
      <point x="280" y="18" type="curve" smooth="yes"/>
      <point x="169" y="18"/>
      <point x="101" y="105"/>
      <point x="101" y="259" type="curve" smooth="yes"/>
      <point x="101" y="419"/>
      <point x="172" y="502"/>
      <point x="281" y="502" type="curve" smooth="yes"/>
    </contour>
  </outline>
</glyph>
<glyph name="yr" format="1">
  <advance width="577"/>
  <unicode hex="01A6"/>
  <outline>
    <contour>
      <point x="120" y="682" type="line"/>
      <point x="120" y="0" type="line"/>
      <point x="151" y="0" type="line"/>
      <point x="151" y="682" type="line"/>
    </contour>
    <contour>
      <point x="309" y="197" type="line"/>
      <point x="498" y="-130" type="line"/>
      <point x="537" y="-130" type="line"/>
      <point x="343" y="202" type="line"/>
    </contour>
    <contour>
      <point x="140" y="523" type="line"/>
      <point x="270" y="523" type="line" smooth="yes"/>
      <point x="417" y="523"/>
      <point x="470" y="469"/>
      <point x="470" y="373" type="curve" smooth="yes"/>
      <point x="470" y="267"/>
      <point x="400" y="219"/>
      <point x="280" y="219" type="curve" smooth="yes"/>
      <point x="144" y="219" type="line"/>
      <point x="144" y="190" type="line"/>
      <point x="316" y="190" type="line"/>
      <point x="426" y="206"/>
      <point x="502" y="255"/>
      <point x="502" y="373" type="curve" smooth="yes"/>
      <point x="502" y="488"/>
      <point x="433" y="552"/>
      <point x="274" y="552" type="curve" smooth="yes"/>
      <point x="140" y="552" type="line"/>
    </contour>
  </outline>
</glyph>
<glyph name="uni01A7" format="1">
  <advance width="525"/>
  <unicode hex="01A7"/>
  <outline>
    <contour>
      <point x="193" y="692"/>
      <point x="142" y="664"/>
      <point x="86" y="620" type="curve"/>
      <point x="105" y="599" type="line"/>
      <point x="162" y="644"/>
      <point x="209" y="663"/>
      <point x="281" y="663" type="curve" smooth="yes"/>
      <point x="375" y="663"/>
      <point x="426" y="612"/>
      <point x="426" y="538" type="curve" smooth="yes"/>
      <point x="426" y="453"/>
      <point x="380" y="421"/>
      <point x="259" y="381" type="curve" smooth="yes"/>
      <point x="124" y="336"/>
      <point x="65" y="285"/>
      <point x="65" y="177" type="curve" smooth="yes"/>
      <point x="65" y="63"/>
      <point x="153" y="-10"/>
      <point x="266" y="-10" type="curve" smooth="yes"/>
      <point x="357" y="-10"/>
      <point x="420" y="23"/>
      <point x="475" y="73" type="curve"/>
      <point x="455" y="94" type="line"/>
      <point x="406" y="49"/>
      <point x="353" y="19"/>
      <point x="267" y="19" type="curve" smooth="yes"/>
      <point x="169" y="19"/>
      <point x="97" y="77"/>
      <point x="97" y="176" type="curve" smooth="yes"/>
      <point x="97" y="272"/>
      <point x="142" y="312"/>
      <point x="269" y="355" type="curve" smooth="yes"/>
      <point x="408" y="402"/>
      <point x="457" y="445"/>
      <point x="457" y="538" type="curve" smooth="yes"/>
      <point x="457" y="626"/>
      <point x="393" y="692"/>
      <point x="281" y="692" type="curve" smooth="yes"/>
    </contour>
  </outline>
</glyph>
<glyph name="uni01A8" format="1">
  <advance width="451"/>
  <unicode hex="01A8"/>
  <outline>
    <contour>
      <point x="175" y="530"/>
      <point x="123" y="512"/>
      <point x="73" y="473" type="curve"/>
      <point x="91" y="453" type="line"/>
      <point x="137" y="487"/>
      <point x="179" y="502"/>
      <point x="238" y="502" type="curve" smooth="yes"/>
      <point x="310" y="502"/>
      <point x="361" y="466"/>
      <point x="361" y="403" type="curve" smooth="yes"/>
      <point x="361" y="344"/>
      <point x="324" y="318"/>
      <point x="223" y="288" type="curve" smooth="yes"/>
      <point x="105" y="253"/>
      <point x="60" y="215"/>
      <point x="60" y="130" type="curve" smooth="yes"/>
      <point x="60" y="46"/>
      <point x="129" y="-10"/>
      <point x="222" y="-10" type="curve" smooth="yes"/>
      <point x="303" y="-10"/>
      <point x="356" y="19"/>
      <point x="401" y="56" type="curve"/>
      <point x="383" y="76" type="line"/>
      <point x="337" y="40"/>
      <point x="292" y="18"/>
      <point x="222" y="18" type="curve" smooth="yes"/>
      <point x="150" y="18"/>
      <point x="91" y="56"/>
      <point x="91" y="130" type="curve" smooth="yes"/>
      <point x="91" y="202"/>
      <point x="122" y="232"/>
      <point x="237" y="265" type="curve" smooth="yes"/>
      <point x="347" y="297"/>
      <point x="392" y="334"/>
      <point x="392" y="403" type="curve" smooth="yes"/>
      <point x="392" y="480"/>
      <point x="326" y="530"/>
      <point x="238" y="530" type="curve" smooth="yes"/>
    </contour>
  </outline>
</glyph>
<glyph name="uni01AA" format="1">
  <advance width="268"/>
  <unicode hex="01AA"/>
  <outline>
    <contour>
      <point x="-3" y="738"/>
      <point x="-45" y="691"/>
      <point x="-45" y="626" type="curve" smooth="yes"/>
      <point x="-45" y="559"/>
      <point x="-3" y="519"/>
      <point x="56" y="519" type="curve" smooth="yes"/>
      <point x="91" y="519"/>
      <point x="120" y="531"/>
      <point x="140" y="550" type="curve"/>
      <point x="135" y="570" type="line"/>
      <point x="115" y="557"/>
      <point x="93" y="546"/>
      <point x="57" y="546" type="curve" smooth="yes"/>
      <point x="15" y="546"/>
      <point x="-15" y="570"/>
      <point x="-15" y="627" type="curve" smooth="yes"/>
      <point x="-15" y="678"/>
      <point x="12" y="711"/>
      <point x="55" y="711" type="curve" smooth="yes"/>
      <point x="97" y="711"/>
      <point x="120" y="681"/>
      <point x="120" y="632" type="curve" smooth="yes"/>
      <point x="120" y="0" type="line"/>
      <point x="150" y="0" type="line"/>
      <point x="150" y="633" type="line" smooth="yes"/>
      <point x="150" y="692"/>
      <point x="117" y="738"/>
      <point x="55" y="738" type="curve" smooth="yes"/>
    </contour>
    <component base="hookHELPER" xOffset="354" xScale="-1"/>
  </outline>
</glyph>
<glyph name="uni01AB" format="1">
  <advance width="325"/>
  <unicode hex="01AB"/>
  <outline>
    <contour>
      <point x="288" y="-199"/>
      <point x="330" y="-161"/>
      <point x="330" y="-82" type="curve" smooth="yes"/>
      <point x="330" y="20" type="line"/>
      <point x="300" y="18" type="line"/>
      <point x="300" y="-81" type="line" smooth="yes"/>
      <point x="300" y="-150"/>
      <point x="267" y="-172"/>
      <point x="225" y="-172" type="curve" smooth="yes"/>
      <point x="192" y="-172"/>
      <point x="170" y="-161"/>
      <point x="150" y="-148" type="curve"/>
      <point x="135" y="-168" type="line"/>
      <point x="155" y="-183"/>
      <point x="184" y="-199"/>
      <point x="225" y="-199" type="curve" smooth="yes"/>
    </contour>
    <contour>
      <point x="110" y="650" type="line"/>
      <point x="110" y="118" type="line" smooth="yes"/>
      <point x="110" y="32"/>
      <point x="155" y="-10"/>
      <point x="226" y="-10" type="curve" smooth="yes"/>
      <point x="257" y="-10"/>
      <point x="283" y="-3"/>
      <point x="307" y="8" type="curve"/>
      <point x="315" y="11"/>
      <point x="323" y="15"/>
      <point x="330" y="20" type="curve"/>
      <point x="319" y="38" type="line"/>
      <point x="290" y="25"/>
      <point x="262" y="18"/>
      <point x="228" y="18" type="curve" smooth="yes"/>
      <point x="169" y="18"/>
      <point x="140" y="53"/>
      <point x="140" y="120" type="curve" smooth="yes"/>
      <point x="140" y="653" type="line"/>
    </contour>
    <contour>
      <point x="25" y="520" type="line"/>
      <point x="25" y="493" type="line"/>
      <point x="278" y="493" type="line"/>
      <point x="283" y="520" type="line"/>
    </contour>
  </outline>
</glyph>
<glyph name="uni01AC" format="1">
  <advance width="497"/>
  <unicode hex="01AC"/>
  <outline>
    <contour>
      <point x="161" y="682" type="line"/>
      <point x="161" y="652" type="line"/>
      <point x="243" y="652" type="line"/>
      <point x="243" y="0" type="line"/>
      <point x="274" y="0" type="line"/>
      <point x="274" y="652" type="line"/>
      <point x="482" y="652" type="line"/>
      <point x="487" y="682" type="line"/>
    </contour>
    <contour>
      <point x="20" y="538"/>
      <point x="36" y="514"/>
      <point x="51" y="490" type="curve"/>
      <point x="74" y="504" type="line"/>
      <point x="62" y="525"/>
      <point x="50" y="547"/>
      <point x="50" y="580" type="curve" smooth="yes"/>
      <point x="50" y="621"/>
      <point x="74" y="652"/>
      <point x="134" y="652" type="curve" smooth="yes"/>
      <point x="162" y="652" type="line"/>
      <point x="162" y="682" type="line"/>
      <point x="141" y="682" type="line" smooth="yes"/>
      <point x="60" y="682"/>
      <point x="20" y="640"/>
      <point x="20" y="580" type="curve" smooth="yes"/>
    </contour>
  </outline>
</glyph>
<glyph name="uni01AD" format="1">
  <advance width="325"/>
  <unicode hex="01AD"/>
  <outline>
    <contour>
      <point x="267" y="-10"/>
      <point x="301" y="2"/>
      <point x="330" y="20" type="curve"/>
      <point x="316" y="43" type="line"/>
      <point x="290" y="28"/>
      <point x="262" y="18"/>
      <point x="228" y="18" type="curve" smooth="yes"/>
      <point x="169" y="18"/>
      <point x="140" y="53"/>
      <point x="140" y="120" type="curve" smooth="yes"/>
      <point x="140" y="562" type="line"/>
      <point x="110" y="559" type="line"/>
      <point x="110" y="118" type="line" smooth="yes"/>
      <point x="110" y="32"/>
      <point x="155" y="-10"/>
      <point x="226" y="-10" type="curve" smooth="yes"/>
    </contour>
    <contour>
      <point x="278" y="493" type="line"/>
      <point x="283" y="520" type="line"/>
      <point x="25" y="520" type="line"/>
      <point x="25" y="493" type="line"/>
    </contour>
    <contour>
      <point x="140" y="529" type="line"/>
      <point x="140" y="609" type="line" smooth="yes"/>
      <point x="140" y="679"/>
      <point x="170" y="711"/>
      <point x="228" y="711" type="curve" smooth="yes"/>
      <point x="262" y="711"/>
      <point x="290" y="701"/>
      <point x="316" y="686" type="curve"/>
      <point x="330" y="708" type="line"/>
      <point x="301" y="726"/>
      <point x="267" y="738"/>
      <point x="227" y="738" type="curve" smooth="yes"/>
      <point x="157" y="738"/>
      <point x="110" y="696"/>
      <point x="110" y="610" type="curve" smooth="yes"/>
      <point x="110" y="529" type="line"/>
    </contour>
  </outline>
</glyph>
<glyph name="uni01B1" format="1">
  <advance width="690"/>
  <unicode hex="01B1"/>
  <outline>
    <contour>
      <point x="506" y="-10"/>
      <point x="615" y="115"/>
      <point x="615" y="322" type="curve" smooth="yes"/>
      <point x="615" y="504"/>
      <point x="549" y="594"/>
      <point x="472" y="653" type="curve"/>
      <point x="593" y="653" type="line"/>
      <point x="593" y="682" type="line"/>
      <point x="423" y="682" type="line"/>
      <point x="423" y="654" type="line"/>
      <point x="511" y="599"/>
      <point x="583" y="501"/>
      <point x="583" y="322" type="curve" smooth="yes"/>
      <point x="583" y="127"/>
      <point x="486" y="19"/>
      <point x="345" y="19" type="curve" smooth="yes"/>
      <point x="203" y="19"/>
      <point x="107" y="127"/>
      <point x="107" y="322" type="curve" smooth="yes"/>
      <point x="107" y="502"/>
      <point x="182" y="600"/>
      <point x="267" y="654" type="curve"/>
      <point x="267" y="682" type="line"/>
      <point x="97" y="682" type="line"/>
      <point x="97" y="653" type="line"/>
      <point x="218" y="653" type="line"/>
      <point x="149" y="597"/>
      <point x="75" y="504"/>
      <point x="75" y="322" type="curve" smooth="yes"/>
      <point x="75" y="115"/>
      <point x="183" y="-10"/>
      <point x="345" y="-10" type="curve" smooth="yes"/>
    </contour>
    <contour>
      <point x="345" y="682" type="move" name="top"/>
    </contour>
    <contour>
      <point x="345" y="0" type="move" name="bottom"/>
    </contour>
  </outline>
</glyph>
<glyph name="uni01B2" format="1">
  <advance width="633"/>
  <unicode hex="01B2"/>
  <outline>
    <contour>
      <point x="502" y="599" type="line"/>
      <point x="502" y="291" type="line" smooth="yes"/>
      <point x="502" y="109"/>
      <point x="413" y="19"/>
      <point x="295" y="19" type="curve" smooth="yes"/>
      <point x="202" y="19"/>
      <point x="141" y="77"/>
      <point x="141" y="181" type="curve" smooth="yes"/>
      <point x="141" y="682" type="line"/>
      <point x="110" y="682" type="line"/>
      <point x="110" y="178" type="line" smooth="yes"/>
      <point x="110" y="61"/>
      <point x="183" y="-10"/>
      <point x="295" y="-10" type="curve" smooth="yes"/>
      <point x="430" y="-10"/>
      <point x="533" y="90"/>
      <point x="533" y="288" type="curve" smooth="yes"/>
      <point x="533" y="599" type="line"/>
    </contour>
    <contour>
      <point x="533" y="599" type="line"/>
      <point x="533" y="663"/>
      <point x="501" y="692"/>
      <point x="452" y="692" type="curve" smooth="yes"/>
      <point x="429" y="692"/>
      <point x="409" y="685"/>
      <point x="395" y="676" type="curve"/>
      <point x="407" y="654" type="line"/>
      <point x="420" y="661"/>
      <point x="434" y="665"/>
      <point x="451" y="665" type="curve" smooth="yes"/>
      <point x="487" y="665"/>
      <point x="502" y="641"/>
      <point x="502" y="599" type="curve"/>
    </contour>
    <contour>
      <point x="307" y="682" type="move" name="top"/>
    </contour>
    <contour>
      <point x="307" y="0" type="move" name="bottom"/>
    </contour>
  </outline>
</glyph>
<glyph name="uni01B3" format="1">
  <advance width="517"/>
  <unicode hex="01B3"/>
  <outline>
    <contour>
      <point x="267" y="0" type="line"/>
      <point x="267" y="270" type="line"/>
      <point x="422" y="601" type="line" smooth="yes"/>
      <point x="446" y="652"/>
      <point x="462" y="665"/>
      <point x="495" y="665" type="curve" smooth="yes"/>
      <point x="524" y="665"/>
      <point x="540" y="654"/>
      <point x="561" y="637" type="curve"/>
      <point x="577" y="655" type="line"/>
      <point x="556" y="675"/>
      <point x="531" y="692"/>
      <point x="494" y="692" type="curve" smooth="yes"/>
      <point x="449" y="692"/>
      <point x="422" y="667"/>
      <point x="398" y="614" type="curve" smooth="yes"/>
      <point x="252" y="297" type="line"/>
      <point x="55" y="682" type="line"/>
      <point x="20" y="682" type="line"/>
      <point x="236" y="270" type="line"/>
      <point x="236" y="0" type="line"/>
    </contour>
    <contour>
      <point x="15" y="682" type="move" name="topleft"/>
    </contour>
  </outline>
</glyph>
<glyph name="uni01B4" format="1">
  <advance width="458"/>
  <unicode hex="01B4"/>
  <outline>
    <contour>
      <point x="170" y="-165"/>
      <point x="209" y="-116"/>
      <point x="245" y="-2" type="curve" smooth="yes"/>
      <point x="398" y="481" type="line" smooth="yes"/>
      <point x="412" y="526"/>
      <point x="427" y="541"/>
      <point x="456" y="541" type="curve" smooth="yes"/>
      <point x="471" y="541"/>
      <point x="484" y="538"/>
      <point x="496" y="533" type="curve"/>
      <point x="505" y="557" type="line"/>
      <point x="492" y="563"/>
      <point x="476" y="568"/>
      <point x="455" y="568" type="curve" smooth="yes"/>
      <point x="413" y="568"/>
      <point x="389" y="547"/>
      <point x="369" y="483" type="curve" smooth="yes"/>
      <point x="226" y="23" type="line"/>
      <point x="53" y="520" type="line"/>
      <point x="20" y="520" type="line"/>
      <point x="205" y="0" type="line"/>
      <point x="217" y="0" type="line"/>
      <point x="185" y="-97"/>
      <point x="158" y="-142"/>
      <point x="54" y="-173" type="curve"/>
      <point x="58" y="-197" type="line"/>
    </contour>
  </outline>
</glyph>
<glyph name="uni01B5" format="1">
  <advance width="511"/>
  <unicode hex="01B5"/>
  <outline>
    <contour>
      <point x="78" y="682" type="line"/>
      <point x="78" y="653" type="line"/>
      <point x="425" y="653" type="line"/>
      <point x="40" y="28" type="line"/>
      <point x="40" y="0" type="line"/>
      <point x="445" y="0" type="line"/>
      <point x="449" y="30" type="line"/>
      <point x="77" y="30" type="line"/>
      <point x="461" y="655" type="line"/>
      <point x="461" y="682" type="line"/>
    </contour>
    <component base="hyphen" xOffset="35" yOffset="30" xScale="1.1"/>
  </outline>
</glyph>
<glyph name="uni01B6" format="1">
  <advance width="410"/>
  <unicode hex="01B6"/>
  <outline>
    <contour>
      <point x="55" y="520" type="line"/>
      <point x="55" y="492" type="line"/>
      <point x="338" y="492" type="line"/>
      <point x="30" y="25" type="line"/>
      <point x="30" y="0" type="line"/>
      <point x="366" y="0" type="line"/>
      <point x="369" y="28" type="line"/>
      <point x="68" y="28" type="line"/>
      <point x="375" y="495" type="line"/>
      <point x="375" y="520" type="line"/>
    </contour>
    <component base="hyphen" xOffset="9" yOffset="-43"/>
  </outline>
</glyph>
<glyph name="uni01B7" format="1">
  <advance width="475"/>
  <unicode hex="01B7"/>
  <outline>
    <contour>
      <point x="349" y="-10"/>
      <point x="425" y="72"/>
      <point x="425" y="183" type="curve" smooth="yes"/>
      <point x="425" y="307"/>
      <point x="351" y="377"/>
      <point x="207" y="377" type="curve" smooth="yes"/>
      <point x="159" y="377" type="line"/>
      <point x="128" y="348" type="line"/>
      <point x="209" y="348" type="line" smooth="yes"/>
      <point x="321" y="348"/>
      <point x="393" y="301"/>
      <point x="393" y="182" type="curve" smooth="yes"/>
      <point x="393" y="89"/>
      <point x="335" y="19"/>
      <point x="215" y="19" type="curve" smooth="yes"/>
      <point x="142" y="19"/>
      <point x="89" y="39"/>
      <point x="40" y="91" type="curve"/>
      <point x="20" y="73" type="line"/>
      <point x="69" y="20"/>
      <point x="128" y="-10"/>
      <point x="216" y="-10" type="curve" smooth="yes"/>
    </contour>
    <contour>
      <point x="128" y="348" type="line"/>
      <point x="163" y="377" type="line"/>
      <point x="400" y="656" type="line"/>
      <point x="400" y="682" type="line"/>
      <point x="37" y="682" type="line"/>
      <point x="37" y="654" type="line"/>
      <point x="360" y="654" type="line"/>
      <point x="128" y="377" type="line"/>
    </contour>
    <contour>
      <point x="219" y="682" type="move" name="top"/>
    </contour>
    <contour>
      <point x="238" y="0" type="move" name="bottom"/>
    </contour>
  </outline>
</glyph>
<glyph name="uni01B8" format="1">
  <advance width="475"/>
  <unicode hex="01B8"/>
  <outline>
    <contour>
      <point x="347" y="-10"/>
      <point x="403" y="20"/>
      <point x="455" y="73" type="curve"/>
      <point x="435" y="91" type="line"/>
      <point x="383" y="39"/>
      <point x="333" y="19"/>
      <point x="250" y="19" type="curve" smooth="yes"/>
      <point x="143" y="19"/>
      <point x="81" y="79"/>
      <point x="81" y="177" type="curve" smooth="yes"/>
      <point x="81" y="296"/>
      <point x="152" y="348"/>
      <point x="266" y="348" type="curve" smooth="yes"/>
      <point x="347" y="348" type="line"/>
      <point x="316" y="377" type="line"/>
      <point x="268" y="377" type="line" smooth="yes"/>
      <point x="127" y="377"/>
      <point x="50" y="302"/>
      <point x="50" y="178" type="curve" smooth="yes"/>
      <point x="50" y="63"/>
      <point x="128" y="-10"/>
      <point x="249" y="-10" type="curve" smooth="yes"/>
    </contour>
    <contour>
      <point x="116" y="654" type="line"/>
      <point x="438" y="654" type="line"/>
      <point x="438" y="682" type="line"/>
      <point x="75" y="682" type="line"/>
      <point x="75" y="656" type="line"/>
      <point x="312" y="377" type="line"/>
      <point x="347" y="348" type="line"/>
      <point x="347" y="378" type="line"/>
    </contour>
  </outline>
</glyph>
<glyph name="uni01B9" format="1">
  <advance width="445"/>
  <unicode hex="01B9"/>
  <outline>
    <contour>
      <point x="318" y="-199"/>
      <point x="377" y="-169"/>
      <point x="425" y="-116" type="curve"/>
      <point x="405" y="-99" type="line"/>
      <point x="357" y="-151"/>
      <point x="304" y="-171"/>
      <point x="233" y="-171" type="curve" smooth="yes"/>
      <point x="124" y="-171"/>
      <point x="66" y="-101"/>
      <point x="66" y="-6" type="curve" smooth="yes"/>
      <point x="66" y="105"/>
      <point x="129" y="167"/>
      <point x="266" y="167" type="curve" smooth="yes"/>
      <point x="317" y="167" type="line"/>
      <point x="287" y="195" type="line"/>
      <point x="269" y="195" type="line" smooth="yes"/>
      <point x="104" y="195"/>
      <point x="35" y="111"/>
      <point x="35" y="-5" type="curve" smooth="yes"/>
      <point x="35" y="-116"/>
      <point x="110" y="-199"/>
      <point x="234" y="-199" type="curve" smooth="yes"/>
    </contour>
    <contour>
      <point x="98" y="492" type="line"/>
      <point x="408" y="492" type="line"/>
      <point x="408" y="520" type="line"/>
      <point x="60" y="520" type="line"/>
      <point x="60" y="495" type="line"/>
      <point x="283" y="195" type="line"/>
      <point x="317" y="167" type="line"/>
      <point x="317" y="195" type="line"/>
    </contour>
  </outline>
</glyph>
<glyph name="uni01BA" format="1">
  <advance width="443"/>
  <unicode hex="01BA"/>
  <outline>
    <contour>
      <point x="146" y="-177" type="line"/>
      <point x="90" y="-149"/>
      <point x="67" y="-127"/>
      <point x="67" y="-86" type="curve" smooth="yes"/>
      <point x="67" y="-35"/>
      <point x="118" y="-17"/>
      <point x="216" y="-5" type="curve" smooth="yes"/>
      <point x="340" y="10"/>
      <point x="408" y="44"/>
      <point x="408" y="146" type="curve" smooth="yes"/>
      <point x="408" y="222"/>
      <point x="355" y="269"/>
      <point x="263" y="269" type="curve" smooth="yes"/>
      <point x="152" y="269" type="line"/>
      <point x="378" y="495" type="line"/>
      <point x="378" y="520" type="line"/>
      <point x="35" y="520" type="line"/>
      <point x="35" y="492" type="line"/>
      <point x="335" y="492" type="line"/>
      <point x="116" y="269" type="line"/>
      <point x="116" y="241" type="line"/>
      <point x="261" y="241" type="line" smooth="yes"/>
      <point x="333" y="241"/>
      <point x="378" y="213"/>
      <point x="378" y="146" type="curve" smooth="yes"/>
      <point x="378" y="60"/>
      <point x="328" y="35"/>
      <point x="210" y="22" type="curve" smooth="yes"/>
      <point x="95" y="9"/>
      <point x="35" y="-24"/>
      <point x="35" y="-86" type="curve" smooth="yes"/>
      <point x="35" y="-140"/>
      <point x="75" y="-171"/>
      <point x="137" y="-199" type="curve"/>
    </contour>
  </outline>
</glyph>
<glyph name="uni01BD" format="1">
  <advance width="420"/>
  <unicode hex="01BD"/>
  <outline>
    <contour>
      <point x="85" y="520" type="line"/>
      <point x="85" y="272" type="line"/>
      <point x="108" y="272" type="line"/>
      <point x="142" y="291"/>
      <point x="168" y="300"/>
      <point x="214" y="300" type="curve" smooth="yes"/>
      <point x="284" y="300"/>
      <point x="334" y="257"/>
      <point x="334" y="167" type="curve" smooth="yes"/>
      <point x="334" y="76"/>
      <point x="281" y="18"/>
      <point x="198" y="18" type="curve" smooth="yes"/>
      <point x="139" y="18"/>
      <point x="103" y="36"/>
      <point x="64" y="70" type="curve"/>
      <point x="45" y="51" type="line"/>
      <point x="85" y="14"/>
      <point x="131" y="-10"/>
      <point x="197" y="-10" type="curve" smooth="yes"/>
      <point x="301" y="-10"/>
      <point x="365" y="64"/>
      <point x="365" y="167" type="curve" smooth="yes"/>
      <point x="365" y="267"/>
      <point x="309" y="328"/>
      <point x="214" y="328" type="curve" smooth="yes"/>
      <point x="169" y="328"/>
      <point x="137" y="315"/>
      <point x="115" y="301" type="curve"/>
      <point x="115" y="492" type="line"/>
      <point x="343" y="492" type="line"/>
      <point x="349" y="520" type="line"/>
    </contour>
    <contour>
      <point x="210" y="520" type="move" name="top"/>
    </contour>
    <contour>
      <point x="210" y="0" type="move" name="bottom"/>
    </contour>
  </outline>
</glyph>
<glyph name="uni01BE" format="1">
  <advance width="492"/>
  <unicode hex="01BE"/>
  <outline>
    <contour>
      <point x="101" y="568" type="line"/>
      <point x="169" y="568" type="line"/>
      <point x="319" y="568" type="line"/>
      <point x="319" y="595" type="line"/>
      <point x="101" y="595" type="line"/>
    </contour>
    <component base="uni0296"/>
  </outline>
</glyph>
<glyph name="uni01BF" format="1">
  <advance width="565"/>
  <unicode hex="01BF"/>
  <outline>
    <contour>
      <point x="115" y="520" type="line"/>
      <point x="115" y="-199" type="line"/>
      <point x="145" y="-193" type="line"/>
      <point x="145" y="412" type="line"/>
      <point x="144" y="421" type="line"/>
      <point x="141" y="520" type="line"/>
    </contour>
    <contour>
      <point x="140" y="401" type="line"/>
      <point x="190" y="460"/>
      <point x="247" y="502"/>
      <point x="326" y="502" type="curve" smooth="yes"/>
      <point x="409" y="502"/>
      <point x="464" y="453"/>
      <point x="464" y="360" type="curve" smooth="yes"/>
      <point x="464" y="225"/>
      <point x="378" y="143"/>
      <point x="198" y="46" type="curve" smooth="yes"/>
      <point x="144" y="17" type="line"/>
      <point x="144" y="-12" type="line"/>
      <point x="208" y="21" type="line" smooth="yes"/>
      <point x="395" y="119"/>
      <point x="495" y="210"/>
      <point x="495" y="361" type="curve" smooth="yes"/>
      <point x="495" y="467"/>
      <point x="428" y="530"/>
      <point x="327" y="530" type="curve" smooth="yes"/>
      <point x="243" y="530"/>
      <point x="187" y="489"/>
      <point x="137" y="430" type="curve"/>
    </contour>
  </outline>
</glyph>
<glyph name="uni01C0" format="1">
  <advance width="269"/>
  <unicode hex="01C0"/>
  <outline>
    <contour>
      <point x="120" y="734" type="line"/>
      <point x="120" y="0" type="line"/>
      <point x="149" y="0" type="line"/>
      <point x="149" y="738" type="line"/>
    </contour>
  </outline>
</glyph>
<glyph name="uni01C3" format="1">
  <advance width="300"/>
  <unicode hex="01C3"/>
  <outline>
    <contour>
      <point x="136" y="734" type="line"/>
      <point x="136" y="193" type="line"/>
      <point x="164" y="193" type="line"/>
      <point x="164" y="738" type="line"/>
    </contour>
    <contour>
      <point x="132" y="49"/>
      <point x="120" y="36"/>
      <point x="120" y="19" type="curve" smooth="yes"/>
      <point x="120" y="3"/>
      <point x="132" y="-10"/>
      <point x="150" y="-10" type="curve" smooth="yes"/>
      <point x="169" y="-10"/>
      <point x="180" y="3"/>
      <point x="180" y="19" type="curve" smooth="yes"/>
      <point x="180" y="36"/>
      <point x="169" y="49"/>
      <point x="150" y="49" type="curve" smooth="yes"/>
    </contour>
  </outline>
</glyph>
<glyph name="uni01E4" format="1">
  <advance width="623"/>
  <unicode hex="01E4"/>
  <outline>
    <contour>
      <point x="215" y="692"/>
      <point x="75" y="583"/>
      <point x="75" y="345" type="curve" smooth="yes"/>
      <point x="75" y="109"/>
      <point x="189" y="-10"/>
      <point x="353" y="-10" type="curve" smooth="yes"/>
      <point x="416" y="-10"/>
      <point x="481" y="8"/>
      <point x="538" y="42" type="curve"/>
      <point x="538" y="359" type="line"/>
      <point x="360" y="359" type="line"/>
      <point x="364" y="330" type="line"/>
      <point x="507" y="330" type="line"/>
      <point x="507" y="58" type="line"/>
      <point x="462" y="33"/>
      <point x="418" y="19"/>
      <point x="353" y="19" type="curve" smooth="yes"/>
      <point x="207" y="19"/>
      <point x="107" y="125"/>
      <point x="107" y="345" type="curve" smooth="yes"/>
      <point x="107" y="574"/>
      <point x="233" y="663"/>
      <point x="348" y="663" type="curve" smooth="yes"/>
      <point x="411" y="663"/>
      <point x="456" y="647"/>
      <point x="504" y="610" type="curve"/>
      <point x="523" y="631" type="line"/>
      <point x="470" y="672"/>
      <point x="422" y="692"/>
      <point x="348" y="692" type="curve" smooth="yes"/>
    </contour>
    <component base="hyphen" xOffset="289" yOffset="-90"/>
  </outline>
</glyph>
<glyph name="uni01E5" format="1">
  <advance width="489"/>
  <unicode hex="01E5"/>
  <outline>
    <contour>
      <point x="421" y="538"/>
      <point x="392" y="529"/>
      <point x="244" y="530" type="curve" smooth="yes"/>
      <point x="131" y="530"/>
      <point x="62" y="461"/>
      <point x="62" y="359" type="curve" smooth="yes"/>
      <point x="62" y="288"/>
      <point x="91" y="240"/>
      <point x="149" y="210" type="curve"/>
      <point x="115" y="189"/>
      <point x="92" y="161"/>
      <point x="92" y="125" type="curve" smooth="yes"/>
      <point x="92" y="77"/>
      <point x="135" y="39"/>
      <point x="216" y="39" type="curve" smooth="yes"/>
      <point x="302" y="39" type="line" smooth="yes"/>
      <point x="383" y="39"/>
      <point x="430" y="3"/>
      <point x="430" y="-58" type="curve" smooth="yes"/>
      <point x="430" y="-127"/>
      <point x="379" y="-171"/>
      <point x="251" y="-171" type="curve" smooth="yes"/>
      <point x="118" y="-171"/>
      <point x="72" y="-141"/>
      <point x="70" y="-57" type="curve"/>
      <point x="40" y="-57" type="line"/>
      <point x="40" y="-159"/>
      <point x="104" y="-199"/>
      <point x="251" y="-199" type="curve" smooth="yes"/>
      <point x="395" y="-199"/>
      <point x="461" y="-144"/>
      <point x="461" y="-56" type="curve" smooth="yes"/>
      <point x="461" y="17"/>
      <point x="404" y="67"/>
      <point x="304" y="67" type="curve" smooth="yes"/>
      <point x="218" y="67" type="line" smooth="yes"/>
      <point x="148" y="67"/>
      <point x="123" y="94"/>
      <point x="123" y="130" type="curve" smooth="yes"/>
      <point x="123" y="159"/>
      <point x="142" y="183"/>
      <point x="174" y="200" type="curve"/>
      <point x="193" y="193"/>
      <point x="217" y="189"/>
      <point x="243" y="189" type="curve" smooth="yes"/>
      <point x="355" y="189"/>
      <point x="423" y="255"/>
      <point x="423" y="356" type="curve" smooth="yes"/>
      <point x="423" y="437"/>
      <point x="387" y="482"/>
      <point x="337" y="506" type="curve"/>
      <point x="403" y="507"/>
      <point x="445" y="512"/>
      <point x="474" y="520" type="curve"/>
      <point x="464" y="553" type="line"/>
    </contour>
    <contour>
      <point x="345" y="503"/>
      <point x="392" y="442"/>
      <point x="392" y="356" type="curve" smooth="yes"/>
      <point x="392" y="267"/>
      <point x="338" y="216"/>
      <point x="243" y="216" type="curve" smooth="yes"/>
      <point x="157" y="216"/>
      <point x="93" y="264"/>
      <point x="93" y="359" type="curve" smooth="yes"/>
      <point x="93" y="443"/>
      <point x="141" y="503"/>
      <point x="245" y="503" type="curve" smooth="yes"/>
    </contour>
    <component base="hyphen" xOffset="195" yOffset="-371"/>
    <contour>
      <point x="245" y="520" type="move" name="top"/>
    </contour>
    <contour>
      <point x="245" y="-193" type="move" name="bottom"/>
    </contour>
  </outline>
</glyph>
<glyph name="uni01F6" format="1">
  <advance width="960"/>
  <unicode hex="01F6"/>
  <outline>
    <contour>
      <point x="151" y="0" type="line"/>
      <point x="151" y="345" type="line"/>
      <point x="511" y="345" type="line"/>
      <point x="511" y="233" type="line"/>
      <point x="542" y="233" type="line"/>
      <point x="542" y="682" type="line"/>
      <point x="511" y="682" type="line"/>
      <point x="511" y="374" type="line"/>
      <point x="151" y="374" type="line"/>
      <point x="151" y="682" type="line"/>
      <point x="120" y="682" type="line"/>
      <point x="120" y="0" type="line"/>
    </contour>
    <contour>
      <point x="781" y="-10"/>
      <point x="870" y="73"/>
      <point x="870" y="265" type="curve" smooth="yes"/>
      <point x="870" y="357"/>
      <point x="857" y="444"/>
      <point x="844" y="520" type="curve"/>
      <point x="813" y="520" type="line"/>
      <point x="826" y="444"/>
      <point x="839" y="356"/>
      <point x="839" y="265" type="curve" smooth="yes"/>
      <point x="839" y="76"/>
      <point x="755" y="18"/>
      <point x="673" y="18" type="curve" smooth="yes"/>
      <point x="600" y="18"/>
      <point x="542" y="58"/>
      <point x="542" y="157" type="curve" smooth="yes"/>
      <point x="542" y="520" type="line"/>
      <point x="511" y="520" type="line"/>
      <point x="511" y="156" type="line" smooth="yes"/>
      <point x="511" y="45"/>
      <point x="582" y="-10"/>
      <point x="673" y="-10" type="curve" smooth="yes"/>
    </contour>
  </outline>
</glyph>
<glyph name="uni01F7" format="1">
  <advance width="561"/>
  <unicode hex="01F7"/>
  <outline>
    <contour>
      <point x="140" y="583" type="line"/>
      <point x="183" y="623"/>
      <point x="239" y="663"/>
      <point x="330" y="663" type="curve" smooth="yes"/>
      <point x="416" y="663"/>
      <point x="474" y="612"/>
      <point x="474" y="516" type="curve" smooth="yes"/>
      <point x="474" y="384"/>
      <point x="379" y="329"/>
      <point x="262" y="288" type="curve" smooth="yes"/>
      <point x="144" y="247" type="line"/>
      <point x="144" y="218" type="line"/>
      <point x="259" y="258" type="line" smooth="yes"/>
      <point x="396" y="306"/>
      <point x="506" y="369"/>
      <point x="506" y="517" type="curve" smooth="yes"/>
      <point x="506" y="626"/>
      <point x="435" y="692"/>
      <point x="330" y="692" type="curve" smooth="yes"/>
      <point x="239" y="692"/>
      <point x="182" y="652"/>
      <point x="140" y="612" type="curve"/>
    </contour>
    <contour>
      <point x="120" y="682" type="line"/>
      <point x="120" y="0" type="line"/>
      <point x="151" y="0" type="line"/>
      <point x="151" y="682" type="line"/>
    </contour>
  </outline>
</glyph>
<glyph name="uni021C" format="1">
  <advance width="498"/>
  <unicode hex="021C"/>
  <outline>
    <contour>
      <point x="149" y="692"/>
      <point x="89" y="662"/>
      <point x="30" y="609" type="curve"/>
      <point x="48" y="589" type="line"/>
      <point x="100" y="633"/>
      <point x="156" y="663"/>
      <point x="229" y="663" type="curve" smooth="yes"/>
      <point x="327" y="663"/>
      <point x="385" y="609"/>
      <point x="385" y="519" type="curve" smooth="yes"/>
      <point x="385" y="422"/>
      <point x="316" y="373"/>
      <point x="215" y="373" type="curve" smooth="yes"/>
      <point x="164" y="373" type="line"/>
      <point x="160" y="344" type="line"/>
      <point x="220" y="345" type="line" smooth="yes"/>
      <point x="342" y="347"/>
      <point x="406" y="291"/>
      <point x="406" y="203" type="curve" smooth="yes"/>
      <point x="406" y="81"/>
      <point x="320" y="3"/>
      <point x="64" y="-51" type="curve"/>
      <point x="67" y="-80" type="line"/>
      <point x="345" y="-20"/>
      <point x="438" y="66"/>
      <point x="438" y="204" type="curve" smooth="yes"/>
      <point x="438" y="300"/>
      <point x="372" y="350"/>
      <point x="287" y="360" type="curve"/>
      <point x="362" y="377"/>
      <point x="417" y="425"/>
      <point x="417" y="518" type="curve" smooth="yes"/>
      <point x="417" y="624"/>
      <point x="347" y="692"/>
      <point x="229" y="692" type="curve" smooth="yes"/>
    </contour>
  </outline>
</glyph>
<glyph name="uni021D" format="1">
  <advance width="452"/>
  <unicode hex="021D"/>
  <outline>
    <contour>
      <point x="131" y="530"/>
      <point x="80" y="511"/>
      <point x="30" y="477" type="curve"/>
      <point x="45" y="456" type="line"/>
      <point x="95" y="486"/>
      <point x="132" y="502"/>
      <point x="201" y="502" type="curve" smooth="yes"/>
      <point x="280" y="502"/>
      <point x="325" y="460"/>
      <point x="325" y="391" type="curve" smooth="yes"/>
      <point x="325" y="319"/>
      <point x="276" y="277"/>
      <point x="178" y="277" type="curve" smooth="yes"/>
      <point x="137" y="277" type="line"/>
      <point x="134" y="251" type="line"/>
      <point x="215" y="251" type="line" smooth="yes"/>
      <point x="289" y="251"/>
      <point x="351" y="221"/>
      <point x="351" y="148" type="curve" smooth="yes"/>
      <point x="351" y="54"/>
      <point x="267" y="-10"/>
      <point x="67" y="-64" type="curve"/>
      <point x="72" y="-90" type="line"/>
      <point x="288" y="-37"/>
      <point x="382" y="44"/>
      <point x="382" y="148" type="curve" smooth="yes"/>
      <point x="382" y="227"/>
      <point x="323" y="264"/>
      <point x="244" y="266" type="curve"/>
      <point x="312" y="278"/>
      <point x="356" y="315"/>
      <point x="356" y="391" type="curve" smooth="yes"/>
      <point x="356" y="479"/>
      <point x="292" y="530"/>
      <point x="201" y="530" type="curve" smooth="yes"/>
    </contour>
  </outline>
</glyph>
<glyph name="uni0220" format="1">
  <advance width="655"/>
  <unicode hex="0220"/>
  <outline>
    <contour>
      <point x="265" y="692"/>
      <point x="189" y="632"/>
      <point x="142" y="561" type="curve"/>
      <point x="151" y="533" type="line"/>
      <point x="200" y="603"/>
      <point x="268" y="663"/>
      <point x="369" y="663" type="curve" smooth="yes"/>
      <point x="458" y="663"/>
      <point x="512" y="609"/>
      <point x="512" y="487" type="curve" smooth="yes"/>
      <point x="512" y="-193" type="line"/>
      <point x="543" y="-193" type="line"/>
      <point x="543" y="492" type="line" smooth="yes"/>
      <point x="543" y="624"/>
      <point x="479" y="692"/>
      <point x="370" y="692" type="curve" smooth="yes"/>
    </contour>
    <contour>
      <point x="120" y="682" type="line"/>
      <point x="120" y="0" type="line"/>
      <point x="151" y="0" type="line"/>
      <point x="151" y="541" type="line"/>
      <point x="147" y="682" type="line"/>
    </contour>
  </outline>
</glyph>
<glyph name="uni0221" format="1">
  <advance width="657"/>
  <unicode hex="0221"/>
  <outline>
    <contour>
      <point x="357" y="-10"/>
      <point x="406" y="39"/>
      <point x="433" y="91" type="curve"/>
      <point x="435" y="141" type="line"/>
      <point x="398" y="63"/>
      <point x="352" y="18"/>
      <point x="269" y="18" type="curve" smooth="yes"/>
      <point x="170" y="18"/>
      <point x="107" y="106"/>
      <point x="106" y="258" type="curve" smooth="yes"/>
      <point x="105" y="412"/>
      <point x="178" y="502"/>
      <point x="280" y="502" type="curve" smooth="yes"/>
      <point x="360" y="502"/>
      <point x="407" y="454"/>
      <point x="437" y="403" type="curve"/>
      <point x="436" y="445" type="line"/>
      <point x="410" y="484"/>
      <point x="365" y="530"/>
      <point x="279" y="530" type="curve" smooth="yes"/>
      <point x="151" y="530"/>
      <point x="75" y="419"/>
      <point x="75" y="258" type="curve" smooth="yes"/>
      <point x="75" y="90"/>
      <point x="152" y="-10"/>
      <point x="268" y="-10" type="curve" smooth="yes"/>
    </contour>
    <contour>
      <point x="471" y="50" type="line"/>
      <point x="474" y="57" type="line"/>
      <point x="508" y="121"/>
      <point x="538" y="157"/>
      <point x="595" y="157" type="curve" smooth="yes"/>
      <point x="633" y="157"/>
      <point x="657" y="134"/>
      <point x="657" y="99" type="curve" smooth="yes"/>
      <point x="657" y="47"/>
      <point x="614" y="18"/>
      <point x="557" y="18" type="curve" smooth="yes"/>
      <point x="492" y="18"/>
      <point x="460" y="55"/>
      <point x="460" y="117" type="curve"/>
      <point x="430" y="117" type="line"/>
      <point x="430" y="38"/>
      <point x="481" y="-10"/>
      <point x="557" y="-10" type="curve" smooth="yes"/>
      <point x="631" y="-10"/>
      <point x="687" y="34"/>
      <point x="687" y="99" type="curve" smooth="yes"/>
      <point x="687" y="146"/>
      <point x="652" y="184"/>
      <point x="595" y="184" type="curve" smooth="yes"/>
      <point x="527" y="184"/>
      <point x="488" y="139"/>
      <point x="455" y="75" type="curve"/>
      <point x="448" y="63" type="line"/>
      <point x="390" y="-46" type="line"/>
      <point x="416" y="-57" type="line"/>
    </contour>
    <contour>
      <point x="460" y="734" type="line"/>
      <point x="430" y="738" type="line"/>
      <point x="430" y="117" type="line"/>
      <point x="460" y="117" type="line"/>
    </contour>
  </outline>
</glyph>
<glyph name="uni0222" format="1">
  <advance width="630"/>
  <unicode hex="0222"/>
  <outline>
    <contour>
      <point x="156" y="395"/>
      <point x="75" y="309"/>
      <point x="75" y="191" type="curve" smooth="yes"/>
      <point x="75" y="74"/>
      <point x="155" y="-10"/>
      <point x="315" y="-10" type="curve" smooth="yes"/>
      <point x="481" y="-10"/>
      <point x="555" y="78"/>
      <point x="555" y="192" type="curve" smooth="yes"/>
      <point x="555" y="315"/>
      <point x="475" y="395"/>
      <point x="315" y="395" type="curve"/>
    </contour>
    <contour>
      <point x="460" y="367"/>
      <point x="523" y="300"/>
      <point x="523" y="192" type="curve" smooth="yes"/>
      <point x="523" y="89"/>
      <point x="463" y="19"/>
      <point x="315" y="19" type="curve" smooth="yes"/>
      <point x="172" y="19"/>
      <point x="107" y="89"/>
      <point x="107" y="191" type="curve" smooth="yes"/>
      <point x="107" y="298"/>
      <point x="174" y="367"/>
      <point x="315" y="367" type="curve"/>
    </contour>
    <contour>
      <point x="480" y="682" type="line"/>
      <point x="480" y="558" type="line" smooth="yes"/>
      <point x="480" y="462"/>
      <point x="444" y="396"/>
      <point x="315" y="396" type="curve" smooth="yes"/>
      <point x="187" y="396"/>
      <point x="154" y="464"/>
      <point x="154" y="558" type="curve" smooth="yes"/>
      <point x="154" y="682" type="line"/>
      <point x="123" y="682" type="line"/>
      <point x="123" y="558" type="line" smooth="yes"/>
      <point x="123" y="448"/>
      <point x="167" y="370"/>
      <point x="315" y="370" type="curve" smooth="yes"/>
      <point x="460" y="370"/>
      <point x="511" y="450"/>
      <point x="511" y="558" type="curve" smooth="yes"/>
      <point x="511" y="682" type="line"/>
    </contour>
  </outline>
</glyph>
<glyph name="uni0223" format="1">
  <advance width="558"/>
  <unicode hex="0223"/>
  <outline>
    <contour>
      <point x="140" y="420"/>
      <point x="70" y="327"/>
      <point x="70" y="204" type="curve" smooth="yes"/>
      <point x="70" y="74"/>
      <point x="149" y="-10"/>
      <point x="279" y="-10" type="curve" smooth="yes"/>
      <point x="415" y="-10"/>
      <point x="488" y="78"/>
      <point x="488" y="205" type="curve" smooth="yes"/>
      <point x="488" y="333"/>
      <point x="420" y="420"/>
      <point x="279" y="420" type="curve"/>
    </contour>
    <contour>
      <point x="404" y="395"/>
      <point x="457" y="318"/>
      <point x="457" y="205" type="curve" smooth="yes"/>
      <point x="457" y="89"/>
      <point x="397" y="18"/>
      <point x="279" y="18" type="curve" smooth="yes"/>
      <point x="166" y="18"/>
      <point x="101" y="88"/>
      <point x="101" y="204" type="curve" smooth="yes"/>
      <point x="101" y="316"/>
      <point x="158" y="395"/>
      <point x="279" y="395" type="curve"/>
    </contour>
    <contour>
      <point x="424" y="734" type="line"/>
      <point x="424" y="574" type="line" smooth="yes"/>
      <point x="424" y="493"/>
      <point x="388" y="422"/>
      <point x="279" y="422" type="curve"/>
      <point x="171" y="422"/>
      <point x="138" y="490"/>
      <point x="138" y="574" type="curve" smooth="yes"/>
      <point x="138" y="734" type="line"/>
      <point x="108" y="734" type="line"/>
      <point x="108" y="574" type="line" smooth="yes"/>
      <point x="108" y="476"/>
      <point x="151" y="401"/>
      <point x="279" y="397" type="curve"/>
      <point x="406" y="401"/>
      <point x="454" y="476"/>
      <point x="454" y="574" type="curve" smooth="yes"/>
      <point x="454" y="734" type="line"/>
    </contour>
  </outline>
</glyph>
<glyph name="uni0224" format="1">
  <advance width="511"/>
  <unicode hex="0224"/>
  <outline>
    <contour>
      <point x="78" y="682" type="line"/>
      <point x="78" y="653" type="line"/>
      <point x="425" y="653" type="line"/>
      <point x="40" y="28" type="line"/>
      <point x="40" y="0" type="line"/>
      <point x="447" y="0" type="line"/>
      <point x="447" y="30" type="line"/>
      <point x="77" y="30" type="line"/>
      <point x="461" y="655" type="line"/>
      <point x="461" y="682" type="line"/>
    </contour>
    <contour>
      <point x="403" y="-199"/>
      <point x="447" y="-161"/>
      <point x="447" y="-82" type="curve" smooth="yes"/>
      <point x="447" y="1" type="line"/>
      <point x="416" y="1" type="line"/>
      <point x="416" y="-80" type="line" smooth="yes"/>
      <point x="416" y="-149"/>
      <point x="382" y="-171"/>
      <point x="343" y="-171" type="curve" smooth="yes"/>
      <point x="308" y="-171"/>
      <point x="286" y="-160"/>
      <point x="267" y="-147" type="curve"/>
      <point x="252" y="-168" type="line"/>
      <point x="272" y="-183"/>
      <point x="302" y="-199"/>
      <point x="343" y="-199" type="curve" smooth="yes"/>
    </contour>
  </outline>
</glyph>
<glyph name="uni0225" format="1">
  <advance width="410"/>
  <unicode hex="0225"/>
  <outline>
    <contour>
      <point x="55" y="520" type="line"/>
      <point x="55" y="492" type="line"/>
      <point x="338" y="492" type="line"/>
      <point x="30" y="25" type="line"/>
      <point x="30" y="0" type="line"/>
      <point x="367" y="0" type="line"/>
      <point x="367" y="28" type="line"/>
      <point x="68" y="28" type="line"/>
      <point x="375" y="495" type="line"/>
      <point x="375" y="520" type="line"/>
    </contour>
    <contour>
      <point x="323" y="-199"/>
      <point x="367" y="-161"/>
      <point x="367" y="-82" type="curve" smooth="yes"/>
      <point x="367" y="1" type="line"/>
      <point x="337" y="1" type="line"/>
      <point x="337" y="-81" type="line" smooth="yes"/>
      <point x="337" y="-150"/>
      <point x="303" y="-172"/>
      <point x="263" y="-172" type="curve" smooth="yes"/>
      <point x="228" y="-172"/>
      <point x="206" y="-161"/>
      <point x="187" y="-148" type="curve"/>
      <point x="172" y="-168" type="line"/>
      <point x="192" y="-183"/>
      <point x="222" y="-199"/>
      <point x="263" y="-199" type="curve" smooth="yes"/>
    </contour>
  </outline>
</glyph>
<glyph name="uni0234" format="1">
  <advance width="337"/>
  <unicode hex="0234"/>
  <outline>
    <contour>
      <point x="140" y="117" type="line"/>
      <point x="140" y="738" type="line"/>
      <point x="110" y="734" type="line"/>
      <point x="110" y="117" type="line"/>
    </contour>
    <contour>
      <point x="151" y="50" type="line"/>
      <point x="154" y="57" type="line"/>
      <point x="188" y="121"/>
      <point x="218" y="157"/>
      <point x="275" y="157" type="curve" smooth="yes"/>
      <point x="313" y="157"/>
      <point x="337" y="134"/>
      <point x="337" y="99" type="curve" smooth="yes"/>
      <point x="337" y="47"/>
      <point x="294" y="18"/>
      <point x="237" y="18" type="curve" smooth="yes"/>
      <point x="172" y="18"/>
      <point x="140" y="55"/>
      <point x="140" y="117" type="curve"/>
      <point x="110" y="117" type="line"/>
      <point x="110" y="38"/>
      <point x="161" y="-10"/>
      <point x="237" y="-10" type="curve" smooth="yes"/>
      <point x="311" y="-10"/>
      <point x="367" y="34"/>
      <point x="367" y="99" type="curve" smooth="yes"/>
      <point x="367" y="146"/>
      <point x="332" y="184"/>
      <point x="275" y="184" type="curve" smooth="yes"/>
      <point x="207" y="184"/>
      <point x="168" y="139"/>
      <point x="135" y="75" type="curve"/>
      <point x="128" y="63" type="line"/>
      <point x="70" y="-46" type="line"/>
      <point x="96" y="-57" type="line"/>
    </contour>
  </outline>
</glyph>
<glyph name="uni0235" format="1">
  <advance width="669"/>
  <unicode hex="0235"/>
  <outline>
    <contour>
      <point x="246" y="530"/>
      <point x="183" y="480"/>
      <point x="136" y="409" type="curve"/>
      <point x="145" y="383" type="line"/>
      <point x="194" y="453"/>
      <point x="249" y="503"/>
      <point x="331" y="503" type="curve" smooth="yes"/>
      <point x="405" y="503"/>
      <point x="442" y="459"/>
      <point x="442" y="366" type="curve" smooth="yes"/>
      <point x="442" y="117" type="line"/>
      <point x="472" y="117" type="line"/>
      <point x="472" y="370" type="line" smooth="yes"/>
      <point x="472" y="472"/>
      <point x="426" y="530"/>
      <point x="332" y="530" type="curve" smooth="yes"/>
    </contour>
    <contour>
      <point x="115" y="520" type="line"/>
      <point x="115" y="0" type="line"/>
      <point x="145" y="0" type="line"/>
      <point x="145" y="389" type="line"/>
      <point x="141" y="520" type="line"/>
    </contour>
    <contour>
      <point x="483" y="50" type="line"/>
      <point x="486" y="57" type="line"/>
      <point x="520" y="121"/>
      <point x="550" y="157"/>
      <point x="607" y="157" type="curve" smooth="yes"/>
      <point x="645" y="157"/>
      <point x="669" y="134"/>
      <point x="669" y="99" type="curve" smooth="yes"/>
      <point x="669" y="47"/>
      <point x="626" y="18"/>
      <point x="569" y="18" type="curve" smooth="yes"/>
      <point x="504" y="18"/>
      <point x="472" y="55"/>
      <point x="472" y="117" type="curve"/>
      <point x="442" y="117" type="line"/>
      <point x="442" y="38"/>
      <point x="493" y="-10"/>
      <point x="569" y="-10" type="curve" smooth="yes"/>
      <point x="643" y="-10"/>
      <point x="699" y="34"/>
      <point x="699" y="99" type="curve" smooth="yes"/>
      <point x="699" y="146"/>
      <point x="664" y="184"/>
      <point x="607" y="184" type="curve" smooth="yes"/>
      <point x="539" y="184"/>
      <point x="500" y="139"/>
      <point x="467" y="75" type="curve"/>
      <point x="460" y="63" type="line"/>
      <point x="402" y="-46" type="line"/>
      <point x="428" y="-57" type="line"/>
    </contour>
  </outline>
</glyph>
<glyph name="uni0236" format="1">
  <advance width="337"/>
  <unicode hex="0236"/>
  <outline>
    <contour>
      <point x="110" y="650" type="line"/>
      <point x="110" y="117" type="line"/>
      <point x="140" y="117" type="line"/>
      <point x="140" y="653" type="line"/>
    </contour>
    <contour>
      <point x="25" y="520" type="line"/>
      <point x="25" y="493" type="line"/>
      <point x="278" y="493" type="line"/>
      <point x="283" y="520" type="line"/>
    </contour>
    <contour>
      <point x="151" y="50" type="line"/>
      <point x="154" y="57" type="line"/>
      <point x="188" y="121"/>
      <point x="218" y="157"/>
      <point x="275" y="157" type="curve" smooth="yes"/>
      <point x="313" y="157"/>
      <point x="337" y="134"/>
      <point x="337" y="99" type="curve" smooth="yes"/>
      <point x="337" y="47"/>
      <point x="294" y="18"/>
      <point x="237" y="18" type="curve" smooth="yes"/>
      <point x="171" y="18"/>
      <point x="140" y="55"/>
      <point x="140" y="117" type="curve"/>
      <point x="110" y="117" type="line"/>
      <point x="110" y="38"/>
      <point x="161" y="-10"/>
      <point x="237" y="-10" type="curve" smooth="yes"/>
      <point x="311" y="-10"/>
      <point x="367" y="34"/>
      <point x="367" y="99" type="curve" smooth="yes"/>
      <point x="367" y="146"/>
      <point x="332" y="184"/>
      <point x="275" y="184" type="curve" smooth="yes"/>
      <point x="207" y="184"/>
      <point x="168" y="139"/>
      <point x="135" y="75" type="curve"/>
      <point x="128" y="63" type="line"/>
      <point x="70" y="-46" type="line"/>
      <point x="96" y="-57" type="line"/>
    </contour>
    <contour>
      <point x="125" y="650" type="move" name="top"/>
    </contour>
    <contour>
      <point x="169" y="-193" type="move" name="bottom"/>
    </contour>
  </outline>
</glyph>
<glyph name="dotlessj" format="1">
  <advance width="261"/>
  <unicode hex="0237"/>
  <outline>
    <contour>
      <point x="116" y="520" type="line"/>
      <point x="116" y="9" type="line" smooth="yes"/>
      <point x="116" y="-108"/>
      <point x="88" y="-138"/>
      <point x="19" y="-174" type="curve"/>
      <point x="28" y="-196" type="line"/>
      <point x="108" y="-156"/>
      <point x="146" y="-124"/>
      <point x="146" y="8" type="curve" smooth="yes"/>
      <point x="146" y="520" type="line"/>
    </contour>
    <contour>
      <point x="130" y="520" type="move" name="top"/>
    </contour>
    <contour>
      <point x="131" y="-193" type="move" name="bottom"/>
    </contour>
  </outline>
</glyph>
<glyph name="uni0238" format="1">
  <advance width="845"/>
  <unicode hex="0238"/>
  <outline>
    <contour>
      <point x="337" y="-10"/>
      <point x="386" y="39"/>
      <point x="413" y="92" type="curve"/>
      <point x="415" y="141" type="line"/>
      <point x="378" y="63"/>
      <point x="332" y="18"/>
      <point x="259" y="18" type="curve" smooth="yes"/>
      <point x="170" y="18"/>
      <point x="107" y="106"/>
      <point x="106" y="258" type="curve" smooth="yes"/>
      <point x="105" y="412"/>
      <point x="178" y="502"/>
      <point x="270" y="502" type="curve" smooth="yes"/>
      <point x="337" y="502"/>
      <point x="374" y="460"/>
      <point x="418" y="398" type="curve"/>
      <point x="417" y="433" type="line"/>
      <point x="386" y="488"/>
      <point x="340" y="530"/>
      <point x="269" y="530" type="curve" smooth="yes"/>
      <point x="151" y="530"/>
      <point x="75" y="419"/>
      <point x="75" y="258" type="curve" smooth="yes"/>
      <point x="75" y="90"/>
      <point x="152" y="-10"/>
      <point x="258" y="-10" type="curve" smooth="yes"/>
    </contour>
    <contour>
      <point x="436" y="0" type="line"/>
      <point x="440" y="96" type="line"/>
      <point x="440" y="738" type="line"/>
      <point x="410" y="734" type="line"/>
      <point x="410" y="96" type="line"/>
      <point x="414" y="0" type="line"/>
    </contour>
    <contour>
      <point x="703" y="-10"/>
      <point x="770" y="94"/>
      <point x="770" y="264" type="curve" smooth="yes"/>
      <point x="770" y="436"/>
      <point x="704" y="530"/>
      <point x="594" y="530" type="curve" smooth="yes"/>
      <point x="527" y="530"/>
      <point x="471" y="490"/>
      <point x="433" y="433" type="curve"/>
      <point x="434" y="398" type="line"/>
      <point x="480" y="462"/>
      <point x="525" y="502"/>
      <point x="594" y="502" type="curve" smooth="yes"/>
      <point x="685" y="502"/>
      <point x="739" y="422"/>
      <point x="739" y="264" type="curve" smooth="yes"/>
      <point x="739" y="105"/>
      <point x="682" y="18"/>
      <point x="587" y="18" type="curve" smooth="yes"/>
      <point x="524" y="18"/>
      <point x="471" y="63"/>
      <point x="435" y="141" type="curve"/>
      <point x="437" y="92" type="line"/>
      <point x="463" y="39"/>
      <point x="519" y="-10"/>
      <point x="588" y="-10" type="curve" smooth="yes"/>
    </contour>
  </outline>
</glyph>
<glyph name="uni0239" format="1">
  <advance width="840"/>
  <unicode hex="0239"/>
  <outline>
    <contour>
      <point x="146" y="530"/>
      <point x="70" y="419"/>
      <point x="70" y="258" type="curve" smooth="yes"/>
      <point x="70" y="90"/>
      <point x="147" y="-10"/>
      <point x="254" y="-10" type="curve" smooth="yes"/>
      <point x="333" y="-10"/>
      <point x="382" y="39"/>
      <point x="410" y="91" type="curve"/>
      <point x="411" y="141" type="line"/>
      <point x="374" y="63"/>
      <point x="328" y="18"/>
      <point x="255" y="18" type="curve" smooth="yes"/>
      <point x="165" y="18"/>
      <point x="102" y="106"/>
      <point x="101" y="258" type="curve" smooth="yes"/>
      <point x="100" y="412"/>
      <point x="173" y="502"/>
      <point x="266" y="502" type="curve" smooth="yes"/>
      <point x="334" y="502"/>
      <point x="381" y="446"/>
      <point x="411" y="395" type="curve"/>
      <point x="410" y="435" type="line"/>
      <point x="384" y="479"/>
      <point x="340" y="530"/>
      <point x="265" y="530" type="curve" smooth="yes"/>
    </contour>
    <contour>
      <point x="409" y="520" type="line"/>
      <point x="406" y="434" type="line"/>
      <point x="405" y="418" type="line"/>
      <point x="405" y="-199" type="line"/>
      <point x="435" y="-193" type="line"/>
      <point x="435" y="421" type="line"/>
      <point x="435" y="434" type="line"/>
      <point x="431" y="520" type="line"/>
    </contour>
    <contour>
      <point x="520" y="530"/>
      <point x="466" y="488"/>
      <point x="428" y="430" type="curve"/>
      <point x="429" y="398" type="line"/>
      <point x="475" y="460"/>
      <point x="519" y="502"/>
      <point x="592" y="502" type="curve" smooth="yes"/>
      <point x="680" y="502"/>
      <point x="734" y="422"/>
      <point x="734" y="264" type="curve" smooth="yes"/>
      <point x="734" y="105"/>
      <point x="677" y="18"/>
      <point x="582" y="18" type="curve" smooth="yes"/>
      <point x="519" y="18"/>
      <point x="467" y="62"/>
      <point x="429" y="142" type="curve"/>
      <point x="430" y="93" type="line"/>
      <point x="458" y="39"/>
      <point x="514" y="-10"/>
      <point x="583" y="-10" type="curve" smooth="yes"/>
      <point x="698" y="-10"/>
      <point x="765" y="94"/>
      <point x="765" y="264" type="curve" smooth="yes"/>
      <point x="765" y="436"/>
      <point x="699" y="530"/>
      <point x="592" y="530" type="curve" smooth="yes"/>
    </contour>
  </outline>
</glyph>
<glyph name="uni023B" format="1">
  <advance width="542"/>
  <unicode hex="023B"/>
  <outline>
    <contour>
      <point x="202" y="-64" type="line"/>
      <point x="225" y="-70" type="line"/>
      <point x="435" y="734" type="line"/>
      <point x="413" y="740" type="line"/>
    </contour>
    <component base="C"/>
  </outline>
</glyph>
<glyph name="uni023C" format="1">
  <advance width="462"/>
  <unicode hex="023C"/>
  <outline>
    <contour>
      <point x="166" y="-64" type="line"/>
      <point x="189" y="-70" type="line"/>
      <point x="368" y="583" type="line"/>
      <point x="346" y="589" type="line"/>
    </contour>
    <component base="c"/>
  </outline>
</glyph>
<glyph name="uni023E" format="1">
  <advance width="477"/>
  <unicode hex="023E"/>
  <outline>
    <contour>
      <point x="254" y="0" type="line"/>
      <point x="254" y="652" type="line"/>
      <point x="462" y="652" type="line"/>
      <point x="467" y="682" type="line"/>
      <point x="15" y="682" type="line"/>
      <point x="15" y="652" type="line"/>
      <point x="223" y="652" type="line"/>
      <point x="223" y="0" type="line"/>
    </contour>
    <contour>
      <point x="365" y="734" type="line"/>
      <point x="343" y="740" type="line"/>
      <point x="112" y="-64" type="line"/>
      <point x="135" y="-70" type="line"/>
    </contour>
  </outline>
</glyph>
<glyph name="uni023F" format="1">
  <advance width="461"/>
  <unicode hex="023F"/>
  <outline>
    <contour>
      <point x="329" y="-10"/>
      <point x="401" y="49"/>
      <point x="401" y="135" type="curve" smooth="yes"/>
      <point x="401" y="222"/>
      <point x="356" y="256"/>
      <point x="238" y="288" type="curve" smooth="yes"/>
      <point x="138" y="315"/>
      <point x="100" y="340"/>
      <point x="100" y="399" type="curve" smooth="yes"/>
      <point x="100" y="463"/>
      <point x="155" y="502"/>
      <point x="232" y="502" type="curve" smooth="yes"/>
      <point x="288" y="502"/>
      <point x="325" y="486"/>
      <point x="370" y="452" type="curve"/>
      <point x="388" y="473" type="line"/>
      <point x="339" y="512"/>
      <point x="292" y="530"/>
      <point x="231" y="530" type="curve" smooth="yes"/>
      <point x="140" y="530"/>
      <point x="69" y="477"/>
      <point x="69" y="400" type="curve" smooth="yes"/>
      <point x="69" y="328"/>
      <point x="114" y="293"/>
      <point x="224" y="264" type="curve" smooth="yes"/>
      <point x="338" y="233"/>
      <point x="370" y="207"/>
      <point x="370" y="135" type="curve" smooth="yes"/>
      <point x="370" y="59"/>
      <point x="309" y="18"/>
      <point x="228" y="18" type="curve" smooth="yes"/>
      <point x="157" y="18"/>
      <point x="120" y="41"/>
      <point x="64" y="75" type="curve"/>
      <point x="50" y="56" type="line"/>
      <point x="125" y="9"/>
      <point x="176" y="-10"/>
      <point x="228" y="-10" type="curve" smooth="yes"/>
    </contour>
    <contour>
      <point x="362" y="-199"/>
      <point x="383" y="-188"/>
      <point x="401" y="-173" type="curve"/>
      <point x="386" y="-154" type="line"/>
      <point x="370" y="-165"/>
      <point x="352" y="-172"/>
      <point x="327" y="-172" type="curve" smooth="yes"/>
      <point x="240" y="-172"/>
      <point x="232" y="-5"/>
      <point x="73" y="49" type="curve"/>
      <point x="50" y="56" type="line"/>
      <point x="235" y="-68"/>
      <point x="220" y="-199"/>
      <point x="328" y="-199" type="curve" smooth="yes"/>
    </contour>
  </outline>
</glyph>
<glyph name="uni0240" format="1">
  <advance width="410"/>
  <unicode hex="0240"/>
  <outline>
    <contour>
      <point x="384" y="-199"/>
      <point x="405" y="-188"/>
      <point x="423" y="-173" type="curve"/>
      <point x="408" y="-154" type="line"/>
      <point x="392" y="-165"/>
      <point x="374" y="-172"/>
      <point x="351" y="-172" type="curve" smooth="yes"/>
      <point x="250" y="-172"/>
      <point x="241" y="-6"/>
      <point x="63" y="22" type="curve"/>
      <point x="375" y="495" type="line"/>
      <point x="375" y="520" type="line"/>
      <point x="55" y="520" type="line"/>
      <point x="55" y="492" type="line"/>
      <point x="338" y="492" type="line"/>
      <point x="30" y="25" type="line"/>
      <point x="30" y="0" type="line"/>
      <point x="233" y="-24"/>
      <point x="222" y="-199"/>
      <point x="351" y="-199" type="curve" smooth="yes"/>
    </contour>
  </outline>
</glyph>
<glyph name="uni0241" format="1">
  <advance width="457"/>
  <unicode hex="0241"/>
  <outline>
    <contour>
      <point x="194" y="0" type="line"/>
      <point x="194" y="271" type="line"/>
      <point x="239" y="282" type="line" smooth="yes"/>
      <point x="335" y="304"/>
      <point x="417" y="350"/>
      <point x="417" y="492" type="curve" smooth="yes"/>
      <point x="417" y="607"/>
      <point x="342" y="692"/>
      <point x="218" y="692" type="curve" smooth="yes"/>
      <point x="139" y="692"/>
      <point x="79" y="663"/>
      <point x="20" y="609" type="curve"/>
      <point x="40" y="589" type="line"/>
      <point x="91" y="634"/>
      <point x="146" y="663"/>
      <point x="217" y="663" type="curve" smooth="yes"/>
      <point x="323" y="663"/>
      <point x="385" y="593"/>
      <point x="385" y="492" type="curve" smooth="yes"/>
      <point x="385" y="375"/>
      <point x="325" y="333"/>
      <point x="236" y="311" type="curve" smooth="yes"/>
      <point x="163" y="293" type="line"/>
      <point x="163" y="0" type="line"/>
    </contour>
    <contour>
      <point x="229" y="682" type="move" name="top"/>
    </contour>
    <contour>
      <point x="229" y="0" type="move" name="bottom"/>
    </contour>
  </outline>
</glyph>
<glyph name="uni0242" format="1">
  <advance width="417"/>
  <unicode hex="0242"/>
  <outline>
    <contour>
      <point x="164" y="0" type="line"/>
      <point x="164" y="155" type="line"/>
      <point x="209" y="166" type="line" smooth="yes"/>
      <point x="286" y="185"/>
      <point x="367" y="232"/>
      <point x="367" y="352" type="curve" smooth="yes"/>
      <point x="367" y="456"/>
      <point x="292" y="530"/>
      <point x="183" y="530" type="curve" smooth="yes"/>
      <point x="105" y="530"/>
      <point x="54" y="501"/>
      <point x="10" y="462" type="curve"/>
      <point x="28" y="443" type="line"/>
      <point x="66" y="473"/>
      <point x="112" y="502"/>
      <point x="182" y="502" type="curve" smooth="yes"/>
      <point x="274" y="502"/>
      <point x="336" y="443"/>
      <point x="336" y="352" type="curve" smooth="yes"/>
      <point x="336" y="256"/>
      <point x="278" y="212"/>
      <point x="206" y="194" type="curve" smooth="yes"/>
      <point x="134" y="176" type="line"/>
      <point x="134" y="0" type="line"/>
    </contour>
    <contour>
      <point x="209" y="520" type="move" name="top"/>
    </contour>
    <contour>
      <point x="209" y="0" type="move" name="bottom"/>
    </contour>
  </outline>
</glyph>
<glyph name="uni0243" format="1">
  <advance width="585"/>
  <unicode hex="0243"/>
  <outline>
    <contour>
      <point x="116" y="208" type="line"/>
      <point x="25" y="208" type="line"/>
      <point x="25" y="180" type="line"/>
      <point x="337" y="180" type="line"/>
      <point x="337" y="208" type="line"/>
    </contour>
    <component base="B" xOffset="-4"/>
  </outline>
</glyph>
